<?xml version="1.0" encoding="UTF-8"?>
<svg width="138px" height="38px" viewBox="0 0 138 38" version="1.1" xmlns="http://www.w3.org/2000/svg" xmlns:xlink="http://www.w3.org/1999/xlink">
    <!-- Generator: Sketch 49.2 (51160) - http://www.bohemiancoding.com/sketch -->
    <title>logo</title>
    <desc>Created with Sketch.</desc>
    <defs>
        <polygon id="path-1" points="0 0 138 0 138 38 0 38"></polygon>
    </defs>
    <g id="Symbols" stroke="none" stroke-width="1" fill="none" fill-rule="evenodd">
        <g id="menu-1170-foto" transform="translate(-100.000000, -29.000000)">
            <g id="logo" transform="translate(100.000000, 29.000000)">
                <mask id="mask-2" fill="white">
                    <use xlink:href="#path-1"></use>
                </mask>
                <g id="Clip-2"></g>
                <path d="M123.543091,15.0219721 C123.543091,12.8020349 124.074462,12.4950752 127.907831,12.4950752 L129.93678,12.4950752 C134.556217,12.4950752 134.559449,12.7511635 134.593279,15.2027276 L134.602114,15.8255222 L137.648769,15.8255222 L137.648769,14.5807988 C137.648769,10.7587401 135.808795,9.26875203 131.087222,9.26875203 L126.970714,9.26875203 C122.968409,9.26875203 120.488463,10.2024029 120.488463,14.850092 C120.488463,20.1045568 122.912384,20.6273406 128.863696,20.6273406 L132.491929,20.6273406 C134.577549,20.6273406 134.944725,20.9503193 134.944725,22.7864487 C134.944725,24.8399177 134.556217,25.4354367 131.985769,25.4354367 L126.054282,25.4354367 C123.93634,25.4354367 123.563131,24.8117762 123.563131,23.4969153 L123.563131,21.6146769 L120.508287,21.6146769 L120.508287,23.5458383 C120.508287,28.0798788 123.649322,28.6617599 126.385904,28.6617599 L131.692502,28.6617599 C133.896205,28.6617599 138,28.6617599 138,23.3497132 L138,22.1989393 C138,18.7918606 136.118869,17.2051088 132.082519,17.2051088 L126.424259,17.2051088 C123.674318,17.2051088 123.543091,16.6805931 123.543091,15.0219721 Z M101.623718,28.4660678 L116.831786,28.4660678 L116.831786,25.2397446 L104.794274,25.2397446 L104.794274,20.3089079 L116.285547,20.3089079 L116.285547,17.0830176 L104.794274,17.0830176 L104.794274,12.6907674 L116.753352,12.6907674 L116.753352,9.46574305 L101.623718,9.46574305 L101.623718,28.4660678 Z M98.1887689,14.923693 C98.1887689,10.3783959 96.4018025,9.46574305 93.5202035,9.46574305 L81.262472,9.46574305 L81.262472,28.4660678 L84.4338901,28.4660678 L84.4338901,21.4847927 L93.1491489,21.4847927 C97.8491742,21.4847927 98.1887689,19.0061695 98.1887689,14.923693 Z M95.0162733,16.3688711 C95.0162733,17.7296244 94.5139921,18.2589025 93.2277986,18.2589025 L84.4338901,18.2589025 L84.4338901,12.6907674 L93.0707145,12.6907674 C94.4424531,12.6907674 95.0162733,12.9674207 95.0162733,14.6790778 L95.0162733,16.3688711 Z M75.1663591,28.4660678 L78.7295178,28.4660678 L69.7425402,9.46574305 L66.5653042,9.46574305 L57.5778956,28.4660678 L61.1408389,28.4660678 L62.8961298,24.718476 L73.4112836,24.718476 L75.1663591,28.4660678 Z M71.8992683,21.4921528 L64.4083606,21.4921528 L68.1540299,13.5386947 L71.8992683,21.4921528 Z M46.6093743,12.6907674 L58.1590421,12.6907674 L58.1590421,9.46574305 L43.4373097,9.46574305 L43.4373097,28.4660678 L46.6093743,28.4660678 L46.6093743,20.3089079 L57.7095532,20.3089079 L57.7095532,17.0830176 L46.6093743,17.0830176 L46.6093743,12.6907674 Z M19.0754832,38 L37.8428316,19.0719775 L19.0754832,0 L14.4661745,4.36908756 C12.1140071,6.76588375 10.5379945,9.21376772 10.2007701,13.885269 C9.83704176,18.9275896 12.5296658,21.1916874 12.5296658,21.1916874 C12.5296658,21.1916874 11.8015627,16.58686 14.7105275,13.9584371 C17.185087,11.9863622 19.5131208,11.1806473 22.9314777,13.5213768 C26.3491882,15.8569109 26.2041709,21.3384565 26.2041709,21.3384565 C26.2041709,21.3384565 26.5685457,27.0377747 23.0038786,30.837753 C19.4389961,34.6381643 15.4381997,34.5654292 15.4381997,34.5654292 L19.0754832,38 Z M26.8969355,5.55557961 L32.4606002,11.1410326 L32.4606002,5.55557961 L26.8969355,5.55557961 Z M11.3072541,5.54107587 L5.60546754,5.55557961 L5.6058985,32.5920554 L13.1954956,32.5888083 C14.215788,32.5403182 15.2759441,32.4652019 16.3356692,32.3558827 C20.1660218,31.9662301 24.1506572,28.6957463 23.9912028,24.048923 C23.2421983,25.0293322 19.5480284,27.0587726 16.2350406,25.7359022 C12.9237767,24.4184436 9.43646652,21.3640004 8.77429993,15.9467475 C8.11019402,10.5275463 11.3072541,5.54107587 11.3072541,5.54107587 Z M0,19.067648 L3.93270501,23.0185085 L3.93270501,15.1157052 L0,19.067648 Z M32.4606002,27.0037883 L26.8969355,32.5920554 L32.4606002,32.5920554 L32.4606002,27.0037883 Z" id="Fill-1" fill="#008751" mask="url(#mask-2)"></path>
            </g>
        </g>
    </g>
</svg>