<?xml version="1.0" encoding="UTF-8"?>
<svg width="432px" height="347px" viewBox="0 0 432 347" version="1.1" xmlns="http://www.w3.org/2000/svg" xmlns:xlink="http://www.w3.org/1999/xlink">
    <!-- Generator: Sketch 63.1 (92452) - https://sketch.com -->
    <title>symbol-bw</title>
    <desc>Created with Sketch.</desc>
    <g id="Page-1" stroke="none" stroke-width="1" fill="none" fill-rule="evenodd" opacity="0.06">
        <g id="img-hero-graphic_4" transform="translate(-175.000000, -536.000000)" fill-rule="nonzero">
            <g id="symbol-overlay-Clipped">
                <g id="symbol-overlay" transform="translate(175.000000, 536.000000)">
                    <g id="Page-1">
                        <g id="Group">
                            <g id="symbol-overlay">
                                <g id="Page-1">
                                    <g id="symbol-bw">
                                        <path d="M208.34296,254.683618 C225.843208,102.101451 85.4212141,21.0402992 64.2409132,66.0009379 C45.2606436,102.321454 184.42262,98.6214012 208.34296,254.683618 Z" id="path-1" fill="#939283"></path>
                                        <path d="M208.34296,254.683618 C225.843208,102.101451 85.4212141,21.0402992 64.2409132,66.0009379 C45.2606436,102.321454 184.42262,98.6214012 208.34296,254.683618 Z" id="path-1" fill="#000000"></path>
                                        <path d="M223.023168,254.683618 C205.502919,102.101451 346.004915,21.0402992 367.125215,66.0009379 C386.105484,102.321454 246.943508,98.6214012 223.023168,254.683618 Z" id="path-2" fill="#939283"></path>
                                        <path d="M223.023168,254.683618 C205.502919,102.101451 346.004915,21.0402992 367.125215,66.0009379 C386.105484,102.321454 246.943508,98.6214012 223.023168,254.683618 Z" id="path-2" fill="#000000"></path>
                                        <path d="M209.022969,346.604923 C209.022969,151.582153 21.8603109,84.3811986 1.64002366,144.102047 C-17.0402417,192.722737 159.74227,144.622054 209.022969,346.604923 Z M215.683064,0 C265.923777,0.900012784 223.543175,82.0011648 215.683064,165.682353 C207.822952,82.0011648 165.44235,0.900012784 215.683064,0 Z M222.323158,346.604923 C271.603858,144.602054 448.326368,192.722738 429.726104,144.102047 C409.505817,84.3811986 222.323158,151.582153 222.323158,346.604923 L222.323158,346.604923 Z" id="path-3" fill="#00817B"></path>
                                        <path d="M209.022969,346.604923 C209.022969,151.582153 21.8603109,84.3811986 1.64002366,144.102047 C-17.0402417,192.722737 159.74227,144.622054 209.022969,346.604923 Z M215.683064,0 C265.923777,0.900012784 223.543175,82.0011648 215.683064,165.682353 C207.822952,82.0011648 165.44235,0.900012784 215.683064,0 Z M222.323158,346.604923 C271.603858,144.602054 448.326368,192.722738 429.726104,144.102047 C409.505817,84.3811986 222.323158,151.582153 222.323158,346.604923 L222.323158,346.604923 Z" id="path-3" fill="#000000"></path>
                                    </g>
                                </g>
                            </g>
                        </g>
                    </g>
                </g>
            </g>
        </g>
    </g>
</svg>