<?xml version="1.0" encoding="UTF-8"?>
<svg width="402px" height="309px" viewBox="0 0 402 309" version="1.1" xmlns="http://www.w3.org/2000/svg" xmlns:xlink="http://www.w3.org/1999/xlink">
    <!-- Generator: Sketch 61 (89581) - https://sketch.com -->
    <title>patternBg</title>
    <desc>Created with Sketch.</desc>
    <g id="Symbols" stroke="none" stroke-width="1" fill="none" fill-rule="evenodd" opacity="0.5" stroke-dasharray="0,16" stroke-linecap="round" stroke-linejoin="round">
        <g id="UI/Team/LeftBlock" transform="translate(-39.000000, -42.000000)" stroke="#939CAF" stroke-width="4">
            <g id="patternBg" transform="translate(40.000000, 44.000000)">
                <line x1="1" y1="0" x2="1" y2="309" id="Line"></line>
                <line x1="16" y1="0" x2="16" y2="309" id="Line"></line>
                <line x1="30" y1="0" x2="30" y2="309" id="Line"></line>
                <line x1="45" y1="0" x2="45" y2="309" id="Line"></line>
                <line x1="60" y1="0" x2="60" y2="309" id="Line"></line>
                <line x1="75" y1="0" x2="75" y2="309" id="Line"></line>
                <line x1="89" y1="0" x2="89" y2="309" id="Line"></line>
                <line x1="104" y1="0" x2="104" y2="309" id="Line"></line>
                <line x1="119" y1="0" x2="119" y2="309" id="Line"></line>
                <line x1="134" y1="0" x2="134" y2="309" id="Line"></line>
                <line x1="148" y1="0" x2="148" y2="309" id="Line"></line>
                <line x1="163" y1="0" x2="163" y2="309" id="Line"></line>
                <line x1="178" y1="0" x2="178" y2="309" id="Line"></line>
                <line x1="193" y1="0" x2="193" y2="309" id="Line"></line>
                <line x1="207" y1="0" x2="207" y2="309" id="Line"></line>
                <line x1="222" y1="0" x2="222" y2="309" id="Line"></line>
                <line x1="237" y1="0" x2="237" y2="309" id="Line"></line>
                <line x1="252" y1="0" x2="252" y2="309" id="Line"></line>
                <line x1="266" y1="0" x2="266" y2="309" id="Line"></line>
                <line x1="281" y1="0" x2="281" y2="309" id="Line"></line>
                <line x1="296" y1="0" x2="296" y2="309" id="Line"></line>
                <line x1="311" y1="0" x2="311" y2="309" id="Line"></line>
                <line x1="325" y1="0" x2="325" y2="309" id="Line"></line>
                <line x1="340" y1="0" x2="340" y2="309" id="Line"></line>
                <line x1="355" y1="0" x2="355" y2="309" id="Line"></line>
                <line x1="370" y1="0" x2="370" y2="309" id="Line"></line>
                <line x1="384" y1="0" x2="384" y2="309" id="Line"></line>
                <line x1="399" y1="0" x2="399" y2="309" id="Line"></line>
            </g>
        </g>
    </g>
</svg>