<?xml version="1.0" encoding="UTF-8"?>
<svg width="1635px" height="777px" viewBox="0 0 1635 777" version="1.1" xmlns="http://www.w3.org/2000/svg" xmlns:xlink="http://www.w3.org/1999/xlink">
    <!-- Generator: Sketch 61.2 (89653) - https://sketch.com -->
    <title>img-hero-graphic_3</title>
    <desc>Created with Sketch.</desc>
    <defs>
        <linearGradient x1="0%" y1="18.5664875%" x2="57.3795316%" y2="59.8324076%" id="linearGradient-1">
            <stop stop-color="#3ED6BE" offset="0%"></stop>
            <stop stop-color="#03756D" offset="100%"></stop>
        </linearGradient>
        <path d="M0,-1.13686838e-13 L1393,-1.13686838e-13 C1256.86667,246.362928 1104.53333,428.714491 936,547.054688 C834.755779,618.146031 649.407307,720.006762 442.609375,755.164062 C299.203125,779.544271 151.666667,783.489583 0,767 L0,-1.13686838e-13 Z" id="path-2"></path>
    </defs>
    <g id="Page-1" stroke="none" stroke-width="1" fill="none" fill-rule="evenodd">
        <g id="img-hero-graphic_3">
            <path d="M0,-1.13686838e-13 L1635,-1.13686838e-13 C1475.2168,246.362928 1296.41924,428.714491 1098.60732,547.054688 C979.774371,618.146031 762.226092,720.006762 519.50203,755.164062 C351.182419,779.544271 178.015075,783.489583 0,767 L0,-1.13686838e-13 Z" id="Rectangle-Copy" fill="#1B6B91" fill-rule="nonzero" opacity="0.09"></path>
            <mask id="mask-3" fill="white">
                <use xlink:href="#path-2"></use>
            </mask>
            <use id="Rectangle" fill="url(#linearGradient-1)" fill-rule="nonzero" xlink:href="#path-2"></use>
            <g id="symbol-overlay" mask="url(#mask-3)" opacity="0.06">
                <g transform="translate(175.000000, 536.000000)" id="Page-1">
                    <g>
                        <g id="symbol-overlay" fill-rule="nonzero">
                            <g id="Page-1">
                                <g id="symbol-bw">
                                    <g id="Path" transform="translate(62.000881, 52.000739)">
                                        <g id="path-1-link" fill="#939283">
                                            <path d="M146.342079,202.682879 C163.842327,50.1007116 23.4203331,-30.9604398 2.24003222,14.0001989 C-16.7402374,50.3207148 122.421739,46.6206622 146.342079,202.682879 Z" id="path-1"></path>
                                        </g>
                                        <g id="path-1-link" fill="#000000">
                                            <path d="M146.342079,202.682879 C163.842327,50.1007116 23.4203331,-30.9604398 2.24003222,14.0001989 C-16.7402374,50.3207148 122.421739,46.6206622 146.342079,202.682879 Z" id="path-1"></path>
                                        </g>
                                    </g>
                                    <g id="Path" transform="translate(220.003125, 52.000739)">
                                        <g id="path-2-link" fill="#939283">
                                            <path d="M3.0200429,202.682879 C-14.500206,50.1007116 126.00179,-30.9604398 147.12209,14.0001989 C166.102359,50.3207148 26.9403827,46.6206622 3.0200429,202.682879 Z" id="path-2"></path>
                                        </g>
                                        <g id="path-2-link" fill="#000000">
                                            <path d="M3.0200429,202.682879 C-14.500206,50.1007116 126.00179,-30.9604398 147.12209,14.0001989 C166.102359,50.3207148 26.9403827,46.6206622 3.0200429,202.682879 Z" id="path-2"></path>
                                        </g>
                                    </g>
                                    <g id="Shape">
                                        <g id="path-3-link" fill="#00817B">
                                            <path d="M209.022969,346.604923 C209.022969,151.582153 21.8603109,84.3811986 1.64002366,144.102047 C-17.0402417,192.722737 159.74227,144.622054 209.022969,346.604923 Z M215.683064,0 C265.923777,0.900012784 223.543175,82.0011648 215.683064,165.682353 C207.822952,82.0011648 165.44235,0.900012784 215.683064,0 Z M222.323158,346.604923 C271.603858,144.602054 448.326368,192.722738 429.726104,144.102047 C409.505817,84.3811986 222.323158,151.582153 222.323158,346.604923 L222.323158,346.604923 Z" id="path-3"></path>
                                        </g>
                                        <g id="path-3-link" fill="#000000">
                                            <path d="M209.022969,346.604923 C209.022969,151.582153 21.8603109,84.3811986 1.64002366,144.102047 C-17.0402417,192.722737 159.74227,144.622054 209.022969,346.604923 Z M215.683064,0 C265.923777,0.900012784 223.543175,82.0011648 215.683064,165.682353 C207.822952,82.0011648 165.44235,0.900012784 215.683064,0 Z M222.323158,346.604923 C271.603858,144.602054 448.326368,192.722738 429.726104,144.102047 C409.505817,84.3811986 222.323158,151.582153 222.323158,346.604923 L222.323158,346.604923 Z" id="path-3"></path>
                                        </g>
                                    </g>
                                </g>
                            </g>
                        </g>
                    </g>
                </g>
            </g>
        </g>
    </g>
</svg>