<?xml version="1.0" encoding="UTF-8"?>
<svg width="132px" height="95px" viewBox="0 0 132 95" version="1.1" xmlns="http://www.w3.org/2000/svg" xmlns:xlink="http://www.w3.org/1999/xlink">
    <!-- Generator: Sketch 61.1 (89650) - https://sketch.com -->
    <title>Image</title>
    <desc>Created with Sketch.</desc>
    <defs>
        <linearGradient x1="49.9973064%" y1="99.999228%" x2="49.9973064%" y2="0.00827744704%" id="linearGradient-1">
            <stop stop-color="#808080" stop-opacity="0.25" offset="0%"></stop>
            <stop stop-color="#808080" stop-opacity="0.12" offset="54%"></stop>
            <stop stop-color="#808080" stop-opacity="0.1" offset="100%"></stop>
        </linearGradient>
        <linearGradient x1="49.9777586%" y1="99.9920101%" x2="49.9777586%" y2="-0.0136237968%" id="linearGradient-2">
            <stop stop-color="#808080" stop-opacity="0.25" offset="0%"></stop>
            <stop stop-color="#808080" stop-opacity="0.12" offset="54%"></stop>
            <stop stop-color="#808080" stop-opacity="0.1" offset="100%"></stop>
        </linearGradient>
    </defs>
    <g id="Symbols" stroke="none" stroke-width="1" fill="none" fill-rule="evenodd">
        <g id="UI/Home/Cards/01" fill-rule="nonzero">
            <g id="Group-4">
                <g id="Image" transform="translate(-34.000000, -28.000000)">
                    <path d="M29,48.2569819 L29,67.9951556 L59.7582007,67.9951556 L59.7582007,48.2569819 L29,48.2569819 Z M29,68.6058646 L29,85.5573215 C29.1759558,85.5929938 29.3490735,85.6286661 29.5236103,85.6586308 C29.7577449,85.7042913 29.9932986,85.7456711 30.2331093,85.7813433 L30.3750091,85.8013198 C30.4686629,85.8170156 30.5637358,85.8298576 30.6588087,85.8412727 C30.8957813,85.8755181 31.132754,85.9012021 31.3683077,85.9240324 C31.4789895,85.9354475 31.5939283,85.9440088 31.7060292,85.9539971 L31.9798958,85.9739735 L31.9798958,85.9739735 C32.1288906,85.9853886 32.2764664,85.99395 32.4240422,85.9996575 C32.514858,85.9996575 32.6056739,86.006792 32.6979088,86.0096458 C32.7901437,86.0124996 32.8398086,86.0096458 32.9135965,86.0096458 L33.1817871,86.0096458 C33.3038209,86.0096458 33.4258548,86.0096458 33.5464696,86.0096458 L33.7025594,86.0096458 C33.8245932,86.0096458 33.946627,86.0096458 34.0672419,85.9982307 L34.0743369,85.9982307 C34.1594767,85.9982307 34.2431976,85.9982307 34.3283375,85.9882424 C34.35244,85.9896559 34.3766039,85.9896559 34.4007064,85.9882424 C34.4716563,85.9882424 34.5426062,85.9882424 34.6107181,85.9796811 C34.6267734,85.9783635 34.6429087,85.9783635 34.658964,85.9796811 C34.8164728,85.9696928 34.9754006,85.9568508 35.1357474,85.9425819 C35.2960941,85.928313 35.4479269,85.9111903 35.6082737,85.8940677 L35.9303862,85.8541147 C37.2466431,85.6688095 38.548258,85.3903502 39.8255357,85.0208108 C42.6961687,84.2160447 45.5015278,83.0902282 48.3707417,82.2669125 C52.0771645,81.2038792 56.1752307,80.6802105 59.7567817,81.9744 L59.7567817,68.6058646 L29,68.6058646 Z M59.7582007,26.2800173 L59.7582007,0.00240525874 C56.3910697,-0.0348468105 53.033008,0.360752383 49.7656167,1.17958977 C41.9767367,3.14727151 34.9824956,7.41510044 29,12.8658214 L29,26.2785904 L30.5481268,26.2785904 L30.5481268,26.8878725 L29,26.8878725 L29,47.6462728 L59.7582007,47.6462728 L59.7582007,26.8878725 L36.8811149,26.8878725 L36.8811149,26.2771635 L59.7582007,26.2800173 Z M99.274457,17.4033326 C97.3474577,17.3348419 95.4318104,16.7227059 93.6977949,15.7738239 C90.3858535,13.9631001 87.7380033,11.1635413 84.7808114,8.80346471 C78.6365501,3.8849738 71.0165308,0.915615059 63.1992708,0.179339658 L63.1992708,26.2800173 L107.104488,26.2800173 L107.213751,26.1644392 L99.274457,17.4033326 Z M103.274612,16.6898875 L107.515997,21.3715146 L107.515997,15.4584811 C106.088485,15.6396962 104.845443,16.0606288 103.274612,16.6841799 L103.274612,16.6898875 Z M107.515997,89.766648 L107.515997,68.6058646 L98.4713041,68.6058646 C98.4486002,68.5159705 98.4230582,68.4246496 98.3946782,68.3333286 C98.4216392,68.4246496 98.4457622,68.5159705 98.4698851,68.6058646 L63.1992708,68.6058646 L63.1992708,83.9078363 C63.5341543,84.1575422 63.8647809,84.4215169 64.1925694,84.6869185 L64.1925694,84.6869185 C64.5463729,84.9780041 64.8978114,85.2724191 65.2468849,85.5701636 L65.5987964,85.8626761 C65.7676572,86.0053651 65.939356,86.1480541 66.1096357,86.2836087 C66.4511412,86.5604254 66.7950118,86.8343884 67.1412473,87.1054975 C67.314365,87.242479 67.4884288,87.3770823 67.6634385,87.5093075 C70.4350445,89.6393054 73.3584755,91.561741 76.4101422,93.2611024 C77.0940992,93.6449358 77.7851513,94.0145004 78.4804603,94.3755037 C78.9430536,94.6152213 79.408958,94.8501825 79.8781733,95.0803875 C80.5819963,95.425695 81.2914953,95.758636 82.0066703,96.0792107 C82.0066703,96.0792107 82.0066703,96.0792107 82.0066703,96.0792107 C88.6001571,99.0554015 95.5724262,101.097249 102.724041,102.146348 C104.311427,102.38131 105.905908,102.566805 107.507483,102.702836 L107.507483,89.7637942 L107.649383,89.7637942 L107.515997,89.766648 Z M63.1992708,26.8878725 L63.1992708,47.6462728 L107.515997,47.6462728 L107.515997,26.8878725 L63.1992708,26.8878725 Z M63.1992708,48.2541281 L63.1992708,67.9951556 L107.515997,67.9951556 L107.515997,48.2569819 L63.1992708,48.2541281 Z M110.955649,15.4299433 L110.955649,22.0364455 L116.367707,16.0620557 C114.574093,15.7643113 112.770074,15.5536072 110.955649,15.4299433 Z M110.955649,48.2569819 L110.955649,67.9951556 L154.057713,67.9951556 L154.057713,48.2569819 L110.955649,48.2569819 Z M153.90588,91.3319466 L154.057713,68.6058646 L110.955649,68.6058646 L110.955649,102.932565 C113.731958,103.048656 116.512462,103.014838 119.285167,102.831256 L119.285167,102.831256 L119.333413,102.831256 C120.657811,102.745642 121.97606,102.623881 123.28816,102.465972 L123.317959,102.465972 C130.320056,101.646383 137.166442,99.8073854 143.642267,97.0066894 M162.373041,51.4988767 C162.209383,51.1183726 162.041469,50.7378685 161.869297,50.3573644 C161.548603,49.6439193 161.210882,48.9504506 160.861808,48.2584088 L157.498783,48.2584088 L157.498783,67.9951556 L166,67.9951556 C165.992905,62.4045993 164.585259,56.6970381 162.373041,51.4988767 L162.373041,51.4988767 Z M157.498783,68.6058646 L157.498783,88.1542619 C159.892633,85.8469803 161.917543,83.2058063 163.373435,80.1865064 C165.125897,76.549363 165.927631,72.6139995 165.994324,68.6044377 L157.498783,68.6058646 Z M157.498783,42.505187 L157.498783,47.6419921 L160.546791,47.6419921 C159.62283,45.8761692 158.605367,44.161439 157.498783,42.505187 L157.498783,42.505187 Z M128.267424,19.3039505 C128.043222,19.2169102 127.817602,19.1298699 127.591981,19.0471103 C125.213077,18.1630241 122.781921,17.4281911 120.312521,16.8468454 L112.028411,25.9875048 L112.028411,25.9875048 L111.866645,26.1630123 L111.97307,26.2785904 L141.457011,26.2785904 C137.350425,23.4370956 132.922919,21.095835 128.267424,19.3039505 L128.267424,19.3039505 Z M142.322599,26.8878725 L111.560142,26.8878725 L110.955649,27.4429329 L110.955649,47.6462728 L116.255606,47.6462728 L116.255606,47.6462728 L154.057713,47.6462728 L154.057713,37.8578053 C150.639557,33.7011901 146.694236,30.0131213 142.322599,26.8878725 Z" id="Shape" fill="#057E7D" opacity="0.1"></path>
                    <polygon id="Path" fill="#057E7D" opacity="0.1" points="40 30.0704867 40 48 29 48 29 30.0704867 30.5683397 30.0704867 30.5683397 24 37.006028 24 37.006028 30.0704867"></polygon>
                    <rect id="Rectangle" fill="#057E7D" opacity="0.1" x="29" y="48" width="11" height="20"></rect>
                    <path d="M29,69 L40,69 L40,85.0285316 C38.7024464,85.3897016 37.3799787,85.6612449 36.042595,85.8411085 C35.9330275,85.8564401 35.8249017,85.8689842 35.7153342,85.8801345 C35.5538663,85.8982537 35.3938401,85.9149791 35.2338139,85.9289169 L34.7508519,85.9665492 L34.7018349,85.9665492 L34.4884666,85.9776994 L34.414941,85.9776994 C34.3284404,85.9776994 34.2433814,85.9874559 34.1568807,85.9888497 L34.1496723,85.9888497 C34.0256881,85.9888497 33.9031455,85.9972124 33.7791612,86 L33.6205767,86 C33.4980341,86 33.3754915,86 33.2500655,86 L32.9790301,86 L32.7584535,86 C32.6647444,86 32.5724771,86 32.478768,85.9888497 C32.3307558,85.9832746 32.1808213,85.9749119 32.0289646,85.9637616 L32.0289646,85.9637616 L31.7507208,85.9442486 C31.6353866,85.9358859 31.5200524,85.9247356 31.4061599,85.9135853 C31.1639581,85.8931431 30.9236785,85.8666612 30.6853211,85.8341395 L30.3969856,85.7951136 L30.2528178,85.7756006 C30.0120577,85.7407559 29.7727392,85.7017299 29.531979,85.6571288 C29.353211,85.6264655 29.1773263,85.5916209 29,85.5553825 L29,69 Z" id="Path" fill="#057E7D" opacity="0.1"></path>
                    <rect id="Rectangle" fill="#057E7D" opacity="0.1" x="98" y="28" width="9" height="20"></rect>
                    <polygon id="Path" fill="#057E7D" opacity="0.1" points="107 48 107 68 63 68 63 59.3734278 86.4363293 59.3734278 86.4363293 64.4623392 98.1340655 64.4623392 98.1340655 48"></polygon>
                    <path d="M108,89.2018429 C107.952601,89.2018429 107.905203,89.2018429 107.856368,89.1933757 L107.856368,102 C106.237153,101.869229 104.623683,101.686244 103.015959,101.451044 C95.7745152,100.413845 88.7143525,98.3954405 82.0370252,95.4534512 C80.1094797,94.5992059 78.2211937,93.6682854 76.3721673,92.6606898 C73.2842196,90.9791682 70.3256349,89.0779124 67.5201085,86.9721496 C66.8134376,86.441539 66.1172997,85.8991685 65.4316949,85.345038 C64.9562719,84.9583697 64.485158,84.5632341 64.0054261,84.1807994 C63.6750718,83.9169053 63.3404086,83.6558336 63,83.4074627 L63,68.2695389 L98.7012448,68.2695389 C98.675391,68.1792222 98.6524098,68.0903167 98.626556,68 C98.6538462,68.0903167 98.6797,68.1792222 98.7026811,68.2695389 L107.857804,68.2695389 L107.857804,89.1919645 C107.905203,89.1933757 107.952601,89.1976093 108,89.2018429 Z" id="Path" fill="#057E7D" opacity="0.1"></path>
                    <path d="M144.998575,47.9994935 L116.320959,47.9994935 C116.323769,48 116.326696,48 116.329506,47.9994935 L116.316685,47.9994935 L111,47.9994935 L111,27.8848426 L112.507249,27.8848426 L112.507249,42.7525071 L119.393866,42.7525071 L119.393866,33.9473854 L125.085226,33.9473854 L125.085226,27 L130.926171,27 L130.926171,33.9517157 L136.614682,33.9517157 L136.614682,42.7568374 L145,42.7568374 L144.998575,47.9994935 Z" id="Path" fill="#057E7D" opacity="0.1"></path>
                    <path d="M111,48 L111,67.8308312 L144.785613,67.8308312 L144.785613,48 L111,48 Z M153.951868,91.172521 L154,75.4747257 L144.785613,75.4747257 L144.785613,68.4501415 L111,68.4501415 L111,102.932248 C113.769735,103.048885 116.543655,103.014908 119.309794,102.830464 L119.309794,102.830464 L119.357926,102.830464 C120.679188,102.744448 121.994316,102.622115 123.303309,102.463465 L123.333037,102.463465 C130.318553,101.640029 137.148727,99.7923982 143.609218,96.9785548" id="Shape" fill="#057E7D" opacity="0.1"></path>
                    <path d="M157.631368,68 L166,68 C165.927844,72.1004306 165.080007,76.1278739 163.223484,79.8473104 C161.681142,82.9375958 159.535995,85.6395884 157,88 L157,75.1542223 L157.631368,75.1542223 L157.631368,68 Z" id="Path" fill="#057E7D" opacity="0.1"></path>
                    <path d="M166,68 L158,68 L158,52 L162.329564,52 C164.5683,57.0417784 165.99282,62.5776317 166,68 Z" id="Path" fill="#057E7D" opacity="0.1"></path>
                    <rect id="Rectangle" fill="#057E7D" opacity="0.1" x="102" y="33" width="5" height="6"></rect>
                    <rect id="Rectangle" fill="#057E7D" opacity="0.1" x="102" y="46" width="5" height="1"></rect>
                    <rect id="Rectangle" fill="#057E7D" opacity="0.1" x="102" y="48" width="5" height="4"></rect>
                    <rect id="Rectangle" fill="#057E7D" opacity="0.1" x="102" y="59" width="5" height="6"></rect>
                    <rect id="Rectangle" fill="#057E7D" opacity="0.1" x="102" y="72" width="5" height="6"></rect>
                    <path d="M107.855949,89.604715 C107.903486,89.604715 107.951023,89.604715 108,89.6143282 C107.952463,89.6143282 107.904927,89.6143282 107.855949,89.6060883 L107.855949,91 L103,91 L103,85 L107.855949,85 L107.855949,89.604715 Z" id="Path" fill="#057E7D" opacity="0.1"></path>
                    <path d="M107,98 L107,103 C105.326906,102.862675 103.660239,102.67052 102,102.423533 L102,98 L107,98 Z" id="Path" fill="#057E7D" opacity="0.1"></path>
                    <rect id="Rectangle" fill="#057E7D" opacity="0.1" x="63" y="67.7712457" width="21" height="1"></rect>
                    <rect id="Rectangle" fill="#057E7D" opacity="0.1" x="63" y="68" width="21" height="2"></rect>
                    <rect id="Rectangle" fill="#057E7D" opacity="0.1" x="63" y="76" width="21" height="3"></rect>
                    <path d="M84,85 L84,88 L67.5600495,88 C66.8442569,87.4317492 66.1391334,86.8483316 65.4446788,86.2497472 C64.9616644,85.8356926 64.4844693,85.4110212 64,85 L84,85 Z" id="Path" fill="#057E7D" opacity="0.1"></path>
                    <path d="M83,93 L83,96 L81.374343,96 C79.5456492,95.0842158 77.7542015,94.086233 76,93.0060514 L83,93 Z" id="Path" fill="#057E7D" opacity="0.1"></path>
                    <rect id="Rectangle" fill="#057E7D" opacity="0.1" x="119" y="50" width="4" height="4"></rect>
                    <rect id="Rectangle" fill="#057E7D" opacity="0.1" x="32" y="31" width="4" height="4"></rect>
                    <rect id="Rectangle" fill="#057E7D" opacity="0.1" x="32" y="41" width="4" height="4"></rect>
                    <rect id="Rectangle" fill="#057E7D" opacity="0.1" x="32" y="50" width="4" height="4"></rect>
                    <rect id="Rectangle" fill="#057E7D" opacity="0.1" x="32" y="59" width="4" height="4"></rect>
                    <rect id="Rectangle" fill="#057E7D" opacity="0.1" x="32" y="69" width="4" height="4"></rect>
                    <rect id="Rectangle" fill="#057E7D" opacity="0.1" x="32" y="78" width="4" height="4"></rect>
                    <rect id="Rectangle" fill="#057E7D" opacity="0.1" x="135" y="50" width="4" height="4"></rect>
                    <rect id="Rectangle" fill="#057E7D" opacity="0.1" x="119" y="60" width="4" height="4"></rect>
                    <rect id="Rectangle" fill="#057E7D" opacity="0.1" x="135" y="60" width="4" height="4"></rect>
                    <rect id="Rectangle" fill="#057E7D" opacity="0.1" x="119" y="70" width="4" height="4"></rect>
                    <rect id="Rectangle" fill="#057E7D" opacity="0.1" x="135" y="70" width="4" height="4"></rect>
                    <rect id="Rectangle" fill="#057E7D" opacity="0.1" x="119" y="80" width="4" height="4"></rect>
                    <rect id="Rectangle" fill="#057E7D" opacity="0.1" x="135" y="80" width="4" height="4"></rect>
                    <rect id="Rectangle" fill="#057E7D" opacity="0.1" x="119" y="90" width="4" height="4"></rect>
                    <rect id="Rectangle" fill="#057E7D" opacity="0.1" x="135" y="90" width="4" height="4"></rect>
                    <polygon id="Path" fill="#057E7D" opacity="0.1" points="119 103 119 100 123 100 123 102.573064"></polygon>
                    <path d="M106.856885,89.0327604 L106.856885,89.0327604 L107.064148,89.0327604 L106.856885,89.0327604 Z M97.7653756,67.7356769 C97.8047556,67.8263019 97.8399903,67.916927 97.875225,68.0061361 L97.875225,68.0061361 C97.8441356,67.916927 97.8068282,67.8263019 97.7653756,67.7356769 Z M30,26.002832 L30,26.6060552 L36.3296406,26.6060552 L36.3296406,26 L30,26.002832 Z M106.858302,89.0327604 L106.858302,89.0327604 L107.065565,89.0327604 L106.858302,89.0327604 Z M97.7653756,67.7356769 C97.8047556,67.8263019 97.8399903,67.916927 97.875225,68.0061361 L97.875225,68.0061361 C97.8441356,67.916927 97.8068282,67.8263019 97.7653756,67.7356769 Z M106.856885,89.0327604 L106.856885,89.0327604 L107.064148,89.0327604 L106.856885,89.0327604 Z M97.7653756,67.7356769 C97.8047556,67.8263019 97.8399903,67.916927 97.875225,68.0061361 L97.875225,68.0061361 C97.8441356,67.916927 97.8068282,67.8263019 97.7653756,67.7356769 Z" id="Shape" fill="#057E7D" opacity="0.1"></path>
                    <ellipse id="Oval" fill="#057E7D" opacity="0.1" cx="125" cy="121" rx="14" ry="2"></ellipse>
                    <ellipse id="Oval" fill="#057E7D" opacity="0.1" cx="63" cy="119" rx="14" ry="2"></ellipse>
                    <path d="M78.9254906,59.6947368 C78.9220619,59.6806405 78.9145894,59.6678248 78.9039722,59.657832 C78.6902227,59.4491778 75.9645575,55.6352063 75.9645575,55.6352063 C75.9645575,55.6352063 75.8211015,55.2093814 75.5887026,54.6558091 C75.6632062,54.5603788 75.7191465,54.4520858 75.7536771,54.3364404 C75.7662259,54.2874424 75.7753332,54.2376439 75.7809338,54.1874017 C75.7809338,54.1717882 75.7924103,54.1590134 75.7967139,54.1433998 C75.8465343,53.9508883 75.8415693,53.7484936 75.7823683,53.5586003 C75.7664256,53.6073203 75.7467633,53.6547709 75.7235513,53.700542 C75.6695795,53.535196 75.597419,53.3762147 75.5083673,53.2264569 C75.146858,52.6104303 74.6304162,52.0909239 74.2502576,51.4905109 C73.6746103,50.5576343 73.4458091,49.455321 73.6032708,48.3734728 C73.6032708,48.42883 73.6032708,48.4856067 73.6032708,48.5409639 C73.6176492,48.3264019 73.6464036,48.1130205 73.6893444,47.9022266 C73.7492992,47.6622947 73.8294359,47.4277462 73.928916,47.201035 C74.2703414,46.4274531 74.8226473,45.7532304 75.1583345,44.9768097 C75.2709818,44.7149252 75.3565356,44.4424265 75.4136863,44.1634842 C75.531976,43.6976116 75.5750668,43.2161616 75.5413621,42.7369709 C75.5413621,42.8505242 75.5227129,42.9640775 75.5054981,43.0762114 C75.4692175,41.924097 74.9989917,40.8270108 74.1871369,40.0003364 C73.0151009,38.8349956 71.3323613,38.3822018 69.7227843,38.1437399 C69.0464152,38.0656537 68.4004547,37.8217067 67.8435099,37.4340318 C67.2252143,37.0380147 66.426164,36.9429138 65.7031455,37.0294982 C64.8721484,37.1183933 64.0999797,37.4961266 63.5240479,38.0954798 C62.7594271,38.9272577 62.4280436,40.1053732 61.5357469,40.8065648 C60.9949175,41.2323897 60.3091976,41.4311079 59.6794255,41.7206689 C59.0496534,42.0102298 58.4543107,42.430377 58.2520377,43.0520813 C58.2520377,43.0520813 58.2520377,43.0435648 58.2520377,43.0393066 L58.2520377,43.074792 L58.2434303,43.0975026 C58.0339844,43.8327602 58.4385305,44.5807926 58.6494109,45.3146308 C58.8688987,46.0740185 58.8832443,46.8759887 58.8947208,47.6609258 C58.910501,48.6204512 58.9248466,49.581396 58.9090664,50.5423408 C58.9018936,50.9199055 58.8889826,51.3017285 58.8602914,51.6778738 C58.5207424,51.7794444 58.1909421,51.9105419 57.8747482,52.0696327 C57.5534066,52.2768675 56.3512448,53.5614392 56.3512448,53.5614392 L54,62.4498237 L54.0315603,62.4853091 L54,62.6059595 L54.1190685,62.5789906 C54.4518866,62.9338446 55.4460371,63.944469 56.5190884,64.5746898 L56.6195077,66.317733 C56.6195077,66.317733 56.7400108,68.0664538 58.3653679,68.7889367 C58.4026665,69.3950274 58.5188659,71.8562952 57.9809057,72.8314341 C57.6083866,73.5438267 57.4331698,74.3411193 57.4730712,75.1422438 C57.4730712,75.1422438 57.6609987,76.6212755 57.4472491,77.3991156 C57.3223725,77.9189599 57.3130727,78.4594351 57.4199925,78.9831841 L57.4199925,78.9831841 C57.4199925,78.9831841 57.4199925,79.1549335 57.4199925,79.4501721 C57.4199925,81.0243047 57.4386418,86.06891 57.4199925,86.6395154 C57.3927358,87.3137381 57.4199925,97.2851372 57.4199925,97.2851372 C57.4199925,97.2851372 57.2865784,102.268708 56.8590793,103.618572 C56.4315802,104.968437 56.5391723,109.438179 56.5391723,109.438179 C56.5391723,109.438179 56.2709094,114.762409 57.219154,115.812777 C57.219154,115.859618 57.2105466,115.907878 57.2091121,115.954719 C57.2091121,115.97601 57.2091121,116.00014 57.2091121,116.021432 C57.1976356,116.425965 57.2765364,116.856048 57.6280038,116.988054 C58.3452841,117.260582 59.2935287,118.078166 59.4728487,118.312369 C59.6521688,118.546573 60.6950944,119.129953 62.0550578,118.973817 C62.907004,118.879065 63.7643524,118.840182 64.6214868,118.857425 L64.6214868,118.857425 C64.6214868,118.857425 65.1580124,118.760905 64.9844306,118.100876 L64.9844306,118.100876 C64.9844306,118.100876 64.9844306,118.100876 64.9844306,118.100876 C64.8725349,117.689246 64.4536432,117.056186 64.1552546,116.640297 C64.2097679,116.654491 64.2628466,116.665847 64.3130562,116.675783 L64.3647004,116.685718 L64.4048681,116.685718 C64.4268445,116.687037 64.4488815,116.687037 64.4708579,116.685718 L64.4995491,116.685718 C64.5262828,116.687885 64.5531508,116.687885 64.5798845,116.685718 L64.5798845,116.685718 C64.9399592,116.651652 66.282708,117.270518 66.5222796,117.67931 C66.7618512,118.088102 67.6068074,118.398954 68.2437523,118.477022 C68.6224763,118.522443 69.5778937,118.445795 70.3798131,118.343597 C70.7836506,118.302338 71.1836538,118.230205 71.5762366,118.127845 C71.7655986,118.056875 71.8057663,117.829768 71.751253,117.574273 L71.751253,117.574273 C71.6868516,117.249785 71.5115926,116.957095 71.254895,116.745334 C71.0224962,116.582101 70.7155002,116.152018 70.4888397,115.800003 L70.4285881,115.704902 C70.8288305,115.327337 71.5518491,114.092445 71.7713369,113.83695 C72.0381651,113.526098 71.3409687,102.157993 71.3409687,102.157993 L71.3409687,96.459037 L72.4097163,91.0652552 L73.1571224,88.2108091 L73.798371,83.9014614 C73.798371,83.9014614 74.9201974,78.8682114 74.5744683,78.3742546 L74.5744683,78.3742546 C74.5744683,78.3643187 74.2875562,73.1820299 73.9862984,71.9372019 C73.8557534,71.3822101 73.8887483,70.1331238 73.9662146,68.9181035 C74.1314501,68.7557172 74.1873062,68.5136502 74.1096707,68.2963992 C74.0882611,68.2236226 74.0604188,68.1528518 74.0264661,68.0849062 C74.0264661,68.063615 74.0264661,68.0409043 74.0264661,68.0196131 C74.6461703,67.7374812 75.2937436,67.5196211 75.9588193,67.3695204 C77.0275669,67.1622856 76.7607387,66.6172298 76.7607387,66.6172298 C76.7607387,66.6172298 77.0017448,66.1502419 77.1609811,65.8649392 C77.3202173,65.5796365 77.1882377,63.0615921 77.1609811,62.8543573 C77.1509392,62.7706118 77.0849494,62.3078821 77.0089177,61.7826981 C77.3517776,61.5413973 77.797926,61.2419005 78.284242,60.9580172 C79.2095336,60.4158002 79.0015223,59.8437755 78.9254906,59.6947368 Z M64.9815615,95.6811968 C64.9815615,95.6811968 64.1796421,97.7052844 64.5009837,98.2233713 C64.8223253,98.7414583 64.4479049,100.664767 64.4479049,100.664767 L64.1796421,103.519213 C64.1796421,103.519213 63.432236,108.813636 63.6990643,110.058464 C63.9085101,111.035022 63.9859764,113.951923 64.0103639,115.168362 L64.0103639,115.168362 C63.9919993,115.175439 63.9742477,115.183984 63.9572852,115.193912 L63.9214212,115.212364 C64.0447934,114.734021 63.9931492,113.765979 63.3805918,111.81854 L63.3289477,103.774708 C63.3289477,103.774708 63.2342667,94.4832095 63.9759345,93.4441968 C64.7176023,92.4051842 64.9801269,90.6408498 64.9801269,90.6408498 C64.9801269,90.6408498 64.8194561,93.1858631 64.7147332,93.8600858 C64.6100103,94.5343085 64.9815615,95.6811968 64.9815615,95.6811968 Z M63.5356447,115.696768 C63.525153,115.721682 63.5125629,115.746597 63.5041695,115.769435 L63.4454157,115.694692 C63.4754005,115.697563 63.5055575,115.698256 63.5356447,115.696768 L63.5356447,115.696768 Z" id="Shape" fill="url(#linearGradient-1)"></path>
                    <path d="M70.8117837,119.583678 C70.4107564,119.764066 68.2363281,120.071214 67.6285428,119.985082 C67.0207575,119.898951 66.2159276,119.538174 65.9869674,119.066889 C65.7580072,118.595604 64.4744423,117.883801 64.1303081,117.929305 C63.9892482,117.934262 63.848491,117.911184 63.7140168,117.86105 C63.4766002,117.776846 63.2447176,117.672564 63.020198,117.549026 C62.9888438,117.34415 62.9940408,117.13389 63.035462,116.931481 C63.043456,116.890678 63.0536525,116.850511 63.06599,116.811222 C63.1469805,116.544609 63.3145296,116.326193 63.5322363,116.203427 L63.5821912,116.175799 C63.6783909,116.127125 63.7789206,116.09115 63.881921,116.068542 C64.9726042,115.823148 69.4727133,116.31556 69.4727133,116.31556 C69.4727133,116.31556 69.5989884,116.580455 69.7724431,116.908729 C69.9889146,117.315009 70.2830938,117.810671 70.5051158,117.99756 C70.7510579,118.24378 70.9179685,118.580847 70.9783003,118.953131 C71.0310305,119.240777 70.9921766,119.504047 70.8117837,119.583678 Z" id="Path" fill="#FFFFFF"></path>
                    <path d="M70.8099126,118.64765 C70.408891,118.80032 68.235881,119.060271 67.6281042,118.987375 C67.0203275,118.914478 66.215509,118.607764 65.9851644,118.210272 C65.7548197,117.812781 64.4740482,117.208979 64.1299189,117.24749 C63.7857896,117.286002 63.0198244,116.925646 63.0198244,116.925646 C63.0198244,116.925646 62.9004893,116.375485 63.2473938,116 L63.9412029,116.488268 C63.9412029,116.488268 65.7978359,117.05906 66.1419652,117.58859 C66.4860945,118.11812 67.1132979,118.413832 68.0194125,118.467472 C68.6965702,118.511485 70.2520901,118.250159 70.9805896,118.119496 C71.0291563,118.35744 70.9916906,118.580255 70.8099126,118.64765 Z" id="Path" fill="#000000" opacity="0.1"></path>
                    <path d="M64.5966779,119.854015 C63.719142,119.83748 62.8414399,119.877369 61.9693761,119.973419 C60.5724132,120.131666 59.5057227,119.541839 59.3197586,119.298715 C59.1337944,119.055591 58.1712439,118.234149 57.4318503,117.946429 C57.070336,117.8112 56.9855363,117.370988 57.0019011,116.959548 C57.0019011,116.937969 57.0019011,116.913512 57.0019011,116.891933 C57.0156007,116.631303 57.0554604,116.372578 57.1209182,116.119404 L62.9096109,116 L63.4109703,116.657441 L63.4883314,116.758143 L63.7933127,117.159513 C63.7933127,117.159513 63.93167,117.335023 64.113171,117.591094 C64.41964,118.022675 64.8481014,118.659975 64.9626554,119.081486 L64.9626554,119.081486 C65.1456441,119.75619 64.5966779,119.854015 64.5966779,119.854015 Z" id="Path" fill="#FFFFFF"></path>
                    <path d="M64.5908554,119.855821 C63.7139921,119.83949 62.8369627,119.878886 61.9655673,119.973748 C60.5711617,120.130037 59.5038022,119.547506 59.3194672,119.30739 C59.1351321,119.067274 58.1703461,118.248889 57.4315193,117.974673 C57.0702821,117.841117 56.9855474,117.406351 57.0018997,117 C57.415167,117.092352 58.2833257,117.328206 58.6237509,117.738819 C59.0697229,118.287251 59.8680126,119.209354 61.0022679,119.267607 C61.9179969,119.314494 64.1478566,119.158205 64.9654718,119.09569 C65.1408874,119.759206 64.5908554,119.855821 64.5908554,119.855821 Z" id="Path" fill="#000000" opacity="0.1"></path>
                    <path d="M64,116.094958 C63.9322143,116.459509 63.7228319,116.557742 63.5721971,116.579571 C63.5353884,116.584781 63.4975361,116.584781 63.4607274,116.579571 C63.4409344,116.578532 63.4212887,116.576342 63.4019798,116.573022 C63.4019798,116.573022 58.1387992,117.415638 57.0753174,116.733469 C57.0483173,116.715919 57.023143,116.696949 57,116.676712 C57.0138712,116.478972 57.0542301,116.282676 57.1205079,116.090592 L62.9817086,116 L63.489348,116.498802 C63.5772671,116.319739 63.7591497,116.173045 63.995481,116.090592 L64,116.094958 Z" id="Path" fill="#000000" opacity="0.1"></path>
                    <path d="M70,116.822984 C69.8951613,116.948435 69.8077957,117.019913 69.7526882,116.995115 C69.5053763,116.887168 67.4784946,116.512273 66.8346774,116.834654 C66.1908602,117.157035 64.0120968,116.887168 64.0120968,116.887168 C64.0120968,116.887168 64.0120968,116.607091 64,116.157801 C64.0931804,116.114109 64.1905549,116.081818 64.2903226,116.061524 C65.3467742,115.841255 69.7056452,116.283252 69.7056452,116.283252 C69.7056452,116.283252 69.8333333,116.528319 70,116.822984 Z" id="Path" fill="#000000" opacity="0.1"></path>
                    <path d="M73.1660258,84.3453771 L72.5288995,88.6978764 L71.7879879,91.5824405 L70.7270717,97.0351787 L70.7270717,102.807157 C70.7270717,102.807157 71.4160907,114.291257 71.1508616,114.604796 C70.8856326,114.918336 69.8780505,116.704086 69.6128215,116.600048 C69.3475924,116.49601 67.1738674,116.128314 66.483407,116.441853 C65.7929466,116.755393 63.4563364,116.494585 63.4563364,116.494585 C63.4563364,116.494585 63.4030023,112.038047 63.1377733,110.779613 C62.8725442,109.52118 63.6148972,104.17248 63.6148972,104.17248 L63.8801263,101.289341 C63.8801263,101.289341 64.2520235,99.3482457 63.9334604,98.8237795 C63.6148972,98.2993133 64.4105844,96.2584557 64.4105844,96.2584557 C64.4105844,96.2584557 64.0401286,95.1026348 64.1467968,94.4213988 C64.253465,93.7401628 64.4105844,91.1705635 64.4105844,91.1705635 C64.4105844,91.1705635 64.1467968,92.9548887 63.4102096,94.0023959 C62.6736224,95.0499031 62.7673175,104.437563 62.7673175,104.437563 L62.8192101,112.561088 C64.1467968,116.862281 62.8192101,116.441853 62.8192101,116.441853 C62.8192101,116.441853 57.7827412,117.543517 56.7650689,116.651355 C55.7473966,115.759192 56.0385719,110.143983 56.0385719,110.143983 C56.0385719,110.143983 55.9333452,105.634714 56.3571351,104.272242 C56.780925,102.90977 56.9149809,97.8746097 56.9149809,97.8746097 C56.9149809,97.8746097 56.8875932,87.8057138 56.9149809,87.125903 C56.9351614,86.5558311 56.9149809,81.4522619 56.9149809,79.8574857 C56.9149809,79.5610482 56.9149809,79.3857511 56.9149809,79.3857511 L57.523278,77.8921626 L64.730589,77 L68.1785666,77 C68.1785666,77 73.3678305,78.2057022 73.9040544,78.7258928 C73.9154946,78.7345433 73.925261,78.745165 73.9328837,78.7572468 C74.2802761,79.2603353 73.1660258,84.3453771 73.1660258,84.3453771 Z" id="Path" fill="#057E7D"></path>
                    <path d="M65,107 C65,107 66.293948,110.729559 66.9044561,110.988615 C67.5149643,111.24767 65,107 65,107 Z" id="Path" fill="#000000" opacity="0.1"></path>
                    <path d="M66,113 C66,113 71.0499356,113.268216 70.9996266,113.858582 C70.9493176,114.448947 66,113 66,113 Z" id="Path" fill="#000000" opacity="0.1"></path>
                    <path d="M58,111 C58.2240071,111.198288 62.3170885,111.570613 61.980316,111.932953 C61.6435435,112.295292 58.3367725,113 58.3367725,113 L58,111 Z" id="Path" fill="#000000" opacity="0.1"></path>
                    <path d="M58,105 C58,105.166121 58.8034934,110.334005 59.0189229,110.556003 C59.2343523,110.778002 61,111 61,111 L58,105 Z" id="Path" fill="#000000" opacity="0.1"></path>
                    <path d="M63.3286778,38.0960996 C62.5996505,38.9246724 62.2842459,40.0993044 61.4348668,40.7998634 C60.918876,41.2218869 60.2659331,41.4230514 59.6655577,41.7100274 C59.0651822,41.9970034 58.4703402,42.434501 58.2918876,43.0844172 C58.0926847,43.8159246 58.477257,44.5629062 58.6792266,45.2944135 C58.888113,46.0512423 58.9005632,46.841833 58.9130133,47.6338304 C58.9268469,48.5918237 58.9420638,49.549817 58.9254635,50.5078103 C58.9005632,52.0003667 58.778828,53.5618536 58,54.8265174 C60.8123578,55.7366813 63.8031681,55.8604749 66.7524779,55.9772347 C67.3192516,56.0183512 67.8886048,56.0037472 68.4526194,55.9336256 C68.9413524,55.8345933 69.4247762,55.7101678 69.9009905,55.5608382 C70.8425252,55.3075061 71.8127396,55.1812226 72.786666,55.1852373 C73.2113555,55.1852373 73.6443452,55.2119655 74.0538179,55.0994259 C74.4632905,54.9868863 74.8575463,54.6985036 74.9682145,54.2821071 C75.0664326,53.9079129 74.9225639,53.5098041 74.7344278,53.173592 C74.3913561,52.5602512 73.9044157,52.0481961 73.5364436,51.4432957 C72.7746571,50.1475316 72.6632464,48.5608848 73.2362559,47.1681978 C73.5627273,46.3958948 74.0884017,45.7234708 74.4093397,44.949761 C75.0806228,43.2533851 74.7185867,41.3147871 73.4824928,39.9867648 C72.3661265,38.8247935 70.7642031,38.3746351 69.2314474,38.1354885 C68.5860584,38.0579668 67.9703535,37.8160364 67.4413879,37.432116 C66.8534627,37.0382274 66.0912349,36.9425687 65.4023248,37.0297869 C64.6075821,37.1203475 63.8714732,37.4988701 63.3286778,38.0960996 L63.3286778,38.0960996 Z" id="Path" fill="#3F3D56"></path>
                    <g id="Group" opacity="0.1" transform="translate(58.000000, 43.000000)" fill="#000000">
                        <path d="M15.2184553,3.59712766 C14.9366548,4.26353958 14.8159063,4.98706248 14.8660163,5.70893617 C14.8969711,5.19273199 15.016179,4.68566456 15.2184553,4.20978723 C15.543252,3.45053191 16.0684553,2.78946809 16.3891057,2.02882979 C16.6512297,1.39368507 16.7615019,0.706065151 16.7111382,0.0207446809 C16.6826373,0.501094866 16.5737816,0.973254027 16.3891057,1.41755319 C16.0684553,2.17819149 15.543252,2.83787234 15.2184553,3.59712766 Z" id="Path"></path>
                        <path d="M0.906666667,4.66478723 C0.91495935,5.20691489 0.923252033,5.75042553 0.924634146,6.29255319 C0.924634146,5.54574468 0.917723577,4.80031915 0.906666667,4.05489362 C0.895609756,3.28180851 0.881788618,2.49904255 0.673089431,1.75361702 C0.534878049,1.2806383 0.330325203,0.800744681 0.258455285,0.323617021 C0.135447154,1.0012766 0.485121951,1.68861702 0.673089431,2.36489362 C0.881788618,3.10340426 0.895609756,3.89170213 0.906666667,4.66478723 Z" id="Path"></path>
                        <path d="M16.0394309,11.4012766 C15.6247967,11.5132979 15.1991057,11.4884043 14.7747967,11.4856383 C13.8025051,11.47946 12.8336252,11.6012852 11.8930894,11.8479787 C11.4172308,11.9941548 10.934249,12.1160144 10.4460163,12.2130851 C9.88213885,12.2831551 9.31277204,12.2979772 8.74601626,12.2573404 C5.89886179,12.1453191 3.01162602,12.025 0.284715447,11.2104255 C0.203753027,11.3912657 0.111427362,11.5667942 0.00829268293,11.7359574 C2.81813008,12.6293617 5.80626016,12.7524468 8.75154472,12.867234 C9.3183005,12.9078708 9.88766731,12.8930487 10.4515447,12.8229787 C10.9380402,12.7268433 11.4192058,12.605438 11.8930894,12.4592553 C12.8316506,12.2116431 13.7986431,12.0884267 14.7692683,12.092766 C15.1935772,12.092766 15.6247967,12.1190426 16.0339024,12.0070213 C16.4430081,11.895 16.8369106,11.6142553 16.9474797,11.2048936 C16.9940685,11.0153013 16.9892976,10.8167079 16.9336585,10.6295745 C16.8106504,11.0168085 16.4305691,11.2864894 16.0394309,11.4012766 Z" id="Path"></path>
                    </g>
                    <path d="M69.991368,52.5856759 C69.8833416,52.8278958 69.4278789,54.920326 69.3198525,55.134822 C69.2118262,55.349318 68.6220604,58.7827128 68.5680472,58.9753214 C68.514034,59.1679301 64.6805568,58.1698671 64.6805568,58.1698671 L62.3725875,56.236485 L60.0003863,53.8770292 C60.0003863,53.8770292 59.9303151,51.7481201 61.677715,51.065235 C61.796486,51.0186196 61.9184505,50.9805838 62.0426691,50.9514208 C64.1623221,50.4421752 63.9491889,44 63.9491889,44 L68.2994411,45.8779342 C68.2994411,45.8779342 67.4936225,49.6367209 67.5213591,50.3619216 C67.5286581,50.6056007 67.719894,50.757353 67.9695226,50.8492798 C68.3554863,50.9590357 68.7572994,51.0024554 69.157813,50.9776856 C69.157813,50.9776856 70.0993944,52.3449151 69.991368,52.5856759 Z" id="Path" fill="#FBBEBE"></path>
                    <path d="M77.3369532,59.3086636 L77.9103672,59.4643985 C77.9103672,59.4643985 78.3346665,60.1322343 77.3369532,60.7537706 C76.70343,61.1520496 76.095322,61.5921027 75.5163974,62.0712031 L72.5679917,63 L72,61.1550333 L74.7437118,59 L77.3369532,59.3086636 Z" id="Path" fill="#057E7D"></path>
                    <path d="M77.3369532,59.3086636 L77.9103672,59.4643985 C77.9103672,59.4643985 78.3346665,60.1322343 77.3369532,60.7537706 C76.70343,61.1520496 76.095322,61.5921027 75.5163974,62.0712031 L72.5679917,63 L72,61.1550333 L74.7437118,59 L77.3369532,59.3086636 Z" id="Path" fill="#000000" opacity="0.1"></path>
                    <path d="M55.2787735,61.3241838 L54,62.4472974 C54,62.4472974 56.3066292,64.8427305 58.081192,64.9919364 C59.8557547,65.1411424 61,63.1702679 61,63.1702679 L59.4642626,61 L55.2787735,61.3241838 Z" id="Path" fill="#057E7D"></path>
                    <path d="M55.2787735,61.3241838 L54,62.4472974 C54,62.4472974 56.3066292,64.8427305 58.081192,64.9919364 C59.8557547,65.1411424 61,63.1702679 61,63.1702679 L59.4642626,61 L55.2787735,61.3241838 Z" id="Path" fill="#000000" opacity="0.1"></path>
                    <circle id="Oval" fill="#000000" opacity="0.1" cx="67" cy="44" r="4"></circle>
                    <circle id="Oval" fill="#FBBEBE" cx="67" cy="44" r="4"></circle>
                    <path d="M74,79.1632007 C73.0352975,79.2692633 72.0850948,79.4737351 71.165467,79.7731569 C69.581929,80.279379 57.1727496,79.7814556 57,79.7731569 C57,79.4854678 57,79.3153439 57,79.3153439 L57.6075028,77.8658335 L64.8054027,77 L68.248878,77 C68.248878,77 73.4313659,78.17012 73.9668897,78.6749591 C73.9884834,78.9792456 74,79.1632007 74,79.1632007 Z" id="Path" fill="#000000" opacity="0.1"></path>
                    <path d="M69.991368,52.7042872 C69.8833416,52.9420281 69.4278789,54.9957659 69.3198525,55.2062955 C69.2118262,55.416825 68.6220604,58.7867308 68.5680472,58.9757778 C68.514034,59.1648248 64.6805568,58.1852177 64.6805568,58.1852177 L62.3725875,56.2875869 L60.0003863,53.9717613 C60.0003863,53.9717613 59.9303151,51.8822193 61.677715,51.2119618 L66.0162886,56.1057008 L67.9695226,51 C68.3554863,51.1077264 68.7572994,51.1503431 69.157813,51.1260313 C69.157813,51.1260313 70.0993944,52.4679785 69.991368,52.7042872 Z" id="Path" fill="#000000" opacity="0.1"></path>
                    <path d="M65.9107196,56.5061228 L61.6319218,51.471789 C61.123138,51.1396683 60.4851051,51.0915581 59.9341871,51.3437731 C58.9763103,51.7680955 57.7863488,52.1118686 57.475496,52.3233106 C57.1646432,52.5347526 56,53.8436794 56,53.8436794 L59.4686112,63.1226757 L57.941072,69.2343569 C57.941072,69.2343569 58.1745632,72.3570822 57.5795825,73.4948417 C57.2173028,74.2223169 57.0475757,75.0341059 57.0872816,75.8494715 C57.0872816,75.8494715 57.2687296,77.3583332 57.0619633,78.1508812 C56.941146,78.6807989 56.9320357,79.2309478 57.0352384,79.7647448 C57.0352384,79.7647448 69.3272875,80.294069 70.8787385,79.7647448 C71.7770426,79.4524902 72.7055515,79.2398279 73.6482825,79.1304187 C73.6482825,79.1304187 73.3669677,73.8371764 73.0856529,72.5670859 C72.8043382,71.2969954 73.3191442,66.4554047 73.3191442,66.4554047 L72.9829731,61.2686025 L75,55.9465925 C75,55.9465925 73.9070921,52.5347526 72.7677672,52.1909795 C72.7677672,52.1909795 70.6986971,51.6875462 70.2584394,51.4502133 C69.8181818,51.2128804 68.5241338,51 68.5241338,51 L67.8447587,51.2330177 L65.9107196,56.5061228 Z" id="Path" fill="#057E7D"></path>
                    <path d="M65.3278428,60.5779378 L69.4022878,60.5787194 C71.0255649,60.5801573 72.3414131,61.8960062 72.3428502,63.5192832 L72.3446474,72.915029 C72.3460841,74.538746 71.0300531,75.8552806 69.4063359,75.8555911 C69.4059605,75.8555912 69.4055851,75.8555912 69.4052098,75.854465 L65.3307648,75.8536835 C63.7074877,75.8522456 62.3916395,74.5363967 62.3902025,72.9131196 L62.3884053,63.5173738 C62.3869686,61.8936569 63.7029996,60.5771223 65.3267167,60.5768117 C65.3270922,60.5768116 65.3274676,60.5768116 65.3278428,60.5779378 Z" id="Rectangle" fill="#000000" opacity="0.1" transform="translate(67.366526, 68.216201) rotate(3.890000) translate(-67.366526, -68.216201) "></path>
                    <path d="M65.6411052,60.2650927 L69.7155502,60.2658743 C71.3388272,60.2673122 72.6546754,61.5831611 72.6561125,63.2064382 L72.6579097,72.602184 C72.6593464,74.2259009 71.3433154,75.5424355 69.7195983,75.5427461 C69.7192228,75.5427461 69.7188474,75.5427461 69.7184722,75.54162 L65.6440271,75.5408384 C64.0207501,75.5394005 62.7049019,74.2235516 62.7034648,72.6002745 L62.7016676,63.2045287 C62.7002309,61.5808118 64.0162619,60.2642772 65.639979,60.2639666 C65.6403545,60.2639665 65.6407299,60.2639665 65.6411052,60.2650927 Z" id="Rectangle" fill="#3F3D56" transform="translate(67.679789, 67.903356) rotate(3.890000) translate(-67.679789, -67.903356) "></path>
                    <polygon id="Rectangle" fill="#FFFFFF" transform="translate(67.674306, 67.984022) rotate(3.890000) translate(-67.674306, -67.984022) " points="63.3368108 61.4113988 72.0092869 61.4130623 72.0118011 74.5566457 63.3393249 74.5549822"></polygon>
                    <polygon id="Rectangle" fill="#000000" opacity="0.1" transform="translate(68.066424, 65.809069) rotate(4.004173) translate(-68.066424, -65.809069) " points="64.5236371 64.8182608 71.608821 64.8196595 71.6092109 66.7998774 64.5240269 66.7984787"></polygon>
                    <polygon id="Rectangle" fill="#000000" opacity="0.1" transform="translate(70.817806, 73.396140) rotate(3.890000) translate(-70.817806, -73.396140) " points="70.2556024 72.880095 71.3798123 72.8803106 71.3800096 73.912186 70.2557998 73.9119703"></polygon>
                    <polygon id="Rectangle" fill="#000000" opacity="0.1" transform="translate(67.401611, 70.753965) rotate(3.890000) translate(-67.401611, -70.753965) " points="64.5241891 70.2374758 70.2788361 70.2385797 70.2790335 71.270455 64.5243865 71.2693511"></polygon>
                    <polygon id="Rectangle" fill="#3F3D56" transform="translate(68.331459, 61.819496) rotate(3.890000) translate(-68.331459, -61.819496) " points="65.3353095 61.025774 71.3273055 61.0269234 71.3276089 62.6132179 65.3356129 62.6120686"></polygon>
                    <polygon id="Rectangle" fill="#000000" opacity="0.1" transform="translate(68.331459, 61.819496) rotate(3.890000) translate(-68.331459, -61.819496) " points="65.3353095 61.025774 71.3273055 61.0269234 71.3276089 62.6132179 65.3356129 62.6120686"></polygon>
                    <path d="M67.3803763,79 C67.3803763,79 67.3205435,86.6230024 65,91 C65,91 67.797589,85.2316575 67.797589,85.0006999 C67.797589,84.7697422 69.34354,82.3481862 68.9295615,81.6273183 C68.515583,80.9064505 67.3803763,79 67.3803763,79 Z" id="Path" fill="#000000" opacity="0.1"></path>
                    <path d="M67.133761,42.6935858 C67.0540203,41.9626577 67.2252048,41.2258808 67.6167907,40.6146287 C67.5205462,41.8809786 68.3267853,43.0297117 69.5111956,43.3137853 C69.4110983,43.2229733 69.3747793,43.0771299 69.4198116,42.9468213 C69.7171722,43.2986215 69.9449069,43.715626 70.2814322,44.0249676 C70.6179574,44.3343091 71.1227452,44.5193075 71.5187425,44.2994324 C72.0568928,43.9961564 72.0626949,43.197024 71.9234431,42.5753082 C71.6246118,41.2512818 71.0115056,40.0272989 70.1407298,39.016364 C69.700313,38.3968899 69.0078206,38.0287544 68.2695336,38.0216186 C67.445627,37.9548979 66.5898086,38.0307169 65.8514839,38.4173938 C65.4359905,38.6544056 65.0468189,38.9386824 64.6910521,39.2650503 L62.6602965,40.9967564 C62.4649099,41.1439201 62.2976293,41.3280516 62.167113,41.5396205 C62.0799638,41.7164967 62.0276778,41.9098667 62.0133558,42.1082631 C61.9075423,43.2650366 62.4366856,44.384865 63.3797642,45 C63.3597578,44.0832253 63.8714435,43.2446186 64.6750962,42.8770678 C64.7996089,42.985918 64.8731059,43.1456643 64.8767212,43.3153017 L65.3046304,42.5176857 C65.3682755,42.3725442 65.468576,42.2482933 65.5947384,42.1583036 C65.8587366,42.0066656 66.1880091,42.1855985 66.4128428,42.3994081 C66.6376764,42.6132177 66.8567079,42.8801006 67.1584202,42.9134609 L67.1700245,41.7261353" id="Path" fill="#000000" opacity="0.1"></path>
                    <path d="M67.1301659,42.6946592 C67.0501656,41.9630975 67.2214299,41.2256228 67.6134084,40.6137857 C67.4828024,41.827123 68.3578631,43.0798938 69.5100991,43.3134612 C69.4098359,43.2233634 69.3734262,43.0777962 69.4186748,42.9479433 C69.7161665,43.2998111 69.9440015,43.7153792 70.280675,44.0262968 C70.6173485,44.3372145 71.1223587,44.5207318 71.5185305,44.2992977 C72.0569178,43.9959634 72.0627225,43.1966775 71.9234094,42.5763588 C71.6244464,41.252078 71.0110702,40.0278598 70.1399107,39.0167306 C69.8696075,38.6723645 69.5289537,38.3956267 69.1429509,38.2068279 C68.8635223,38.0988091 68.5698459,38.0364 68.2722436,38.021794 C67.4479741,37.9550604 66.5917786,38.0293774 65.8531286,38.4161286 C65.437729,38.6542456 65.0484422,38.9390446 64.6921856,39.2654647 L62.6605353,40.9975037 C62.4647423,41.1443119 62.2973251,41.3285481 62.1671345,41.5404721 C62.0797617,41.7173059 62.0274418,41.9107531 62.0133096,42.1092239 C61.907673,43.265765 62.4370621,44.3852482 63.38032,45 C63.3610977,44.0832808 63.8727512,43.244935 64.6762226,42.8766598 C64.800334,42.9859013 64.8737579,43.1454491 64.8779365,43.3149779 L65.304583,42.5202419 C65.3678767,42.3748213 65.4683001,42.250449 65.5948188,42.1607908 C65.8589333,42.0091236 66.1883509,42.1880909 66.4132836,42.4019416 C66.6382163,42.6157923 66.8573443,42.8812098 67.1591895,42.9160932 L67.1707989,41.7270227" id="Path" fill="#3F3D56"></path>
                    <path d="M69.3312824,69.2289021 C68.974558,69.0408294 63.0754191,70 63.0754191,70 C63.0754191,70 62.1037962,69.7106575 59.7552449,69.3084713 C57.4066936,68.9062852 57.256786,66.5134223 57.256786,66.5134223 L57,61.7233564 L57.7925667,61 L61.1876946,63.3147404 C61.1876946,63.3147404 61.2404399,64.485131 61.1876946,64.6963511 C61.1543818,64.8410223 61.0655477,65.0131812 61.0738759,65.1303649 C61.0791727,65.1956118 61.1258561,65.2490158 61.1876946,65.260569 C61.418108,65.321331 64.557838,65.8508278 64.557838,65.8508278 C64.557838,65.8508278 71.8352934,65.331458 73.6494521,67.8863527 C73.7931968,68.0738859 73.9019521,68.2878337 73.9700876,68.5171194 C74.4198102,70.2633017 69.654694,69.3952741 69.3312824,69.2289021 Z" id="Path" fill="#FBBEBE"></path>
                    <path d="M74,68.7546111 C73.72257,68.8973536 73.5505634,69 73.5505634,69 C73.5505634,69 70.94827,68.9117883 69.486214,68.2991179 C68.0241579,67.6864475 66.2472187,67.7955092 66.2472187,67.7955092 C66.2472187,67.7955092 60.154856,66.5829992 61.0995052,65 C61.1047986,65.0723338 61.1514522,65.1315383 61.2132515,65.1443464 C61.4435184,65.2117081 64.5812516,65.7987169 64.5812516,65.7987169 C64.5812516,65.7987169 71.854079,65.222935 73.667084,68.0553328 C73.8151783,68.2620851 73.9281335,68.4993435 74,68.7546111 Z" id="Path" fill="#000000" opacity="0.1"></path>
                    <path d="M76.5423276,60 C76.5423276,60 76.9005976,62.5300452 76.9255932,62.7356721 C76.9505888,62.9412991 77.0797326,65.4185481 76.9255932,65.7005905 C76.7714537,65.9826329 76.5423276,66.4411254 76.5423276,66.4411254 C76.5423276,66.4411254 76.797838,66.9774227 75.7757964,67.1830497 C74.7537547,67.3886766 73.5539668,68 73.5539668,68 C73.5539668,68 70.9474829,67.9235846 69.4921845,67.3872873 C68.0368861,66.8509899 66.2483133,66.952414 66.2483133,66.952414 C66.2483133,66.952414 58.5066258,65.6227857 61.828261,64 C65.1498963,62.3772143 67.4994811,64.5751997 67.4994811,64.5751997 L71.2029933,64.3459535 C71.2029933,64.3459535 72.5833049,63.5012157 72.9665706,63.5790205 C73.2372092,63.6134958 73.5120422,63.5691136 73.7580973,63.4511983 L73.7844816,60.766933 L76.5423276,60 Z" id="Path" fill="#FBBEBE"></path>
                    <path d="M57.2507553,54.0409776 L56.4441088,54 L54,63.2199619 C54,63.2199619 56.6389728,62.5731011 57.776435,63.2199619 C58.9138973,63.8668228 61,64 61,64 L60.2220544,56.6503732 L57.2507553,54.0409776 Z" id="Path" fill="#000000" opacity="0.1"></path>
                    <path d="M57.2507553,54.0409776 L56.4441088,54 L54,63.2199619 C54,63.2199619 56.6389728,62.5731011 57.776435,63.2199619 C58.9138973,63.8668228 61,64 61,64 L60.2220544,56.6503732 L57.2507553,54.0409776 Z" id="Path" fill="#057E7D"></path>
                    <path d="M74.7894364,56 L75.9042793,56.2243393 C75.9042793,56.2243393 78.7512999,59.8732308 78.9742685,60.0772984 C79.1972371,60.2813661 77.9125133,61.0233073 77.3831525,61.0233073 C76.8537918,61.0233073 74.2585588,61.2935956 73.5047126,61.9179615 C72.7508665,62.5423274 73.0648426,59.4002263 73.0648426,59.3285999 C73.0648426,59.2569735 74.000704,57.2744092 74.000704,57.2744092 L74.7894364,56 Z" id="Path" fill="#000000" opacity="0.1"></path>
                    <path d="M74.7894364,56 L75.9042793,56.2229878 C75.9042793,56.2229878 78.7512999,59.8786365 78.9742685,60.0772984 C79.1972371,60.2759603 77.9125133,61.0233073 77.3831525,61.0233073 C76.8537918,61.0233073 74.2585588,61.2935956 73.5047126,61.9179615 C72.7508665,62.5423274 73.0648426,59.4002263 73.0648426,59.3285999 C73.0648426,59.2569735 74.0067711,57.2676519 74.0067711,57.2676519 L74.7894364,56 Z" id="Path" fill="#057E7D"></path>
                    <g id="Group" opacity="0.1" transform="translate(62.000000, 40.000000)" fill="#000000">
                        <path d="M5.56285714,0.4484375 C5.55668028,0.328625126 5.55906849,0.208468086 5.57,0.0890625 C5.35248604,0.446038871 5.20285113,0.847226227 5.13,1.26875 L5.13,1.63125 C5.13,1.63125 5.13,1.6234375 5.13,1.61875 L5.13,1.7046875 C5.13,1.9578125 5.13,2.2125 5.12285714,2.465625 L5.10285714,2.465625 L5.10285714,2.5828125 C5.10285714,2.5421875 5.10285714,2.503125 5.09571429,2.4625 C4.81,2.4125 4.60571429,2.15 4.39285714,1.940625 C4.18,1.73125 3.84714286,1.53125 3.58714286,1.6921875 C3.46259512,1.7845549 3.36373624,1.91268528 3.30142857,2.0625 L2.87714286,2.88125 C2.87335956,2.70695406 2.80097887,2.54292588 2.67857143,2.43125 C1.88708993,2.80997968 1.38315369,3.67409207 1.40285714,4.61875 C0.611011151,4.07608544 0.106425323,3.14967663 0.0471428571,2.1296875 C-0.00342213071,3.27283202 0.515196281,4.35650336 1.40285714,4.9625 C1.3839343,4.01808086 1.88761701,3.15440321 2.67857143,2.775 C2.80074931,2.88754238 2.87302935,3.05191122 2.87714286,3.2265625 L3.29714286,2.4078125 C3.35945053,2.25799778 3.45830941,2.1298674 3.58285714,2.0375 C3.84285714,1.88125 4.16714286,2.065625 4.38857143,2.2859375 C4.61,2.50625 4.82571429,2.7796875 5.12285714,2.815625 C5.12285714,2.415625 5.12666667,2.01666667 5.13428571,1.61875 C5.20437029,1.2012935 5.3500854,0.803385012 5.56285714,0.4484375 L5.56285714,0.4484375 Z" id="Path"></path>
                        <path d="M5.10254776,2.021875 C5.1129957,1.915625 5.1297124,1.809375 5.15060829,1.709375 L5.17359376,1.278125 C5.11077216,1.52307935 5.08692444,1.77273083 5.10254776,2.021875 Z" id="Path"></path>
                        <path d="M9.41428571,3.8859375 C9.02428571,4.1140625 8.52714286,3.9234375 8.19571429,3.6046875 C7.86428571,3.2859375 7.64,2.85625 7.34714286,2.49375 C7.30279265,2.62802183 7.33856157,2.778301 7.43714286,2.871875 C7.40857143,2.871875 7.38142857,2.85625 7.35428571,2.8484375 C7.64,3.2078125 7.86714286,3.6296875 8.19571429,3.9421875 C8.52428571,4.2546875 9.02428571,4.4515625 9.41428571,4.2234375 C9.80428571,3.9953125 9.91571429,3.4609375 9.88142857,2.940625 C9.85571429,3.35 9.72142857,3.7046875 9.41428571,3.8859375 Z" id="Path"></path>
                        <path d="M7.34571429,2.8453125 C6.36738229,2.55369485 5.65768034,1.62794249 5.56571429,0.5234375 C5.48428571,1.75 6.33,2.9796875 7.43714286,3.215625 C7.34067986,3.12398921 7.30453734,2.97760143 7.34571429,2.8453125 Z" id="Path"></path>
                    </g>
                    <path d="M137.616985,66.4720872 C137.616985,66.4720872 137.050935,66.3934271 137.050935,65.5739315 C137.050935,64.7544359 136.645792,63.2198482 136.645792,63.2198482 L136.645792,63.2198482 C136.645792,63.2198482 136.295244,60.5496942 135.811084,60.1263597 C135.326925,59.7030251 134.704844,57.2173649 134.704844,57.2173649 C134.704844,57.2173649 134.59853,55.8687012 134.381592,55.5783738 C134.164654,55.2880463 133.871573,54.5772448 133.439133,53.5632441 C133.006694,52.5492435 131.207977,51.854174 131.207977,51.854174 C131.207977,51.854174 127.948161,49.9720515 127.024379,49.3585024 L127.024379,49.3585024 C126.939894,49.3076546 126.860933,49.2482225 126.788764,49.1811596 C126.627856,48.9723527 125.926759,48.9680621 125.926759,48.9680621 C125.853488,48.5061126 125.783091,47.9769444 125.760105,47.4978327 C125.760105,47.4463461 125.760105,47.3948595 125.760105,47.3433728 C126.790187,46.7372329 127.566065,45.7815433 127.945287,44.6517661 C127.962528,44.5974191 127.976894,44.5416419 127.992698,44.4858647 C128.120208,44.44669 128.224788,44.3550759 128.280033,44.2341523 C128.361923,44.0496585 128.364797,43.8351308 128.468237,43.6620786 C128.588918,43.4589924 128.818786,43.3502984 128.999807,43.1986989 C129.45667,42.8111189 129.574477,42.1603851 129.552927,41.569719 C129.53856,41.0891771 129.46098,40.6057748 129.49115,40.1295234 C129.49115,40.0894783 129.49115,40.0494331 129.49977,40.009388 C129.50839,39.9393089 129.518447,39.8663695 129.531377,39.7977207 C129.601774,39.443035 129.755498,39.1083719 129.841699,38.7565466 C129.927899,38.4047212 129.936519,38.0085602 129.735385,37.7053611 C129.440866,37.2605738 128.827406,37.1719024 128.288653,37.1332874 C127.678066,37.0818008 127.139313,37.1475893 126.741354,36.6427342 C126.558809,36.3790529 126.35303,36.132085 126.126457,35.9047592 C126.046003,35.8303896 125.264452,35.3541382 125.264452,35.3241044 C124.499756,34.9701705 123.632243,34.9036229 122.822104,35.1367502 C122.415525,35.2540253 122.034806,35.44567 121.62248,35.5414924 C120.737488,35.7502993 119.717449,35.5243302 118.964631,36.0291852 C118.545122,36.315222 118.293704,36.7714508 118.058089,37.2133778 C117.866532,37.577598 117.672102,37.942295 117.474799,38.3074687 C117.155857,38.9067159 116.834042,39.5159744 116.700431,40.1795799 C116.672477,40.3245269 116.654715,40.4712385 116.647274,40.6186465 L116.647274,40.6186465 C116.647274,40.6715633 116.647274,40.7244801 116.647274,40.7773969 C116.647274,40.8002799 116.647274,40.8231628 116.647274,40.8460458 C116.647274,40.894672 116.647274,40.9432983 116.655894,40.9890642 C116.664514,41.0348301 116.655894,41.0477017 116.665951,41.0777356 C116.676007,41.1077695 116.678881,41.1749881 116.687501,41.220754 C116.696121,41.2665199 116.713361,41.3480404 116.730601,41.4095384 C116.730601,41.4367119 116.747841,41.4624552 116.756461,41.4896287 C116.765081,41.5168022 116.788068,41.585451 116.806745,41.6326471 C116.825422,41.6798432 116.826858,41.6827035 116.838352,41.7070167 C116.859902,41.7570731 116.885762,41.8056994 116.911622,41.8500351 C116.923115,41.8686275 116.931736,41.8872199 116.943229,41.9058123 C116.982625,41.9727589 117.026797,42.036805 117.075403,42.097457 C117.381415,42.4793162 117.835404,42.7224475 118.17015,43.0799936 C118.17015,43.0942954 118.17015,43.1085972 118.17015,43.1228991 C118.17015,43.1615141 118.17015,43.200129 118.17015,43.2401742 C118.211744,44.8593194 119.055115,46.3531799 120.422856,47.2303883 C120.422856,47.2847353 120.43004,47.3405125 120.432913,47.3962896 C120.460928,47.8203405 120.455645,48.2459216 120.41711,48.6691536 C120.298354,48.530555 120.123067,48.4527679 119.940133,48.4574864 C119.878403,48.4544337 119.816541,48.4597259 119.756239,48.4732184 L119.743309,48.4632071 L119.743309,48.4632071 L119.743309,48.4760788 C119.42724,48.5533087 119.037901,48.8808209 118.665802,49.8118708 C118.665802,49.8118708 117.533702,51.0818745 116.671697,51.0289576 C115.809692,50.9760408 113.627383,52.3518781 113.627383,52.3518781 C113.627383,52.3518781 111.49823,53.7262851 111.041367,55.1278657 C110.78597,55.9228239 110.479321,56.7005522 110.123332,57.4562057 L107.48416,62.8508607 L107.48416,62.8508607 L107,67.1414134 C107,67.1414134 107.268658,69.0449887 107.215501,69.3367463 C107.162344,69.6285039 108.320304,72.245741 108.320304,72.245741 C108.320304,72.245741 112.146171,78.936143 113.709273,79.2793872 L113.821334,79.2021572 C113.888513,79.2358995 113.959379,79.2618141 114.032525,79.2793872 L114.35434,79.0548483 C114.374262,79.3062517 114.365587,79.559091 114.32848,79.8085554 C114.114416,80.4707307 114.410371,84.781306 114.786779,85.6265449 C115.163188,86.4717838 115.029578,97.5557118 115.029578,97.5557118 L114.976421,98.5325276 C114.976421,98.5325276 114.976421,98.5639917 114.989351,98.6183387 L114.976421,98.8500285 L115.015211,98.8700511 C115.055459,99.1808201 115.042342,99.496139 114.976421,99.8025312 C114.841373,100.231587 114.786779,101.442953 114.786779,101.442953 C114.786779,101.442953 113.709273,108.290675 114.220729,109.666512 C114.732186,111.042349 115.164625,112.549763 115.164625,112.549763 C115.164625,112.549763 115.703378,114.265985 115.190485,114.552021 C114.677592,114.838058 113.225114,115.345774 113.521069,116.059436 C113.794037,116.720181 114.82988,118.490749 114.983604,118.749612 L114.970674,118.892631 L114.759483,121.170914 C114.793681,121.471729 114.875633,121.765232 115.002281,122.040466 C115.233585,122.53817 115.681828,123.051606 116.538087,122.995829 C116.681754,122.985818 116.846972,122.970086 117.009316,122.948633 C118.573855,122.738396 120.499,122.043327 120.499,122.043327 C120.399183,121.980393 120.307922,121.904926 120.227468,121.818788 L120.227468,121.818788 C120.072056,121.668928 119.985311,121.462093 119.987544,121.246714 C120.01053,120.83053 119.230416,118.855446 119.035028,118.367753 L118.990491,118.259059 C118.990491,118.259059 120.769095,116.40697 120.47314,114.767979 C120.47314,114.767979 118.504895,113.623832 119.152835,112.994551 C119.800776,112.36527 120.958736,110.563238 120.958736,110.563238 C120.958736,110.563238 121.011893,103.819919 120.958736,102.814499 C120.903325,102.115195 120.93663,101.411726 121.057867,100.72071 C121.079417,100.617736 121.105277,100.516193 121.132574,100.41465 C122.029446,100.549384 122.935117,100.617744 123.842143,100.619166 C124.173536,100.619166 124.50876,100.612492 124.847816,100.599144 C124.847816,100.694489 124.852126,100.797463 124.860746,100.908064 C124.935453,102.578519 125.07481,105.508966 125.188308,106.597337 C125.349215,108.156237 126.238517,112.362409 126.238517,112.362409 C126.238517,112.362409 124.541804,113.445059 126.534472,116.118073 C126.534472,116.118073 126.534472,117.084878 126.402298,117.226466 L126.402298,117.226466 C126.261083,117.6851 126.147386,118.151687 126.061806,118.623756 C125.978479,119.125751 125.943999,119.636326 126.079046,119.89948 C126.402298,120.531622 128.34181,120.480135 128.34181,120.480135 L128.34181,120.480135 C128.357401,120.476521 128.373253,120.47413 128.38922,120.472984 C129.128753,120.395169 129.868639,120.616802 130.442229,121.087963 C131.179243,121.677199 133.975013,121.419766 135.490706,121.230982 C136.084052,121.155182 136.480575,121.087963 136.480575,121.087963 C136.499642,121.021073 136.506455,120.951311 136.500688,120.882017 L136.500688,120.882017 C136.484885,120.511599 136.19324,119.699255 134.216375,118.974151 C134.216375,118.974151 132.357317,117.729891 132.383177,116.645811 L132.341514,116.645811 L132.127449,116.645811 C132.262496,116.641521 132.357317,116.641521 132.357317,116.641521 C132.357317,116.641521 131.628923,113.99711 131.926314,113.781152 C132.223706,113.565194 131.332968,110.634747 131.332968,110.634747 C131.332968,110.634747 130.822948,105.714913 130.794214,105.371669 C130.796114,105.075854 130.841615,104.781918 130.929262,104.499256 L130.794214,101.800499 C130.794214,101.800499 130.768354,100.903773 130.794214,100.612016 C130.791344,100.358757 130.771184,100.105985 130.733874,99.855448 C130.720944,99.7553351 130.708014,99.6509317 130.693647,99.5479584 C131.390435,99.3720458 131.842987,99.2104349 131.842987,99.2104349 L131.762533,89.8212753 C132.354444,88.6771279 132.463631,86.1657244 132.460758,84.3865752 C132.460758,83.2424278 132.409037,82.3957587 132.409037,82.3957587 L133.217885,81.0814194 C133.217885,81.0814194 133.404653,79.5082167 133.108698,79.1635423 C132.977961,79.0076522 133.036864,78.8460414 133.144615,78.7130342 C133.201313,78.666778 133.261334,78.6247136 133.324199,78.587178 C133.317125,78.5772126 133.310879,78.5666898 133.305523,78.555714 C133.362,78.508742 133.42204,78.4661865 133.485107,78.4284276 C133.485107,78.4284276 133.197772,77.9850704 133.454937,77.7977163 C133.696298,77.9607573 133.9118,78.0909041 134.075581,78.1838661 C134.064087,78.2882695 134.052594,78.3483372 134.052594,78.3483372 L134.121554,78.2053188 C134.279588,78.2939902 134.375846,78.3483372 134.375846,78.3483372 C134.375846,78.3483372 135.642993,75.8355035 135.615696,75.466516 C135.588399,75.0975284 136.477701,73.5357672 136.477701,73.5357672 C136.477701,73.5357672 136.585452,72.7148415 137.071048,72.3715973 C137.556644,72.028353 137.447457,69.5412626 137.447457,69.5412626 C137.447457,69.5412626 137.582505,68.2455157 137.905757,67.7177777 C138.229008,67.1900397 137.616985,66.4720872 137.616985,66.4720872 Z M113.371654,65.3694151 L113.396078,65.9686624 C113.25241,65.7384027 113.14897,65.5739315 113.14897,65.5739315 L113.371654,65.3694151 Z" id="Shape" fill="url(#linearGradient-2)"></path>
                    <path d="M134,76.704955 L133.721482,78 C133.721482,78 131.490762,76.754223 131.089749,75.1776464 C130.688735,73.6010698 131.761543,73 131.761543,73 L133.8414,73.9600225 L134,76.704955 Z" id="Path" fill="#FFFFFF"></path>
                    <path d="M134,76.704955 L133.721482,78 C133.721482,78 131.490762,76.754223 131.089749,75.1776464 C130.688735,73.6010698 131.761543,73 131.761543,73 L133.8414,73.9600225 L134,76.704955 Z" id="Path" fill="#000000" opacity="0.1"></path>
                    <path d="M121,122.07283 C121,122.07283 118.547893,122.892737 116.862069,122.995923 C115.96705,123.050304 115.496552,122.551109 115.254406,122.070041 C115.12283,121.804721 115.037019,121.522523 115,121.2334 L115.222222,119.023275 L115.338697,117.847796 L118.920307,117 L119.427586,118.412528 L119.475096,118.518502 C119.677395,118.991204 120.495785,120.907111 120.471264,121.307304 C120.467274,121.51647 120.557539,121.718009 120.721073,121.865064 C120.803998,121.944792 120.897725,122.014606 121,122.07283 L121,122.07283 Z" id="Path" fill="#FFFFFF"></path>
                    <path d="M135.997992,120.405071 C136.003737,120.477618 135.997129,120.550684 135.978493,120.620683 C135.978493,120.620683 131.212425,121.474147 130.237484,120.620683 C129.683336,120.116566 128.957323,119.886654 128.237462,119.987323 C128.237462,119.987323 126.393431,120.041226 126.085628,119.388401 C125.957493,119.114394 125.99092,118.582851 126.070308,118.060291 C126.151395,117.568777 126.259289,117.082812 126.393431,116.604911 L126.467248,116.542024 L126.905971,116.163206 L132.042517,116 L132.081515,116 C132.056445,117.128968 133.823874,118.424137 133.823874,118.424137 C135.70551,119.172789 135.982671,120.018766 135.997992,120.405071 Z" id="Path" fill="#FFFFFF"></path>
                    <path d="M135.998479,120.393178 C136.003407,120.467263 135.996336,120.54172 135.977591,120.6131 C135.977591,120.6131 131.212359,121.483625 130.238982,120.6131 C129.684588,120.098488 128.958114,119.863954 128.237919,119.96708 C128.237919,119.96708 126.392819,120.02206 126.08507,119.356185 C125.95835,119.076701 125.990378,118.534532 126.069753,118 C126.779942,118.077889 127.900927,118.271848 128.340966,118.736128 C129.006595,119.438656 130.134543,120.141184 130.825237,120.197692 C131.371108,120.234346 134.617091,120.347361 135.998479,120.393178 Z" id="Path" fill="#000000" opacity="0.1"></path>
                    <path d="M120,122.187059 C120,122.187059 117.866098,122.905952 116.39904,122.996425 C115.620165,123.044107 115.210723,122.606413 115,122.184614 C115.544145,122.352111 116.297679,122.526944 116.693785,122.366782 C117.163244,122.174833 118.827687,122.052572 119.76127,122 C119.831662,122.071578 119.911912,122.134458 120,122.187059 L120,122.187059 Z" id="Path" fill="#000000" opacity="0.1"></path>
                    <path d="M123.84593,54.8266814 C121.937627,54.0721259 119.482854,51.5790039 120.095825,50.4140761 C120.231294,50.1198633 120.312165,49.8027151 120.334362,49.4786038 C120.373811,49.0384651 120.379611,48.5958745 120.351711,48.1548222 C120.308672,47.4320042 120.223224,46.712448 120.095825,46 C120.095825,46 126.05349,46.1367908 125.706526,47.0296079 C125.605328,47.2928933 125.58798,47.7473917 125.616894,48.2548413 C125.645807,48.7622909 125.716646,49.3403422 125.791821,49.8271996 C125.894465,50.493503 126,51.0038944 126,51.0038944 C126,51.0038944 125.634242,51.5231109 125.421726,51.5510574 C125.209211,51.5790039 126.584057,55.9077697 123.84593,54.8266814 Z" id="Path" fill="#CF6F80"></path>
                    <path d="M119,118.460765 L118.955315,118.506372 C117.179459,116.507713 115.031712,119 115.031712,119 L115,118.946345 L115.10955,117.81556 L118.478198,117 L118.955315,118.35882 L119,118.460765 Z" id="Path" fill="#000000" opacity="0.1"></path>
                    <path d="M132,116.150274 C132,116.150274 130.677488,116.125458 129.972148,116.710009 C129.266808,117.29456 125.857665,116.835467 126.004611,116.710009 C126.04747,116.646341 126.073655,116.574059 126.081023,116.499074 L126.543902,116.150274 L131.963264,116 C131.983836,116.096506 132,116.150274 132,116.150274 Z" id="Path" fill="#000000" opacity="0.1"></path>
                    <path d="M121.984558,99.7547157 C121.884284,99.985925 121.807992,100.225524 121.756721,100.470244 C121.631721,101.140558 121.596978,101.822754 121.653295,102.501063 C121.708755,103.477418 121.653295,110.020391 121.653295,110.020391 C121.653295,110.020391 120.467643,111.765276 119.805116,112.38038 C119.14259,112.995484 121.154152,114.100159 121.154152,114.100159 C121.453938,115.691618 119.637236,117.488111 119.637236,117.488111 C117.790557,115.40987 115.557153,118 115.557153,118 C115.557153,118 114.343021,116.04729 114.040238,115.349894 C113.737454,114.652497 115.22589,114.171294 115.749016,113.886756 C116.272142,113.602218 115.722036,111.934046 115.722036,111.934046 C115.722036,111.934046 115.281351,110.470909 114.756726,109.136092 C114.232101,107.801275 115.335312,101.157877 115.335312,101.157877 C115.335312,101.157877 115.392271,99.9764878 115.528674,99.5650239 C115.596742,99.2680164 115.610425,98.9624454 115.569145,98.6611982 C115.560151,98.5593783 115.549659,98.4756908 115.542164,98.4171095 C115.53467,98.3585282 115.528674,98.3334219 115.528674,98.3334219 L115.549659,98.2999469 L116.299123,97 C116.299123,97 122.344301,98.9359724 121.984558,99.7547157 Z" id="Path" fill="#057E7D"></path>
                    <path d="M132,116.1237 C132,116.1237 130.780015,116.096333 130.129357,116.699833 C129.478699,117.303332 126.33385,116.832343 126.469404,116.699833 C126.604957,116.567322 126.592758,115.587896 126.592758,115.587896 C124.74787,112.910319 126.32165,111.824308 126.32165,111.824308 C126.32165,111.824308 125.498838,107.611337 125.349729,106.048576 C125.245352,104.958245 125.116576,102.015646 125.047444,100.349182 C125.017622,99.6290157 125,99.1321011 125,99.1321011 L126.493803,98.8166683 L126.687645,98.776339 L130.323199,98 C130.323199,98 130.423509,98.7201661 130.491286,99.3092619 C130.525566,99.5606987 130.544132,99.8142722 130.546863,100.068317 C130.523819,100.356383 130.546863,101.259472 130.546863,101.259472 L130.671572,103.961535 C130.59111,104.245184 130.549118,104.539573 130.546863,104.835816 C130.572618,105.181496 131.045701,110.108873 131.045701,110.108873 C131.045701,110.108873 131.868513,113.050031 131.587916,113.26176 C131.30732,113.473489 132,116.1237 132,116.1237 Z" id="Path" fill="#057E7D"></path>
                    <path d="M125.984441,47.0375928 C125.876502,47.3029201 125.857998,47.7609431 125.888838,48.2723282 C124.151933,49.2777595 121.969582,49.2385905 120.272931,48.1715334 C120.227026,47.4431097 120.135886,46.7179733 120,46 C120,46 126.354517,46.1378516 125.984441,47.0375928 Z" id="Path" fill="#000000" opacity="0.1"></path>
                    <path d="M127.997078,43.970766 C128.030163,46.715242 125.819062,48.9667436 123.058445,48.9996356 C120.297829,49.0325276 118.033085,46.8343545 118,44.0898785 C118,44.0492059 118,44.0114385 118,43.970766 C118,41.2254877 120.238576,39 123,39 C125.761424,39 128,41.2254877 128,43.970766 L127.997078,43.970766 Z" id="Path" fill="#CF6F80"></path>
                    <path d="M123.84593,53.8429157 C121.937627,53.159633 119.482854,50.9020032 120.095825,49.8471107 C120.231294,49.5806882 120.312165,49.2934968 120.334362,49 L122.946714,50.9792554 L124.56299,52.2006398 L125.791821,49.3196644 C125.894465,49.923031 126,50.3852124 126,50.3852124 C126,50.3852124 125.634242,50.8553855 125.421726,50.8806922 C125.209211,50.905999 126.584057,54.8218879 123.84593,53.8429157 Z" id="Path" fill="#000000" opacity="0.1"></path>
                    <polygon id="Path" fill="#057E7D" points="131 63.7405754 128.888034 99.8164188 126.13366 100 119 79.0817033 120.170049 54.2470073 120.417775 49 123.589223 51.6484081 125.153954 52.9534001 126.378586 49.7841337 128.655703 51.802104"></polygon>
                    <path d="M120.985713,100.172581 C120.892785,100.439945 120.822082,100.717012 120.774567,101 C118.783429,100.644017 116.849553,99.9432065 115.037506,98.9209677 L115,98.8983871 L115.012502,98.6387097 L115.012502,98.5032258 L115.707062,97 C115.707062,97 121.319102,99.2258065 120.985713,100.172581 Z" id="Path" fill="#000000" opacity="0.1"></path>
                    <path d="M127,100.762395 C126.358353,100.87947 125.711159,100.958791 125.06135,101 C125.022787,100.064546 125,99.4190833 125,99.4190833 L126.942156,99 L127,100.762395 Z" id="Path" fill="#000000" opacity="0.1"></path>
                    <path d="M131,99.4992939 C129.986458,99.8044307 128.419815,100.147503 127.019957,99.9330829 L127,98.8890202 L130.823236,98 C130.823236,98 130.924448,98.8180965 131,99.4992939 Z" id="Path" fill="#000000" opacity="0.1"></path>
                    <path d="M126,100.787628 C120.309507,101.790728 115.097849,98.9146977 115.097849,98.9146977 L115.147814,97.9402579 C115.147814,97.9402579 115.276891,86.8932639 114.918806,86.0463611 C114.560722,85.1994583 114.281749,80.9104904 114.484386,80.2556096 C114.687023,79.6007288 113.744622,69.7130314 113.744622,69.7130314 L113.59195,65.7006325 L108,63.3548121 L110.498265,57.9767645 C110.835623,57.2229068 111.125832,56.4474973 111.367106,55.6553051 C111.801527,54.2581305 113.818182,52.8867499 113.818182,52.8867499 C113.818182,52.8867499 115.88619,51.5168022 116.703678,51.5683902 C117.521166,51.6199782 118.592644,50.3560726 118.592644,50.3560726 C119.383761,48.2739241 120.099931,49.2096729 120.099931,49.2096729 C120.099931,49.3099828 120.099931,49.2096729 120.061069,49.5177678 C119.783484,51.8034022 124.549618,59.0257203 124.617627,59.1546902 L124.617627,59.1546902 L125.07703,70.5699652 L125.536433,85.0160344 L126,100.787628 Z" id="Path" fill="#000000" opacity="0.1"></path>
                    <path d="M126,100.787628 C120.310823,101.790728 115.098982,98.9146977 115.098982,98.9146977 L115.150324,97.9402579 C115.150324,97.9402579 115.277983,86.8932639 114.919981,86.0463611 C114.56198,85.1994583 114.283071,80.9061914 114.487049,80.2455786 C114.691027,79.5849658 113.743293,69.7072994 113.743293,69.7072994 L113.589269,65.6949005 L108,63.3490801 L110.497687,57.9710325 C110.834181,57.2173211 111.124304,56.4424405 111.366327,55.6510061 C111.800648,54.2581305 113.823774,52.8853169 113.823774,52.8853169 C113.823774,52.8853169 115.891304,51.5153692 116.707216,51.5669572 C117.523127,51.6185452 118.599907,50.3560726 118.599907,50.3560726 C119.392229,48.2739241 120.265032,49.2096729 120.265032,49.2096729 C120.265032,49.3099828 120.181776,49.3529728 120.226179,49.5177678 C120.836725,51.7346182 124.561055,59.0257203 124.629047,59.1546902 L124.629047,59.1546902 L125.088344,70.5699652 L125.537928,85.0231994 L126,100.787628 Z" id="Path" fill="#FFFFFF"></path>
                    <path d="M125,59 C124.416203,58.7402231 121.323802,54.9748694 121.323802,54.9748694 L121.323802,54.1178879 C121.211279,53.8355217 120.541435,54.0077651 120,54.2054214 L120.232989,49 L120.49775,49.234364 C121.076251,51.4170549 124.936458,58.874347 125,59 Z" id="Path" fill="#000000" opacity="0.1"></path>
                    <path d="M125,59 C124.415034,58.7387006 121.323452,54.9731638 121.323452,54.9731638 L121.323452,54.1144068 C121.210958,53.8319209 120.542615,54.0042373 120,54.2019774 L120.228957,49 L120.493647,49.2330508 C121.07729,51.4138418 124.935151,58.8728814 125,59 Z" id="Path" fill="#FFFFFF"></path>
                    <path d="M115.337749,77.4170952 C115.42031,77.4170952 119.617401,77 119.617401,77 C119.617401,77 122.158773,81.7242419 121.992151,82.8719631 C121.825528,84.0196843 121.523806,85.0383047 120.501553,84.8581309 C119.4793,84.6779571 115,85 115,85 L115.337749,77.4170952 Z" id="Path" fill="#000000" opacity="0.1"></path>
                    <path d="M115.337683,77.4173913 C115.421728,77.4173913 119.618,77 119.618,77 C119.618,77 122.157375,81.7346939 121.992286,82.8704525 C121.827196,84.0062112 121.522531,85.0383319 120.501979,84.8580302 C119.481426,84.6777285 115,85 115,85 L115.337683,77.4173913 Z" id="Path" fill="#FFFFFF"></path>
                    <path d="M118.209739,75 C118.209739,75 121.91817,77.1260072 121.997657,77.7730528 C122.077144,78.4200985 120.110202,77.4895852 119.685308,77.3755819 C119.405467,77.304735 119.120853,77.2573457 118.834074,77.2338481 L116,77.3154991 L118.209739,75 Z" id="Path" fill="#CF6F80"></path>
                    <circle id="Oval" fill="#000000" opacity="0.1" cx="123.5" cy="59.5" r="1"></circle>
                    <circle id="Oval" fill="#3F3D56" cx="123.5" cy="58.5" r="1"></circle>
                    <circle id="Oval" fill="#000000" opacity="0.1" cx="124.5" cy="75.5" r="1"></circle>
                    <circle id="Oval" fill="#3F3D56" cx="124.5" cy="75.5" r="1"></circle>
                    <circle id="Oval" fill="#000000" opacity="0.1" cx="124.5" cy="67.5" r="1"></circle>
                    <circle id="Oval" fill="#3F3D56" cx="124.5" cy="67.5" r="1"></circle>
                    <path d="M132.993201,77.2165755 C132.993201,77.2165755 133.248508,77.6136086 132.993201,77.7919857 C132.737894,77.9703629 133.018177,78.4278141 133.018177,78.4278141 C133.018177,78.4278141 132.381296,78.8133389 132.661579,79.1629007 C132.941862,79.5124624 132.764257,81.0818939 132.764257,81.0818939 L131.998335,82.403899 C131.998335,82.403899 132.044124,83.2511906 132.046899,84.396257 C132.046899,86.1829058 131.945608,88.6945716 131.385042,89.839638 L131.459969,99.234649 C131.459969,99.234649 128.777855,100.251687 126.532815,99.9409651 L126.199806,84.8652163 C126.199806,84.8652163 126.685445,76.3160584 126.864437,74.6761392 C126.969201,73.8247613 127.011873,72.9664037 126.992091,72.1083709 C126.992091,72.1083709 126.915776,69.5420411 126.659081,68.3523804 C126.659081,68.3523804 126.381573,63.1909504 126.353823,61.7624944 C126.341335,61.0791948 126.376023,59.0853982 126.414874,57.1894214 C126.457888,55.116506 126.506452,53.1615496 126.506452,53.1615496 L126,49.005649 C126,49.005649 126.506452,48.9538621 126.659081,49.1638868 C126.727449,49.2300994 126.801792,49.289351 126.881088,49.3408255 L126.881088,49.3408255 C127.756626,49.9536374 130.845289,51.838106 130.845289,51.838106 C130.845289,51.838106 132.554738,52.5429836 132.964063,53.5528286 C133.373387,54.5626736 133.657833,55.2790594 133.856251,55.5667645 C134.054669,55.8544696 134.162897,57.2066837 134.162897,57.2066837 C134.162897,57.2066837 134.751214,59.6953331 135.21049,60.1168211 C135.669766,60.5383091 136,63.2139668 136,63.2139668 L131.941446,66.5225758 C131.941446,66.5225758 131.584848,72.0263749 131.508533,72.2392767 C131.432219,72.4521785 132.993201,77.2165755 132.993201,77.2165755 Z" id="Path" fill="#FFFFFF"></path>
                    <path d="M133.034257,77.2390925 C133.034257,77.2390925 133.284018,77.6357332 133.034257,77.8139341 C132.784496,77.9921349 133.057459,78.449134 133.057459,78.449134 C133.057459,78.449134 132.431009,78.8342779 132.706701,79.1834941 C132.982394,79.5327104 132.807698,81.1005908 132.807698,81.1005908 L132.057049,82.4212893 C132.057049,82.4212893 132.102088,83.2677435 132.106183,84.4116783 C132.106183,86.1965614 132.006551,88.7057448 131.455166,89.8496796 L131.530231,99.2354054 C131.530231,99.2354054 128.892043,100.251438 126.683772,99.9410235 L126.357582,84.8801741 C126.357582,84.8801741 126.833902,76.3394654 127.011328,74.7011669 C127.114488,73.8506475 127.156007,72.9930929 127.135526,72.1359364 C127.135526,72.1359364 127.060461,69.5721429 126.809335,68.383658 C126.809335,68.383658 126.536372,63.227329 126.507711,61.8002848 C126.495428,61.1176604 126.529548,59.1258344 126.567763,57.2317314 C126.610072,55.1608646 126.657841,53.2078403 126.657841,53.2078403 L126,49 C126,49 126.657841,49 126.809335,49.2141285 C126.875952,49.2810551 126.949156,49.3403114 127.027706,49.3908923 L127.027706,49.3908923 C127.887539,50.0030986 130.925618,51.8857047 130.925618,51.8857047 C130.925618,51.8857047 132.602975,52.5898857 133.01242,53.5987326 C133.421864,54.6075796 133.694827,55.3232574 133.889996,55.6106781 C134.085164,55.8980989 134.19162,57.2489766 134.19162,57.2489766 C134.19162,57.2489766 134.770302,59.7351665 135.222055,60.1562379 C135.673809,60.5773094 136,63.2503227 136,63.2503227 L132.007916,66.5556618 C132.007916,66.5556618 131.657158,72.0540215 131.580729,72.2667128 C131.504299,72.4794042 133.034257,77.2390925 133.034257,77.2390925 Z" id="Path" fill="#FFFFFF"></path>
                    <path d="M128.390698,54.9687445 L128.80155,56.0443513 L126.644961,58 C126.693023,55.9870787 126.747287,54.0887026 126.747287,54.0887026 L126,50 C126,50 126.747287,50 126.91938,50.2081369 C126.995054,50.2731909 127.078211,50.330789 127.167442,50.3799546 L127.167442,50.3799546 L129,55.1419591 L128.390698,54.9687445 Z" id="Path" fill="#000000" opacity="0.1"></path>
                    <path d="M128.38208,53.9706704 L128.791452,55.0446927 L126.644181,57 C126.690525,54.9874302 126.746138,53.0893855 126.746138,53.0893855 L126,49 C126,49 126.746138,49 126.916066,49.2081006 C126.991837,49.2727522 127.074648,49.3303078 127.163234,49.3798883 L127.163234,49.3798883 L129,54.1452514 L128.38208,53.9706704 Z" id="Path" fill="#FFFFFF"></path>
                    <path d="M127.997078,43.1502903 C127.997649,43.692591 127.914798,44.2315601 127.751607,44.7471512 C127.69603,44.7567208 127.639065,44.7425947 127.593805,44.7080198 C127.554354,43.3534724 126.908533,42.0801978 126.112215,40.9980649 C125.888254,40.6716722 125.617262,40.3823842 125.308591,40.1401849 C124.996123,39.8986274 124.607594,39.785432 124.218586,39.8226188 C123.780245,39.884326 123.393045,40.1913567 122.950321,40.2304881 C122.365868,40.2801548 121.842782,39.8632552 121.262712,39.8436895 C120.785525,39.847768 120.333302,40.0639418 120.022209,40.4366803 C119.717185,40.8072544 119.490737,41.2394174 119.357393,41.7054397 C119.127658,42.4125774 119.002548,43.1513024 118.986265,43.8967964 C118.97896,44.3182111 118.939509,44.8464846 118.559614,45 C118.617744,44.3738126 118.417875,43.7512666 118.008767,43.2842399 L118,43.2737046 C118,43.2315631 118,43.1924317 118,43.1502903 C118,40.3058635 120.238576,38 123,38 C125.761424,38 128,40.3058635 128,43.1502903 L127.997078,43.1502903 Z" id="Path" fill="#000000" opacity="0.1"></path>
                    <path d="M125.454329,35.3307071 C124.707581,34.9699723 123.858248,34.9017476 123.065965,35.138856 C122.667904,35.2598697 122.292836,35.4561481 121.889027,35.5550252 C121.026802,35.7690129 120.020872,35.5373159 119.280796,36.0553137 C118.869802,36.3504692 118.62263,36.8168148 118.392704,37.2713542 L117.817887,38.3944208 C117.504612,39.0098199 117.188462,39.6355495 117.057691,40.3129313 C116.926921,40.990313 117.005958,41.7488626 117.424137,42.2949002 C117.727353,42.6904085 118.178584,42.9398149 118.509104,43.3131865 C118.910543,43.7733823 119.106437,44.3849299 119.049432,45 C119.423063,44.8524223 119.460426,44.3314729 119.469048,43.9182552 C119.485192,43.1872752 119.608237,42.4629394 119.834057,41.7695235 C119.965201,41.3125659 120.187916,40.8888092 120.487911,40.5254432 C120.793724,40.1595634 121.238455,39.9470737 121.70796,39.9425112 C122.282777,39.963172 122.798675,40.3719624 123.367744,40.3217859 C123.798856,40.2848915 124.181109,39.9838329 124.615096,39.923326 C124.997754,39.886143 125.380126,39.9972087 125.68713,40.2347151 C125.990946,40.4714572 126.257099,40.7552397 126.476066,41.0759081 C127.260691,42.1384678 127.8973,43.3810723 127.934664,44.7136992 C128.097049,44.8347129 128.331287,44.675329 128.411762,44.4864295 C128.492236,44.29753 128.49511,44.0761634 128.59714,43.8961186 C128.714977,43.688034 128.940593,43.5758749 129.117349,43.4194425 C129.565706,43.0224584 129.677796,42.3539313 129.660551,41.7473868 C129.643307,41.1408423 129.528343,40.5254432 129.640433,39.9292292 C129.707974,39.5647122 129.8603,39.220856 129.943648,38.8592906 C130.026997,38.4977252 130.037056,38.0918864 129.840181,37.7804974 C129.552773,37.3244822 128.947778,37.232984 128.420384,37.1901865 C127.821137,37.1370585 127.28512,37.2049442 126.902867,36.6869464 C126.722987,36.4169804 126.521074,36.1632159 126.29931,35.9283969 C126.220272,35.8501807 125.454329,35.3631742 125.454329,35.3307071 Z" id="Path" fill="#512E4E"></path>
                    <path d="M110.016868,65.7044818 L108.485515,63 L108,67.1736695 C108,67.1736695 108.269894,69.0280112 108.215622,69.3123249 C108.161349,69.5966387 109.321599,72.1456583 109.321599,72.1456583 C109.321599,72.1456583 113.154382,78.6652661 114.719472,79 L120,75.3921569 L118.597726,73.6918768 C118.597726,73.6918768 118.112211,73.5112045 117.990466,73.6918768 C117.990466,73.6918768 115.385405,69.4145658 115.116978,69.1064426 C114.848552,68.7983193 114.89989,68.1778711 114.89989,68.1778711 C114.89989,68.1778711 114.49505,67.7661064 114.629996,67.3795518 C114.764943,66.9929972 113.855519,65.6540616 113.855519,65.6540616 L114.691602,64.907563 L110.016868,65.7044818 Z" id="Path" fill="#000000" opacity="0.1"></path>
                    <path d="M107.889703,63 L107.485159,63.3226277 L107,67.6729927 C107,67.6729927 107.269696,69.6058394 107.215464,69.9021898 C107.161231,70.1985401 108.322096,72.8554745 108.322096,72.8554745 C108.322096,72.8554745 112.150605,79.6510949 113.714547,80 L119,76.2394161 L117.597288,74.4671533 C117.597288,74.4671533 117.112129,74.2788321 116.990473,74.4671533 C116.990473,74.4671533 114.388787,70.0087591 114.119091,69.6875912 C113.849395,69.3664234 113.903628,68.719708 113.903628,68.719708 C113.903628,68.719708 113.499084,68.2905109 113.633932,67.8875912 C113.76878,67.4846715 112.851228,66.0890511 112.851228,66.0890511 L113.686698,65.3109489 L107.889703,63 Z" id="Path" fill="#FFFFFF"></path>
                    <path d="M132.671112,79.4855945 C132.927056,79.82492 132.765811,81.3497904 132.765811,81.3497904 L132.059406,82.6247048 C132.059406,82.6247048 132.101637,83.4485817 132.104196,84.5601172 L130.916616,84.9650736 C130.698499,85.0392588 130.460968,84.9937561 130.279052,84.842938 C130.097135,84.69212 129.993297,84.4546111 130.000336,84.2054312 L130.206371,77 L132.976965,78.154824 C132.741497,78.3335633 133,78.7720334 133,78.7720334 C133,78.7720334 132.412608,79.1462689 132.671112,79.4855945 Z" id="Path" fill="#000000" opacity="0.1"></path>
                    <path d="M132.670831,79.4849604 C132.926994,79.8226136 132.765611,81.3462389 132.765611,81.3462389 L132.061163,82.6215078 C132.061163,82.6215078 132.10343,83.4433167 132.107272,84.5539447 L130.896902,84.9655468 C130.683638,85.0383888 130.451199,84.9942547 130.273133,84.8471098 C130.095068,84.699965 129.993412,84.4680179 130.000332,84.224663 L130.206543,77 L132.978226,78.1566716 C132.741275,78.3352651 133,78.7733771 133,78.7733771 C133,78.7733771 132.412106,79.1459119 132.670831,79.4849604 Z" id="Path" fill="#FFFFFF"></path>
                    <path d="M134,75.2317826 C134,75.2317826 133.830292,76.6682107 133.405443,76.7523465 C132.980595,76.8364824 132.790106,79.0760253 132.366412,78.9980084 C131.942718,78.9199915 132.223257,76.9144992 132.238265,76.5259447 C132.253273,76.1373901 131.776473,74.5281011 132.132053,74.1624926 C132.487633,73.7968842 133.619022,74.1624926 133.619022,74.1624926 L134,75.2317826 Z" id="Path" fill="#CF6F80"></path>
                    <path d="M134.846652,64.9956286 L135.76728,63 C135.76728,63 136.135265,64.5209541 136.135265,65.33346 C136.135265,66.145966 136.648054,66.2257911 136.648054,66.2257911 C136.648054,66.2257911 137.209995,66.9385156 136.913747,67.4588045 C136.617499,67.9790934 136.499265,69.2676993 136.499265,69.2676993 C136.499265,69.2676993 136.596243,71.7323007 136.156521,72.072983 C135.716798,72.4136653 135.618492,73.2275967 135.618492,73.2275967 C135.618492,73.2275967 134.812112,74.7742089 134.837353,75.1419747 C134.862594,75.5097406 133.71347,78 133.71347,78 C133.71347,78 134.275411,74.9053502 131.00074,73.568279 C131.00074,73.568279 130.975499,72.5191485 131.219937,72.2312078 C131.464375,71.9432671 131.845645,71.8035731 131.606521,70.3553169 C131.367396,68.9070607 131.53744,67.1608857 131.53744,66.8116507 C131.53744,66.4624157 132.270754,64.285755 132.270754,64.285755 L134.846652,64.9956286 Z" id="Path" fill="#000000" opacity="0.1"></path>
                    <path d="M134.960389,63 L135.766167,63.2797725 C135.766167,63.2797725 136.134484,64.7723585 136.134484,65.56971 C136.134484,66.3670615 136.647736,66.4453977 136.647736,66.4453977 C136.647736,66.4453977 137.210185,67.1448289 136.913669,67.6554136 C136.617153,68.1659983 136.497483,69.4305698 136.497483,69.4305698 C136.497483,69.4305698 136.595879,71.8492026 136.155759,72.1835307 C135.715639,72.5178588 135.623892,73.3166092 135.623892,73.3166092 C135.623892,73.3166092 134.816785,74.8343747 134.842048,75.1952812 C134.867312,75.5561876 133.71582,78 133.71582,78 C133.71582,78 134.27827,74.96307 131.000641,73.6509372 C131.000641,73.6509372 130.976707,72.6213746 131.221366,72.3388044 C131.466024,72.0562343 131.847639,71.9191458 131.608299,70.4979017 C131.368959,69.0766577 131.539156,67.3630514 131.539156,67.0203301 C131.539156,66.6776089 132.273132,64.5415462 132.273132,64.5415462 L134.960389,63 Z" id="Path" fill="#FFFFFF"></path>
                    <path d="M117,114.794063 C117,114.794063 118.127661,113.318311 118.867761,114.39048 C119.607862,115.462649 117,114.794063 117,114.794063 Z" id="Path" fill="#000000" opacity="0.1"></path>
                    <path d="M127,112.00602 C127,112.00602 127.998648,111.883377 128.837279,112.745222 C129.67591,113.607066 127,112.00602 127,112.00602 Z" id="Path" fill="#000000" opacity="0.1"></path>
                    <g id="Group" opacity="0.1" transform="translate(117.000000, 38.000000)" fill="#000000">
                        <path d="M12.0771429,4.99382979 C11.9014286,5.15319149 11.6757143,5.26489362 11.5585714,5.47489362 C11.4585714,5.65510638 11.4557143,5.87851064 11.3757143,6.0706383 C11.2957143,6.26276596 11.0628571,6.42212766 10.9,6.3 C10.8628571,4.95957447 10.23,3.70106383 9.45142857,2.6287234 C9.23372639,2.3055556 8.96913531,2.01965613 8.66714286,1.7812766 C8.36158648,1.54108863 7.98102384,1.42848831 7.6,1.46553191 C7.17142857,1.52659574 6.79428571,1.83042553 6.36142857,1.86914894 C5.79,1.91829787 5.27714286,1.50574468 4.71,1.48638298 C4.24377935,1.49006672 3.80194083,1.70409057 3.49857143,2.07319149 C3.20034499,2.4399022 2.97894295,2.86755962 2.84857143,3.3287234 C2.62408225,4.02852219 2.50176339,4.75952543 2.48571429,5.49723404 C2.47714286,5.91276596 2.44,6.43106383 2.07142857,6.58595745 C2.07999758,6.69648644 2.07999758,6.80755611 2.07142857,6.91808511 C2.44428571,6.76914894 2.48142857,6.24340426 2.49,5.82638298 C2.5060491,5.08867437 2.62836796,4.35767113 2.85285714,3.65787234 C2.98322867,3.19670855 3.2046307,2.76905114 3.50285714,2.40234043 C3.80642498,2.03332287 4.24800632,1.81888071 4.71428571,1.81404255 C5.28571429,1.83489362 5.8,2.24744681 6.36571429,2.19680851 C6.79428571,2.15957447 7.17428571,1.85574468 7.60428571,1.79468085 C7.98512678,1.75721303 8.36567073,1.86927672 8.67142857,2.10893617 C8.97345387,2.34785752 9.23803828,2.63425222 9.45571429,2.95787234 C10.2342857,4.03021277 10.8671429,5.28425532 10.9042857,6.62914894 C11.0671429,6.7512766 11.3,6.59042553 11.38,6.39978723 C11.46,6.20914894 11.4628571,5.98574468 11.5628571,5.80404255 C11.68,5.59404255 11.9057143,5.48085106 12.0814286,5.32297872 C12.5271429,4.92234043 12.6385714,4.24765957 12.6214286,3.63553191 C12.6214286,3.61617021 12.6214286,3.59829787 12.6214286,3.57893617 C12.5928571,4.11212766 12.4571429,4.65276596 12.0771429,4.99382979 Z" id="Path"></path>
                        <path d="M1.53,4.88957447 C1.20285714,4.51276596 0.754285714,4.25957447 0.452857143,3.86042553 C0.198264541,3.50807952 0.0531973328,3.08294361 0.0371428571,2.64212766 C-0.00768553156,3.19331808 0.13994187,3.74284346 0.452857143,4.18957447 C0.754285714,4.5887234 1.20285714,4.84042553 1.53,5.21723404 C1.84598893,5.58561271 2.03589821,6.05282843 2.07,6.54574468 C2.11340698,5.94011441 1.91844203,5.34216043 1.53,4.88957447 Z" id="Path"></path>
                        <path d="M12.8985714,0.391702128 C12.8142857,0.756595745 12.6642857,1.10361702 12.5957143,1.47148936 C12.5545349,1.72024742 12.539684,1.97296798 12.5514286,2.22510638 C12.5561343,2.08267237 12.5709365,1.94079613 12.5957143,1.8006383 C12.6642857,1.43276596 12.8142857,1.08574468 12.8985714,0.720851064 C12.9469966,0.519470603 12.9629287,0.311090565 12.9457143,0.104255319 C12.9365006,0.201107119 12.9207473,0.297160968 12.8985714,0.391702128 L12.8985714,0.391702128 Z" id="Path"></path>
                    </g>
                </g>
            </g>
        </g>
    </g>
</svg>