<?xml version="1.0" encoding="UTF-8"?>
<svg width="1635px" height="777px" viewBox="0 0 1635 777" version="1.1" xmlns="http://www.w3.org/2000/svg" xmlns:xlink="http://www.w3.org/1999/xlink">
    <!-- Generator: Sketch 62 (91390) - https://sketch.com -->
    <title>img-hero-graphic_5</title>
    <desc>Created with Sketch.</desc>
    <defs>
        <linearGradient x1="0%" y1="18.5664875%" x2="57.3795316%" y2="59.8324076%" id="linearGradient-1">
            <stop stop-color="#3ED6BE" offset="0%"></stop>
            <stop stop-color="#03756D" offset="100%"></stop>
        </linearGradient>
        <path d="M0,-1.13686838e-13 L1393,-1.13686838e-13 C1256.86667,246.362928 1104.53333,428.714491 936,547.054688 C834.755779,618.146031 649.407307,720.006762 442.609375,755.164062 C299.203125,779.544271 151.666667,783.489583 0,767 L0,-1.13686838e-13 Z" id="path-2"></path>
    </defs>
    <g id="Page-1" stroke="none" stroke-width="1" fill="none" fill-rule="evenodd">
        <g id="img-hero-graphic_5">
            <path d="M0,-1.13686838e-13 L1635,-1.13686838e-13 C1475.2168,246.362928 1296.41924,428.714491 1098.60732,547.054688 C979.774371,618.146031 762.226092,720.006762 519.50203,755.164062 C351.182419,779.544271 178.015075,783.489583 0,767 L0,-1.13686838e-13 Z" id="path-2" fill="#1B6B91" fill-rule="nonzero" opacity="0.09"></path>
            <mask id="mask-3" fill="white">
                <use xlink:href="#path-2"></use>
            </mask>
            <use id="path-1" fill="url(#linearGradient-1)" fill-rule="nonzero" xlink:href="#path-2"></use>
            <g id="watermark-1" opacity="0.06" mask="url(#mask-3)">
                <g transform="translate(175.000000, 536.000000)">
                    <g id="Path" transform="translate(62.000881, 53.000739)">
                        <g id="path-1-link" fill="#939283" fill-rule="nonzero">
                            <path d="M146.342079,201.682879 C163.842327,49.1007116 23.4203331,-31.9604398 2.24003222,13.0001989 C-16.7402374,49.3207148 122.421739,45.6206622 146.342079,201.682879 Z" id="path-1"></path>
                        </g>
                        <g id="path-1-link" fill="#000000" fill-rule="nonzero">
                            <path d="M146.342079,201.682879 C163.842327,49.1007116 23.4203331,-31.9604398 2.24003222,13.0001989 C-16.7402374,49.3207148 122.421739,45.6206622 146.342079,201.682879 Z" id="path-1"></path>
                        </g>
                    </g>
                    <g id="Path" transform="translate(221.003125, 53.000739)">
                        <g id="path-2-link" fill="#939283" fill-rule="nonzero">
                            <path d="M2.0200429,201.682879 C-15.500206,49.1007116 125.00179,-31.9604398 146.12209,13.0001989 C165.102359,49.3207148 25.9403827,45.6206622 2.0200429,201.682879 Z" id="path-2"></path>
                        </g>
                        <g id="path-2-link" fill="#000000" fill-rule="nonzero">
                            <path d="M2.0200429,201.682879 C-15.500206,49.1007116 125.00179,-31.9604398 146.12209,13.0001989 C165.102359,49.3207148 25.9403827,45.6206622 2.0200429,201.682879 Z" id="path-2"></path>
                        </g>
                    </g>
                    <g id="Shape">
                        <g id="path-3-link" fill="#00817B" fill-rule="nonzero">
                            <path d="M209.022969,346.604923 C209.022969,151.582153 21.8603109,84.3811986 1.64002366,144.102047 C-17.0402417,192.722737 159.74227,144.622054 209.022969,346.604923 Z M215.683064,0 C265.923777,0.900012784 223.543175,82.0011648 215.683064,165.682353 C207.822952,82.0011648 165.44235,0.900012784 215.683064,0 Z M222.323158,346.604923 C271.603858,144.602054 448.326368,192.722738 429.726104,144.102047 C409.505817,84.3811986 222.323158,151.582153 222.323158,346.604923 L222.323158,346.604923 Z" id="path-3"></path>
                        </g>
                        <g id="path-3-link" fill="#000000" fill-rule="nonzero">
                            <path d="M209.022969,346.604923 C209.022969,151.582153 21.8603109,84.3811986 1.64002366,144.102047 C-17.0402417,192.722737 159.74227,144.622054 209.022969,346.604923 Z M215.683064,0 C265.923777,0.900012784 223.543175,82.0011648 215.683064,165.682353 C207.822952,82.0011648 165.44235,0.900012784 215.683064,0 Z M222.323158,346.604923 C271.603858,144.602054 448.326368,192.722738 429.726104,144.102047 C409.505817,84.3811986 222.323158,151.582153 222.323158,346.604923 L222.323158,346.604923 Z" id="path-3"></path>
                        </g>
                    </g>
                </g>
            </g>
            <g id="watermark-2" opacity="0.06" mask="url(#mask-3)">
                <g transform="translate(946.000000, 147.000000)">
                    <g id="Path" transform="translate(19.333333, 16.666667)">
                        <g id="path-1-link" fill="#939283" fill-rule="nonzero">
                            <path d="M46.1438988,63.233906 C51.661995,15.3946125 7.38478972,-10.0205999 0.706316466,4.07596995 C-5.27845323,15.4635904 38.6014492,14.303508 46.1438988,63.233906 Z" id="path-1"></path>
                        </g>
                        <g id="path-1-link" fill="#000000" fill-rule="nonzero">
                            <path d="M46.1438988,63.233906 C51.661995,15.3946125 7.38478972,-10.0205999 0.706316466,4.07596995 C-5.27845323,15.4635904 38.6014492,14.303508 46.1438988,63.233906 Z" id="path-1"></path>
                        </g>
                    </g>
                    <g id="Path" transform="translate(69.333333, 16.666667)">
                        <g id="path-2-link" fill="#939283" fill-rule="nonzero">
                            <path d="M0.636950464,63.233906 C-4.88745234,15.3946125 39.4149788,-10.0205999 46.0745329,4.07596995 C52.0593024,15.4635904 8.17939995,14.303508 0.636950464,63.233906 Z" id="path-2"></path>
                        </g>
                        <g id="path-2-link" fill="#000000" fill-rule="nonzero">
                            <path d="M0.636950464,63.233906 C-4.88745234,15.3946125 39.4149788,-10.0205999 46.0745329,4.07596995 C52.0593024,15.4635904 8.17939995,14.303508 0.636950464,63.233906 Z" id="path-2"></path>
                        </g>
                    </g>
                    <g id="Shape">
                        <g id="path-3-link" fill="#00817B" fill-rule="nonzero">
                            <path d="M65.8035273,109.208852 C65.8035273,47.7607552 6.88194973,26.5869675 0.516303745,45.4039111 C-5.36452054,60.7233984 50.2892331,45.5677557 65.8035273,109.208852 Z M67.9002239,0 C83.7167446,0.283577515 70.3747032,25.8370625 67.9002239,52.2034695 C65.4257441,25.8370625 52.0837028,0.283577515 67.9002239,0 Z M69.9906238,109.208852 C85.5049183,45.5614541 141.139783,60.7233987 135.284144,45.4039111 C128.918498,26.5869675 69.9906238,47.7607552 69.9906238,109.208852 L69.9906238,109.208852 Z" id="path-3"></path>
                        </g>
                        <g id="path-3-link" fill="#000000" fill-rule="nonzero">
                            <path d="M65.8035273,109.208852 C65.8035273,47.7607552 6.88194973,26.5869675 0.516303745,45.4039111 C-5.36452054,60.7233984 50.2892331,45.5677557 65.8035273,109.208852 Z M67.9002239,0 C83.7167446,0.283577515 70.3747032,25.8370625 67.9002239,52.2034695 C65.4257441,25.8370625 52.0837028,0.283577515 67.9002239,0 Z M69.9906238,109.208852 C85.5049183,45.5614541 141.139783,60.7233987 135.284144,45.4039111 C128.918498,26.5869675 69.9906238,47.7607552 69.9906238,109.208852 L69.9906238,109.208852 Z" id="path-3"></path>
                        </g>
                    </g>
                </g>
            </g>
        </g>
    </g>
</svg>