<?xml version="1.0" encoding="UTF-8"?>
<svg width="130px" height="95px" viewBox="0 0 130 95" version="1.1" xmlns="http://www.w3.org/2000/svg" xmlns:xlink="http://www.w3.org/1999/xlink">
    <!-- Generator: Sketch 62 (91390) - https://sketch.com -->
    <title>Group 2</title>
    <desc>Created with Sketch.</desc>
    <defs>
        <rect id="path-1" x="0" y="0" width="132" height="95"></rect>
    </defs>
    <g id="Page-1" stroke="none" stroke-width="1" fill="none" fill-rule="evenodd">
        <g id="Group-2">
            <mask id="mask-2" fill="white">
                <use xlink:href="#path-1"></use>
            </mask>
            <g id="Rectangle"></g>
            <g id="img-cards-resultado" mask="url(#mask-2)">
                <g transform="translate(-3.000000, -15.000000)">
                    <g id="Group">
                        <path d="M2.4,17.3 C3.4,15.2 4.7,13.5 6.3,12 C8.5,10 11.2,8.6 14,7.4 C15.7,6.7 17.4,6.1 19.1,5.6 C19.5,5.5 20,5.3 20.4,5.2 C25.5,3.7 30.9,2.6 36.4,1.8 C37.5,1.6 38.7,1.5 39.8,1.4 C41.2,1.2 42.7,1.1 44.1,1 C45.6,0.9 47.1,0.8 48.6,0.8 C50.4,0.7 52.1,0.7 53.9,0.8 C55.6,0.9 57.3,1 59,1.1 C61.5,1.3 63.9,1.7 66.3,2.3 C67.5,2.6 68.7,2.9 69.9,3.2 C70.5,3.4 71,3.5 71.5,3.7 C71.7,3.8 71.8,3.8 71.9,3.8 C73,4 73.8,4.3 74.6,4.6 C75.3,4.9 75.9,5.1 76.5,5.4 C76.8,5.5 77.1,5.7 77.4,5.8 C77.4,5.8 77.4,5.8 77.5,5.8 C77.6,5.8 77.7,5.9 77.8,5.9 C77.8,5.9 77.8,5.9 77.9,5.9 C78.6,6.3 79.4,6.6 80.1,7 C80.3,7.1 80.5,7.2 80.8,7.4 C80.8,7.4 80.9,7.4 80.9,7.4 C81,7.5 81.1,7.5 81.3,7.6 C81.3,7.6 81.4,7.6 81.4,7.7 C81.6,7.8 81.8,7.9 81.9,8 C81.9,8 82,8 82,8.1 C82,8.1 82.1,8.1 82.1,8.2 C82.2,8.3 82.3,8.3 82.4,8.4 C82.4,8.4 82.5,8.4 82.5,8.5 C82.7,8.6 82.7,8.6 82.9,8.7 C82.9,8.7 83,8.8 83,8.8 C83,9 83,9 83,9 C83.1,9.1 83.2,9.1 83.3,9.2 C83.3,9.2 83.3,9.2 83.4,9.2 C83.4,9.2 83.4,9.2 83.5,9.2 C83.6,9.3 83.7,9.4 83.8,9.4 C83.8,9.4 83.8,9.4 83.9,9.4 C84,9.4 84,9.5 84,9.5 C84,9.5 84.1,9.5 84.1,9.6 C84.4,9.9 84.4,10 84.5,10 C84.6,10 84.6,10.1 84.7,10.1 C84.7,10.1 84.8,10.1 84.8,10.2 C84.9,10.3 85.1,10.4 85.2,10.5 C85.3,10.6 85.4,10.7 85.5,10.7 C85.6,10.8 85.6,10.8 85.7,10.8 C86.1,11.1 86.5,11.4 86.9,11.7 C87.6,12.2 88.3,12.7 89,13.1 C89.1,13.1 89.1,13.2 89.2,13.2 C89.3,13.3 89.5,13.3 89.6,13.4 C89.9,13.5 90.2,13.6 90.5,13.7 C91.3,13.9 92.2,14.1 93,14.1 C93.3,14.1 93.6,14.1 93.9,14.1 C94,14.1 94,14.1 94.1,14.1 C94.4,14.1 94.6,14.1 94.9,14.1 C95.2,14.1 95.4,14.1 95.7,14 C96.1,14 96.4,13.9 96.8,13.8 C96.8,13.8 96.9,13.8 96.9,13.8 C98.1,13.6 99.2,13.3 100.3,13 C102,12.5 103.7,11.9 105.4,11.5 C106.1,11.3 106.8,11.1 107.6,11 C107.7,11 107.7,11 107.8,11 C108.8,10.8 109.9,10.7 111,10.8 C111.1,10.8 111.2,10.8 111.3,10.8 C113.2,10.9 115.1,11.4 117,12.4 C117.4,12.6 117.9,12.9 118.3,13.1 C118.3,13.1 118.3,13.1 118.4,13.1 C118.5,13.1 118.5,13.2 118.6,13.2 C118.7,13.2 118.7,13.3 118.8,13.3 C119.1,13.5 119.5,13.7 119.8,14 C119.9,14 119.9,14.1 120,14.1 C120.3,14.3 120.6,14.6 121,14.8 C121.1,14.9 121.1,14.9 121.2,15 C121.5,15.3 121.8,15.5 122.2,15.8 C122.3,15.9 122.4,16 122.5,16.1 C122.8,16.4 123.2,16.7 123.5,17.1 C123.8,17.5 124.2,17.8 124.5,18.2 C124.7,18.4 124.8,18.5 124.9,18.7 C125.8,19.7 126.6,20.8 127.3,21.9 C127.3,22 127.4,22 127.4,22.1 C127.6,22.4 127.8,22.7 128,23 C128.1,23.1 128.1,23.2 128.2,23.3 C128.4,23.7 128.6,24.1 128.8,24.4 C128.8,24.5 128.9,24.5 128.9,24.6 C129.8,26.2 130.4,27.8 131,29.4 C131,29.4 131,29.5 131,29.5 C131.2,30 131.3,30.5 131.5,31 C131.6,31.2 131.6,31.4 131.7,31.6 C131.7,31.7 131.7,31.7 131.7,31.8 C132,33.3 132.2,34.8 132.3,36.2 C132.3,40.6 132.3,42.9 132.3,47.3 C132.2,49.6 132,51.8 131.7,53.9 C131.7,53.9 131.7,54 131.7,54 C131.5,55.3 131.2,56.6 130.8,57.9 C130.4,59.2 129.9,60.4 129.3,61.6 C128.1,63.9 126.3,66 124.4,67.9 C124,68.3 123.5,68.8 123.1,69.2 C120.7,71.5 118.1,73.7 115.2,75.9 C114.8,76.2 114.4,76.5 114,76.8 C113.8,76.9 113.6,77.1 113.5,77.2 C113.4,77.3 113.2,77.4 113.1,77.5 C112.6,77.9 112,78.3 111.4,78.6 C111.3,78.7 111.2,78.7 111.1,78.8 C111,78.9 110.9,78.9 110.8,79 C110.6,79.1 110.4,79.2 110.2,79.4 C110.1,79.5 110.1,79.5 110,79.5 C109.8,79.6 109.8,79.7 109.6,79.8 C109.6,79.8 109.5,79.8 109.5,79.9 C109.4,79.9 109.4,80 109.3,80 C109.2,80 109.2,80.1 109.1,80.1 C108.9,80.3 108.6,80.4 108.4,80.6 C107.3,81.3 106.2,81.9 105.1,82.5 C104.8,82.7 104.4,82.9 104.1,83 C102.6,83.8 101,84.6 99.4,85.3 C98.8,85.6 98.2,85.8 97.6,86 C96.9,86.3 96.2,86.5 95.5,86.8 C94.4,87.2 93.2,87.6 92.1,87.9 C84,90.1 75.9,90.3 69.6,86.9 C69.3,86.7 68.9,86.5 68.6,86.3 C67.7,85.8 66.8,85.2 65.9,84.6 C64.8,83.9 63.7,83.3 62.5,82.9 C62.3,82.8 62.2,82.8 62,82.8 C59.5,82.1 56.6,82.4 54,84.4 C53.8,84.5 53.7,84.6 53.6,84.7 C52.4,85.6 51.3,86.3 50.2,86.8 C49.5,87.1 48.7,87.3 48,87.5 C45.7,88 43.5,88.2 41.3,88.2 C40.1,88.2 39,88.1 37.9,88 C36.3,87.8 34.8,87.4 33.2,87 C33,86.9 32.8,86.9 32.6,86.8 C31.4,86.4 30.1,85.9 28.9,85.3 C27.7,84.7 26.6,84 25.5,83.3 C23.3,81.8 21.3,80.1 19.4,78.1 C19.4,78.1 19.3,78 19.3,78 C19.2,77.9 19.2,77.9 19.1,77.8 C19,77.7 18.9,77.6 18.7,77.4 C18.6,77.3 18.6,77.3 18.5,77.2 C18.3,77 18.1,76.8 17.9,76.5 C17.9,76.5 17.8,76.4 17.8,76.3 C17.8,76.2 17.7,76.2 17.6,76.1 C17.2,75.7 16.9,75.2 16.5,74.8 C15.3,73.3 14.2,71.7 13.1,70.1 C10,66.2 7.6,61.2 5.6,55.9 C4.9,54.1 4.3,52.2 3.7,50.4 C3.6,49.9 3.4,49.4 3.3,49 C1.1,38.8 -1.9,27.4 2.4,17.3 Z" id="Path" fill="#057E7D" fill-rule="nonzero" opacity="0.1"></path>
                        <g id="Path" opacity="0.1" transform="translate(28.000000, 12.000000)" fill="#057E7D" fill-rule="nonzero">
                            <polygon points="19.2 21.2 19.2 19.7 13.7 19.7 13.7 21.2 12.5 21.2 12.5 0.7 0.6 0.7 0.6 35 10.4 35 12.5 35 22.4 35 22.4 21.2"></polygon>
                        </g>
                        <g id="Path" opacity="0.1" transform="translate(101.000000, 20.000000)" fill="#057E7D" fill-rule="nonzero">
                            <path d="M0,11.9 L0,27 L23.9,27 L23.9,24 C24.3,24.1 24.8,24.2 25.3,24.2 C25.3,24.2 25.4,24.2 25.4,24.2 L25.4,26.5 L25.7,26.5 L25.6,24.2 C27.3,24.1 28.6,23.1 28.6,20.8 C28.6,18.4 25.5,15.3 25.2,15 L25.2,15 L25.2,15 C25.2,15 25.2,15 25.2,15 C24.7,15.5 24.3,16 23.8,16.5 L23.8,3.8 L21,3.8 L21,0.7 L14.7,0.7 L14.7,3.8 L12,3.8 L12,11.9 L9.1,11.9 L9.1,9.9 L2.8,9.9 L2.8,11.9 L0,11.9 Z"></path>
                        </g>
                        <g id="Path" opacity="0.1" transform="translate(50.000000, 18.000000)" fill="#057E7D" fill-rule="nonzero">
                            <path d="M0.6,20.4 C0.6,24.3 2.9,25.6 5.7,25.6 C5.8,25.6 5.8,25.6 5.9,25.6 L6,29.1 L6.5,29.1 L6.3,25.5 C8.2,25.4 9.8,24.5 10.5,22.6 L10.5,29 L31.9,29 L31.9,16.9 L21.2,0.7 L10.5,16.9 L10.5,18.5 C9.4,15.2 6,11.9 5.7,11.6 L5.7,11.6 L5.7,11.6 C5.7,11.6 5.7,11.6 5.7,11.6 C5.7,11.6 0.6,16.5 0.6,20.4 Z"></path>
                        </g>
                        <g id="Oval" opacity="0.1" transform="translate(27.000000, 48.000000)" fill="#057E7D" fill-rule="nonzero">
                            <ellipse cx="14.9" cy="2.1" rx="14.1" ry="1.3"></ellipse>
                        </g>
                        <g id="Oval" opacity="0.1" transform="translate(101.000000, 66.000000)" fill="#057E7D" fill-rule="nonzero">
                            <ellipse cx="6.3" cy="1" rx="6.3" ry="1"></ellipse>
                        </g>
                        <g id="Oval" opacity="0.1" transform="translate(46.000000, 55.000000)" fill="#057E7D" fill-rule="nonzero">
                            <ellipse cx="6.8" cy="1.4" rx="6.3" ry="1"></ellipse>
                        </g>
                        <g id="Oval" opacity="0.1" transform="translate(36.000000, 73.000000)" fill="#057E7D" fill-rule="nonzero">
                            <ellipse cx="12.3" cy="2" rx="11.7" ry="1.1"></ellipse>
                        </g>
                        <polygon id="Path" fill="#3F3D56" fill-rule="nonzero" points="34.2 43.3 34.2 37.9 37.9 31.3 34.3 37.1 34.3 34.7 36.8 29.9 34.3 34 34.3 34 34.4 29.7 37 25.9 34.4 29 34.4 21.1 34.1 31.6 34.2 31.2 31.5 27 34.1 32 33.9 36.8 33.9 36.7 30.7 32.3 33.9 37.2 33.8 37.8 33.8 37.8 33.8 37.8 33.2 50.1 34 50.1 34.1 43.8 37.3 38.9"></polygon>
                        <polygon id="Path" fill="#3F3D56" fill-rule="nonzero" points="107.1 40.4 107.2 33.2 112.1 24.2 107.2 32 107.3 28.8 110.7 22.3 107.3 27.9 107.3 27.9 107.4 22 111 16.9 107.4 21.1 107.5 10.4 107.1 24.6 107.1 24 103.5 18.4 107.1 25.1 106.7 31.7 106.7 31.5 102.5 25.6 106.7 32.1 106.7 33 106.7 33 106.7 33 105.8 49.7 107 49.7 107.1 41.1 111.3 34.5"></polygon>
                        <path d="M54.2,55.2 C54.2,55.4 54.2,55.5 54.1,55.7 C54,55.9 53.9,56.1 53.7,56.3 C53.5,56.5 53.3,56.6 53,56.6 C52.9,56.6 52.8,56.6 52.7,56.6 C52.4,56.6 52.2,56.5 51.9,56.4 C51.7,56.3 51.5,56.1 51.4,55.9 C51,55.2 51.2,54.3 51.9,53.9 C52.6,53.5 53.5,53.7 53.9,54.4 C54.1,54.7 54.2,54.9 54.2,55.2 L54.2,55.2 Z" id="Path" fill="#3F3D56" fill-rule="nonzero"></path>
                        <polygon id="Path" fill="#F2F2F2" fill-rule="nonzero" points="51.7 54.2 51.8 54.2 52 54.5 51.9 54.9 51.5 55 51.4 54.8"></polygon>
                        <polygon id="Path" fill="#F2F2F2" fill-rule="nonzero" points="52.5 55.8 52.1 55.8 51.8 55.5 52 55.1 52.4 55.1 52.6 55.4"></polygon>
                        <path d="M52.1,56.2 L52,56.4 C51.8,56.3 51.6,56.1 51.5,55.9 L51.9,55.9 L52.1,56.2 Z" id="Path" fill="#F2F2F2" fill-rule="nonzero"></path>
                        <polygon id="Path" fill="#F2F2F2" fill-rule="nonzero" points="52.9 54.6 52.5 54.7 52.3 54.4 52.5 54 52.9 53.9 53.1 54.3"></polygon>
                        <polygon id="Path" fill="#F2F2F2" fill-rule="nonzero" points="53.5 55.5 53.1 55.5 52.9 55.2 53 54.8 53.5 54.8 53.7 55.1"></polygon>
                        <path d="M53.2,56.4 L53.1,56.6 C53,56.6 52.9,56.6 52.8,56.6 C52.7,56.6 52.6,56.6 52.5,56.6 L52.4,56.5 L52.6,56.1 L53,56 L53.2,56.4 Z" id="Path" fill="#F2F2F2" fill-rule="nonzero"></path>
                        <path d="M54.1,54.5 L53.7,54.6 L53.5,54.3 L53.6,54 C53.8,54.1 53.9,54.3 54.1,54.5 Z" id="Path" fill="#F2F2F2" fill-rule="nonzero"></path>
                        <path d="M54.1,55.7 C54,55.9 53.9,56.1 53.7,56.3 L53.6,56.1 L53.8,55.7 L54.1,55.7 Z" id="Path" fill="#F2F2F2" fill-rule="nonzero"></path>
                        <g id="Path" opacity="0.1" transform="translate(86.000000, 29.000000)" fill="#057E7D" fill-rule="nonzero">
                            <path d="M0.4,9.3 C0.4,13.2 2.7,14.5 5.5,14.5 C5.6,14.5 5.6,14.5 5.7,14.5 L5.8,18 L6.3,18 L6.1,14.4 C6.7,14.4 7.4,14.2 8,14 C8.6,15 9.7,15.4 10.9,15.4 C10.9,15.4 11,15.4 11,15.4 L11,17.7 L11.3,17.7 L11.2,15.4 C12.9,15.3 14.2,14.3 14.2,12 C14.2,9.6 11.1,6.5 10.8,6.2 L10.8,6.2 L10.8,6.2 C10.8,6.2 10.8,6.2 10.8,6.2 C10.8,6.2 10.5,6.5 10.1,6.9 C8.9,3.8 5.7,0.7 5.5,0.4 L5.5,0.4 L5.5,0.4 C5.5,0.4 5.5,0.4 5.5,0.4 C5.5,0.4 0.4,5.4 0.4,9.3 Z"></path>
                        </g>
                    </g>
                    <g id="Group-3" transform="translate(44.100000, 28.334315)">
                        <ellipse id="Oval" fill="#F2F2F2" fill-rule="nonzero" cx="27.1" cy="79.4656854" rx="27.1" ry="1.6"></ellipse>
                        <rect id="Rectangle" fill="#FFFFFF" fill-rule="nonzero" transform="translate(46.156800, 20.802985) rotate(-59.999272) translate(-46.156800, -20.802985) " x="38.7569628" y="17.8030514" width="14.7996744" height="5.999868"></rect>
                        <rect id="Rectangle" fill="#2F2E41" fill-rule="nonzero" transform="translate(48.652492, 16.882909) rotate(-59.074567) translate(-48.652492, -16.882909) " x="48.1524922" y="14.4830117" width="1" height="4.79979372"></rect>
                        <rect id="Rectangle" fill="#2F2E41" fill-rule="nonzero" transform="translate(47.951882, 17.827379) rotate(-59.074567) translate(-47.951882, -17.827379) " x="47.4518822" y="15.4274817" width="1" height="4.79979372"></rect>
                        <rect id="Rectangle" fill="#2F2E41" fill-rule="nonzero" transform="translate(47.545162, 18.578419) rotate(-59.074567) translate(-47.545162, -18.578419) " x="47.0451622" y="16.1785217" width="1" height="4.79979372"></rect>
                        <rect id="Rectangle" fill="#2F2E41" fill-rule="nonzero" transform="translate(46.855832, 19.606579) rotate(-59.074567) translate(-46.855832, -19.606579) " x="46.3558322" y="17.2066817" width="1" height="4.79979372"></rect>
                        <rect id="Rectangle" fill="#2F2E41" fill-rule="nonzero" transform="translate(45.895332, 21.078829) rotate(-59.074567) translate(-45.895332, -21.078829) " x="45.3953322" y="18.6789317" width="1" height="4.79979372"></rect>
                        <path d="M34.8,30.0656854 L33.1,44.8656854 C33.1,44.8656854 25.4,42.2656854 21.2,41.6656854 C17.4,41.0656854 19.6,33.5656854 21.4,30.2656854 L21.4,30.2656854 L28.4,13.6656854 L28.4,15.0656854 L23.5,28.3656854 C25.5,27.8656854 28.4,29.2656854 28.4,29.2656854 L34.8,30.0656854 Z" id="Path" fill="#2F2E41" fill-rule="nonzero"></path>
                        <path d="M45.6,26.4656854 C45.6,26.4656854 52.1,23.0656854 51,20.9656854 C49.9,18.8656854 45.2,24.6656854 45.2,24.6656854 L45.6,26.4656854 Z" id="Path" fill="#FFB9B9" fill-rule="nonzero"></path>
                        <path d="M44.8,28.1656854 C44.8,28.1656854 46.7,27.9656854 46.7,27.4656854 C46.7,26.9656854 45.5,23.8656854 45.5,23.8656854 L43.6,24.8656854 L44.8,28.1656854 Z" id="Path" fill="#D0CDE1" fill-rule="nonzero"></path>
                        <circle id="Oval" fill="#FFB9B9" fill-rule="nonzero" cx="36.5" cy="7.56568542" r="4.4"></circle>
                        <path d="M38.2,9.96568542 C37.2,11.1656854 35.1,15.9656854 35.1,15.9656854 C35.1,15.9656854 28.5,13.3656854 29.8,13.0656854 C31.2,12.7656854 33,7.06568542 33,7.06568542 C33,7.06568542 39.2,8.76568542 38.2,9.96568542 Z" id="Path" fill="#FFB9B9" fill-rule="nonzero"></path>
                        <path d="M33.4,42.8656854 L33.2,44.8656854 C33.2,44.8656854 25.5,42.2656854 21.3,41.6656854 C17.1,41.0656854 20.4,31.4656854 22.2,29.2656854 C22.3,29.0656854 22.5,28.9656854 22.6,28.8656854 C20.9,32.2656854 18.9,39.4656854 22.5,39.9656854 C25.8,40.4656854 31.2,42.1656854 33.4,42.8656854 Z" id="Path" fill="#000000" fill-rule="nonzero" opacity="0.1"></path>
                        <path d="M20.1,72.4656854 C19.9,73.1656854 20.1,76.5656854 21.6,77.0656854 C23.1,77.5656854 24,78.7656854 24,79.2656854 C24,79.7656854 22.6,79.7656854 19.6,79.2656854 C16.5,78.7656854 13,73.2656854 12.6,72.9656854 C12.3,72.6656854 16.5,69.2656854 16.5,69.2656854 C16.5,69.2656854 20.3,71.7656854 20.1,72.4656854 Z" id="Path" fill="#2F2E41" fill-rule="nonzero"></path>
                        <path d="M36.8,48.5656854 L32.5,59.6656854 C32.5,59.6656854 20.8,72.9656854 20.1,72.9656854 C19.4,72.9656854 16,69.5656854 15.7,69.3656854 C15.4,69.1656854 26.6,56.5656854 26.6,56.5656854 L29.3,43.7656854 L36.8,48.5656854 Z" id="Path" fill="#2F2E41" fill-rule="nonzero"></path>
                        <path d="M36.8,48.5656854 L32.5,59.6656854 C32.5,59.6656854 20.8,72.9656854 20.1,72.9656854 C19.4,72.9656854 16,69.5656854 15.7,69.3656854 C15.4,69.1656854 26.6,56.5656854 26.6,56.5656854 L29.3,43.7656854 L36.8,48.5656854 Z" id="Path" fill="#000000" fill-rule="nonzero" opacity="0.1"></path>
                        <path d="M37.3,39.7656854 C39.5,41.1656854 43.6,60.6656854 43.6,60.6656854 L47.2,74.7656854 C47.5,76.4656854 40.9,77.3656854 40.9,77.3656854 L37.2,61.3656854 C37.2,61.3656854 35.5,53.3656854 31.8,49.4656854 C28.1,45.5656854 26.7,39.7656854 26.7,39.7656854 C26.7,39.7656854 35.1,38.3656854 37.3,39.7656854 Z" id="Path" fill="#2F2E41" fill-rule="nonzero"></path>
                        <path d="M46.6,74.9656854 C46.6,74.9656854 49.5,77.5656854 52.2,77.5656854 C54.9,77.5656854 54.6,78.7656854 54.6,78.7656854 C53.9,81.1656854 41.8,80.4656854 41.1,80.1656854 C40.4,79.8656854 41.4,76.5656854 41.4,76.5656854 L46.6,74.9656854 Z" id="Path" fill="#2F2E41" fill-rule="nonzero"></path>
                        <path d="M38.3,22.3656854 C39.7,26.0656854 39.8,37.8656854 39.3,40.9656854 C38.8,44.0656854 25.2,40.9656854 24,40.2656854 C22.8,39.5656854 26.2,38.2656854 25.9,25.9656854 C25.6,13.6656854 29.3,13.1656854 29.3,13.1656854 C29.3,13.1656854 29.3,11.4656854 30.5,11.1656854 C31.7,10.8656854 36.1,15.2656854 36.1,15.2656854 C35.3,16.2656854 37,18.6656854 38.3,22.3656854 Z" id="Path" fill="#575A89" fill-rule="nonzero"></path>
                        <path d="M38.3,27.1656854 C38.3,27.1656854 43.1,24.2656854 44.1,24.4656854 C45.1,24.6656854 47,29.5656854 45.6,29.5656854 C44.2,29.5656854 39.5,32.4656854 36.4,32.6656854 C33.3,32.8656854 31.1,27.8656854 28.2,23.2656854 C25.3,18.6656854 30.4,16.2656854 30.4,16.2656854 C36.6,15.5656854 38.3,27.1656854 38.3,27.1656854 Z" id="Path" fill="#575A89" fill-rule="nonzero"></path>
                        <path d="M32.5,9.56568542 C31.8,9.56568542 31.4,7.76568542 31.2,7.26568542 C30.9,6.26568542 30.9,5.16568542 31.2,4.16568542 C31.6,2.96568542 32.4,1.86568542 33.3,1.06568542 C33.7,0.665685425 34.1,0.365685425 34.6,0.165685425 C35.2,-0.0343145751 35.8,-0.0343145751 36.5,0.0656854249 C37.4,0.265685425 38.3,0.665685425 39.1,1.26568542 C39.5,1.56568542 40,2.06568542 40.5,2.06568542 C40.6,2.06568542 40.7,2.06568542 40.8,2.16568542 C41,2.36568542 40.8,2.86568542 41.1,2.86568542 C41.3,2.66568542 41.7,2.56568542 42,2.66568542 C42,2.96568542 42,3.26568542 42.1,3.46568542 L42.4,3.16568542 C42.4,3.76568542 42.4,4.36568542 42,4.96568542 C41.7,5.46568542 41.1,5.86568542 40.5,5.86568542 C40.1,5.86568542 39.7,5.66568542 39.4,5.56568542 C39.1,5.46568542 38.5,5.56568542 38.3,5.86568542 C38.2,6.06568542 38.2,6.16568542 38.1,6.36568542 C37.8,7.66568542 36.4,8.66568542 35.1,8.46568542 C34.7,8.46568542 34.4,8.26568542 34,8.26568542 C32.8,8.06568542 33.4,9.56568542 32.5,9.56568542 Z" id="Path" fill="#897200" fill-rule="nonzero"></path>
                    </g>
                </g>
            </g>
        </g>
    </g>
</svg>