<?xml version="1.0" encoding="UTF-8"?>
<svg width="557px" height="370px" viewBox="0 0 557 370" version="1.1" xmlns="http://www.w3.org/2000/svg" xmlns:xlink="http://www.w3.org/1999/xlink">
    <!-- Generator: Sketch 61.2 (89653) - https://sketch.com -->
    <title>Asset 1</title>
    <desc>Created with Sketch.</desc>
    <g id="Page-1" stroke="none" stroke-width="1" fill="none" fill-rule="evenodd">
        <g id="Asset-1">
            <path d="M532.6,225.39 C464.49,206.45 375.38,195 277.84,195 C180.3,195 91.19,206.45 23.08,225.39 C79.0212702,197.897941 164.716209,179.692116 261.679007,177.862155 L277.45,190.47 L277.45,191.08 L277.84,190.78 L278.22,191.08 L278.22,190.47 L293.994988,177.862042 C390.960253,179.691364 476.657575,197.897373 532.6,225.39 Z" id="Combined-Shape" fill="#939283"></path>
            <path d="M8.04911693e-16,304.82 L8.04911693e-16,248.17 C-0.0327381318,246.404141 0.66571274,244.70325 1.93,243.47 C3.16836044,242.207184 4.87158386,241.50926 6.64,241.54 L46,241.54 L46,252.37 L12.9,252.37 L12.9,266 L37.54,266 L37.54,270.22 C37.5453489,271.97645 36.8492829,273.662358 35.6063407,274.903423 C34.3633986,276.144488 32.6764403,276.838004 30.92,276.83 L12.92,276.83 L12.92,304.83 L8.04911693e-16,304.82 Z" id="Path" fill="#00817B"></path>
            <path d="M50.67,300.41 C41.24,292.3 41.14,272.64 48.08,262.99 C55.58,252.57 73.65,251.71 82.29,261.17 C90.14,269.76 90.58,285.48 85.1,295.39 C78.63,307.08 60.48,309.22 50.67,300.41 Z M59.47,268 C55,273 55.21,281.72 57,287.74 C58.89,294.27 66.26,298.12 71.93,292.94 C76.69,288.6 77.03,279.35 75.35,273.6 C73.35,266.94 65.35,262.27 59.52,268.04 C56.9,270.86 60.34,267.19 59.47,268 Z" id="Shape" fill="#00817B"></path>
            <path d="M136.77,304.82 L130.77,304.82 C129.366509,304.895808 127.9727,304.547356 126.77,303.82 C125.024835,302.638819 124.005956,300.646345 124.07,298.54 L124.07,298.54 L124.07,276.09 C124.07,273.93 124.24,271.65 123.37,269.63 C121.28,264.77 114.31,263.93 110.26,266.63 C107.59,268.41 107.03,271.27 107.03,274.28 L107.03,304.81 L94.11,304.81 L94.11,276.81 C94.11,272.31 94.46,267.55 96.75,263.56 C98.1464768,261.252466 100.177208,259.395301 102.6,258.21 C105.799561,256.490036 109.299569,255.400315 112.91,255 C116.62102,254.605826 120.373394,255.018587 123.91,256.21 C126.976804,257.077021 129.798519,258.648826 132.15,260.8 C137.74,266.55 136.76,275.72 136.76,283.14 L136.76,304.82 L136.77,304.82 Z" id="Path" fill="#00817B"></path>
            <path d="M163.52,304.82 C159.137814,305.065839 154.743816,305.005693 150.37,304.64 C145.65,304.266667 143.286667,301.266667 143.28,295.64 L143.28,241.54 L149.92,241.54 C151.521519,241.552728 153.048801,242.217078 154.15,243.38 C155.347488,244.531823 156.013735,246.128642 155.99,247.79 L155.99,256 L163.52,256 L163.52,258.59 C163.574514,260.284351 162.909732,261.922693 161.69,263.1 C160.515502,264.254323 158.926541,264.888467 157.28,264.86 L156,264.86 L156,292.06 C156,294.14 157.223333,295.18 159.67,295.18 L163.53,295.18 L163.52,304.82 Z" id="Path" fill="#00817B"></path>
            <path d="M202.9,289.76 L212.09,289.76 C211.018587,294.48523 208.277202,298.664777 204.37,301.53 C200.57,304.35 195.79,305.763333 190.03,305.77 C183.036667,305.77 177.573333,303.496667 173.64,298.95 C169.7,294.543333 167.733333,288.23 167.739983,280.01 C167.739983,272.163333 169.643333,266.036667 173.45,261.63 C177.39,257.103333 182.853333,254.833333 189.84,254.82 C197.173333,254.82 202.876667,257.023333 206.95,261.43 C210.87,265.95 212.83,272.253333 212.83,280.34 L212.83,282.34 C212.859456,282.778632 212.794671,283.218487 212.64,283.63 L180.83,283.63 C180.96,287.46 181.83,290.3 183.59,292.15 C185.35,294 187.59,295.15 190.76,295.15 C192.624316,295.20285 194.468593,294.753869 196.1,293.85 C196.481488,293.723396 196.825253,293.503387 197.1,293.21 C197.41,292.91 197.74,292.56 198.1,292.21 C198.427687,291.611278 198.898317,291.10286 199.47,290.73 C200.476158,290.060188 201.673478,289.737157 202.88,289.81 L202.9,289.76 Z M180.83,275.35 L199.59,275.35 C199.35,272.016667 198.49,269.573333 197.01,268.02 C195.219508,266.230885 192.745995,265.298308 190.22,265.46 C187.752387,265.367659 185.355223,266.29326 183.59,268.02 C181.87,269.73 181,272.18 180.83,275.35 L180.83,275.35 Z" id="Shape" fill="#00817B"></path>
            <path d="M236.869969,304.82 L236.869969,248.17 C236.864651,246.408245 237.562824,244.71725 238.809517,243.472435 C240.05621,242.22762 241.748255,241.531996 243.51,241.539932 L250,241.539932 L250,304.82 L236.869969,304.82 Z" id="Path" fill="#00817B"></path>
            <path d="M298.16,304.82 L285.45,304.82 L285.45,273.54 C285.45,270.61 284.57,268.46 282.8,267.11 C281.082196,265.78686 278.968127,265.082171 276.8,265.11 C274.677147,265.078571 272.609297,265.785528 270.95,267.11 C269.24,268.46 268.37,270.61 268.37,273.54 L268.37,304.82 L255.5,304.82 L255.5,276.15 C255.5,267.82 257.68,262.23 262.03,259.42 C266.346822,256.610397 271.343306,255.020921 276.49,254.82 C279.276269,254.816229 282.053992,255.12822 284.77,255.75 C287.482275,256.365041 290.00669,257.623819 292.13,259.42 C294.017524,257.799321 296.251375,256.632792 298.66,256.01 C301.216935,255.33639 303.838434,254.937466 306.48,254.82 C311.745651,254.772561 316.916408,256.222177 321.39,259 C325.92,261.83 328.2,267.52 328.2,276.11 L328.2,304.78 L321.75,304.78 C320.067979,304.854613 318.432003,304.219073 317.241465,303.028535 C316.050927,301.837997 315.415387,300.202021 315.49,298.52 L315.49,298.52 L315.49,273.52 C315.49,270.59 314.59,268.44 312.82,267.09 C309.274631,264.392948 304.365369,264.392948 300.82,267.09 C299.04,268.44 298.15,270.59 298.15,273.52 L298.15,304.8 L298.16,304.82 Z" id="Path" fill="#00817B"></path>
            <path d="M363.21,280.25 C360.906823,281.301953 358.495948,282.09999 356.02,282.63 L351.79,283.56 C350.014764,283.944057 348.362253,284.761723 346.98,285.94 C346.168584,287.140541 345.723856,288.551164 345.7,290 C345.620469,291.636182 346.221305,293.232379 347.36,294.41 C348.716471,295.482959 350.424696,296.010762 352.15,295.89 C355.145724,296.153756 358.105168,295.082085 360.237435,292.961385 C362.369702,290.840685 363.457456,287.887114 363.21,284.89 L363.21,280.3 L363.21,280.25 Z M366.15,302.81 C363.602487,304.153337 360.82344,305.001642 357.96,305.31 C355.419448,305.592929 352.86615,305.746461 350.31,305.77 C346.156261,305.852521 342.087186,304.589705 338.71,302.17 C335.376667,299.776667 333.71,295.823333 333.71,290.31 C333.71,285.14 335.22,281.47 338.23,279.26 C341.650508,276.878515 345.595778,275.358729 349.73,274.83 C350.474216,274.819494 351.215144,274.728973 351.94,274.56 C352.81,274.38 353.78,274.22 354.94,274.09 C360.33,273.37 363.03,271.77 363.03,269.32 C363.11356,267.578319 361.89524,266.043664 360.18,265.73 C358.480925,265.208861 356.716957,264.929453 354.94,264.9 C353.374334,264.875392 351.816764,265.129343 350.34,265.65 C349.002128,266.132294 347.932935,267.161483 347.4,268.48 L335.07,268.48 C335.48779,264.787044 337.336748,261.405066 340.22,259.06 C343.553333,256.233333 348.273333,254.82 354.38,254.82 C361.253333,254.82 366.406667,255.986667 369.84,258.32 C373.297681,260.583159 375.319489,264.490218 375.17,268.62 L375.17,285.35 C375.17,290.256667 374.28,294.09 372.5,296.85 C370.95953,299.372952 368.765404,301.432321 366.15,302.81 L366.15,302.81 Z" id="Shape" fill="#00817B"></path>
            <path d="M402.99,254.82 C408.89,254.82 413.36,255.7 418.16,259.24 C423.22,262.96 426.61,268.68 426.61,277.24 L426.61,301.76 C426.61,310.34 425.06,316.76 420.32,320.81 C415.83,324.69 409.77,325.81 403.89,325.81 C392.62,325.81 384.41,320.19 381.72,309.65 L395.14,309.65 C396.183114,311.414359 397.763542,312.798548 399.65,313.6 C401.65,314.53 402.65,314.97 406.38,314.7 C411.71,314.21 413.83,310.7 414.08,306.7 L414.13,300.43 L414.13,298.78 C412.137158,302.037119 408.919707,304.357431 405.2,305.22 C401.476714,306.072263 397.58065,305.7473 394.05,304.29 C390.117984,302.608537 386.802909,299.751075 384.56,296.11 C381.893333,292.11 380.56,286.87 380.56,280.39 C380.56,272.776667 382.306667,266.613333 385.8,261.9 C389.3,257.17 395.98,254.82 402.99,254.82 Z M395.34,270.25 C393.816321,273.529939 393.060502,277.114096 393.13,280.73 C393.13,289.19 395.583333,293.876667 400.49,294.79 C405.38,295.72 409.01,294.59 411.33,291.4 C412.644374,289.515197 413.469147,287.332985 413.73,285.05 C414.221284,282.219939 414.248305,279.328749 413.81,276.49 C413.14,272.05 410.81,266.85 405.96,265.86 C401.96,265.03 397.22,266.32 395.34,270.25 Z" id="Combined-Shape" fill="#00817B"></path>
            <path d="M467.09,289.76 L476.28,289.76 C475.208587,294.48523 472.467202,298.664777 468.56,301.53 C464.76,304.35 459.98,305.763333 454.22,305.77 C447.226667,305.77 441.763333,303.496667 437.83,298.95 C433.89,294.543333 431.923333,288.23 431.929983,280.01 C431.929983,272.163333 433.833333,266.036667 437.64,261.63 C441.58,257.103333 447.043333,254.833333 454.03,254.82 C461.363333,254.82 467.066667,257.023333 471.14,261.43 C475.06,265.95 477.02,272.253333 477.02,280.34 L477.02,282.34 C477.049456,282.778632 476.984671,283.218487 476.83,283.63 L445,283.63 C445.13,287.46 446,290.3 447.76,292.15 C449.52,294 451.76,295.15 454.93,295.15 C456.794316,295.20285 458.638593,294.753869 460.27,293.85 C460.651488,293.723396 460.995253,293.503387 461.27,293.21 C461.58,292.91 461.91,292.56 462.27,292.21 C462.589975,291.608953 463.058087,291.099537 463.63,290.73 C464.636158,290.060188 465.833478,289.737157 467.04,289.81 L467.09,289.76 Z M445,275.35 L463.76,275.35 C463.52,272.016667 462.66,269.573333 461.18,268.02 C459.389508,266.230885 456.915995,265.298308 454.39,265.46 C451.922387,265.367659 449.525223,266.29326 447.76,268.02 C446.06,269.73 445.15,272.18 445,275.35 Z" id="Shape" fill="#00817B"></path>
            <path d="M525.79,304.82 L513.08,304.82 L513.08,273.54 C513.08,270.61 512.2,268.46 510.43,267.11 C508.71332,265.784751 506.598494,265.079809 504.43,265.11 C502.304125,265.078741 500.233175,265.785549 498.57,267.11 C496.86,268.46 496,270.61 496,273.54 L496,304.82 L483.1,304.82 L483.1,276.15 C483.1,267.82 485.28,262.23 489.62,259.42 C493.938108,256.613112 498.933825,255.02388 504.08,254.82 C506.869603,254.815645 509.650704,255.127638 512.37,255.75 C515.081481,256.367264 517.605392,257.62579 519.73,259.42 C521.625479,257.786415 523.874625,256.615627 526.3,256 C528.853544,255.32642 531.471725,254.927491 534.11,254.81 C539.369995,254.768256 544.53367,256.221298 549,259 C553.54,261.83 555.81,267.52 555.81,276.11 L555.81,304.78 L549.36,304.78 C547.677979,304.854613 546.042003,304.219073 544.851465,303.028535 C543.660927,301.837997 543.025387,300.202021 543.1,298.52 L543.1,298.52 L543.1,273.52 C543.1,270.59 542.21,268.44 540.43,267.09 C536.884631,264.392948 531.975369,264.392948 528.43,267.09 C526.66,268.44 525.76,270.59 525.76,273.52 L525.76,304.8 L525.79,304.82 Z" id="Path" fill="#00817B"></path>
            <line x1="0" y1="322.11" x2="375.17" y2="322.11" id="Path" stroke="#939283" stroke-width="3"></line>
            <line x1="431.93" y1="322.11" x2="555.83" y2="322.11" id="Path" stroke="#939283" stroke-width="3"></line>
            <path d="M28,369.47 C27.8428494,369.608655 27.6395442,369.683557 27.43,369.68 L25.43,369.68 C25.2176618,369.682272 25.0116637,369.607686 24.85,369.47 C24.7008965,369.350657 24.6128821,369.170961 24.61,368.98 L24.61,348.22 C24.61,348.15 24.61,348.11 24.61,348.11 C24.61,348.11 24.55,348.11 24.52,348.18 L18.6,358.54 C18.4221188,358.845226 18.1798248,359.107995 17.89,359.31 C17.535811,359.504201 17.1327389,359.59107 16.73,359.56 L14.83,359.56 C14.4272611,359.59107 14.024189,359.504201 13.67,359.31 C13.3801752,359.107995 13.1378812,358.845226 12.96,358.54 L7,348.18 C7,348.18 6.94,348.11 6.91,348.11 C6.88,348.11 6.91,348.11 6.91,348.22 L6.91,369 C6.90711789,369.190961 6.81910347,369.370657 6.67,369.49 C6.50833634,369.627686 6.30233817,369.702272 6.09,369.700121 L4,369.700121 C3.79045584,369.703557 3.58715057,369.628655 3.43,369.49 C3.27932737,369.370833 3.18805175,369.191933 3.18,369 L3.18,344.7 C3.18211169,344.419498 3.31071909,344.154934 3.53,343.98 C3.76638248,343.78612 4.06435233,343.68325 4.37,343.69 L7.07,343.69 C7.35844214,343.674318 7.64717236,343.71508 7.92,343.81 C8.12394657,343.914384 8.29134592,344.078296 8.4,344.28 L15.23,356.28 C15.37,356.54 15.54,356.66 15.73,356.66 C15.92,356.66 16.09,356.54 16.23,356.28 L23.07,344.28 C23.172225,344.076995 23.3369953,343.912225 23.54,343.81 C23.8128276,343.71508 24.1015579,343.674318 24.39,343.69 L27.05,343.69 C27.3556477,343.68325 27.6536175,343.78612 27.89,343.98 C28.1092809,344.154934 28.2378883,344.419498 28.24,344.7 L28.24,369 C28.2288411,369.183225 28.1418791,369.353526 28,369.47 L28,369.47 Z" id="Path" fill="#939283" fill-rule="nonzero"></path>
            <path d="M58.06,369.57 C57.9818522,369.665535 57.8717101,369.729489 57.75,369.75 C57.37,369.75 56.84,369.82 56.18,369.83 L54.05,369.89 C53.3,369.89 52.53,369.89 51.76,369.89 L49.69,369.89 C46.77,369.89 44.5733333,369.39 43.1,368.39 C41.62,367.39 40.89,365.71 40.89,363.39 L40.89,349.93 C40.89,347.6 41.62,345.93 43.1,344.93 C44.58,343.93 46.77,343.42 49.69,343.42 L51.74,343.42 L53.99,343.42 L56.1,343.49 L57.75,343.58 C57.8734222,343.595612 57.9852583,343.660549 58.06,343.76 C58.1298987,343.848348 58.1685781,343.957354 58.17,344.07 L58.17,345.82 C58.17,346.1 58.02,346.24 57.71,346.24 L49.71,346.24 C48.8256867,346.224129 47.9418298,346.291088 47.07,346.44 C46.5165939,346.517029 45.9909151,346.730049 45.54,347.06 C45.1844211,347.35518 44.9293313,347.753539 44.81,348.2 C44.6810019,348.750443 44.6205434,349.314722 44.63,349.88 L44.63,354.75 L57.34,354.75 C57.5523382,354.747728 57.7583363,354.822314 57.92,354.96 C58.0724533,355.073264 58.1645838,355.250154 58.17,355.44 L58.17,356.75 C58.1646909,356.942643 58.0728571,357.122637 57.92,357.24 C57.7573671,357.374885 57.5512052,357.445975 57.34,357.44 L44.65,357.44 L44.65,363.35 C44.6383548,363.921978 44.6988311,364.493144 44.83,365.05 C44.9499913,365.493376 45.2051499,365.888347 45.56,366.18 C46.0123175,366.509266 46.5369778,366.725303 47.09,366.81 C47.9622337,366.954813 48.8460185,367.018419 49.73,367 L57.73,367 C58.04,367 58.19,367.14 58.19,367.42 L58.19,369.21 C58.1950475,369.342327 58.1484275,369.471428 58.06,369.57 L58.06,369.57 Z" id="Path" fill="#939283" fill-rule="nonzero"></path>
            <path d="M90.79,359 C90.8261868,360.666853 90.523398,362.323687 89.9,363.87 C89.3442246,365.188687 88.4800116,366.354688 87.38,367.27 C86.2146398,368.200834 84.8700345,368.881647 83.43,369.27 C81.7449428,369.724327 80.0050783,369.943072 78.26,369.92 C77.46,369.92 76.68,369.92 75.92,369.92 L73.77,369.83 L72,369.69 C71.47,369.69 71.06,369.62 70.75,369.57 C70.18,369.5 69.89,369.21 69.89,368.7 L69.89,344.65 C69.89,344.13 70.18,343.84 70.75,343.77 C71.06,343.77 71.47,343.68 72,343.65 L73.79,343.54 L75.94,343.46 C76.7,343.46 77.48,343.46 78.28,343.46 C80.0235945,343.440737 81.7620555,343.65258 83.45,344.09 C84.8946229,344.466306 86.2416341,345.148337 87.4,346.09 C88.4958007,347.009284 89.3591988,348.174187 89.92,349.49 C90.5471772,351.038713 90.8500837,352.699594 90.81,354.37 L90.79,359 Z M87,354.29 C87.0516294,352.924038 86.8201111,351.562166 86.32,350.29 C85.9256778,349.310259 85.2891384,348.44663 84.47,347.78 C83.6571976,347.144108 82.7152076,346.693591 81.71,346.46 C80.5818359,346.20103 79.4274876,346.073515 78.27,346.08 L75.77,346.08 C75.07,346.08 74.38,346.13 73.69,346.17 L73.69,367.07 C74.35,367.12 75.04,367.14 75.75,367.14 L78.27,367.14 C79.4274876,367.146485 80.5818359,367.01897 81.71,366.76 C82.7177716,366.522927 83.6604108,366.065269 84.47,365.42 C85.2822445,364.750886 85.9175517,363.892363 86.32,362.92 C86.8223649,361.648463 87.0539642,360.286113 87,358.92 L87,354.29 Z" id="Shape" fill="#939283" fill-rule="nonzero"></path>
            <path d="M106.54,369.47 C106.396675,369.611494 106.201262,369.687488 106,369.68 L103.73,369.68 C103.528534,369.688709 103.33265,369.612532 103.19,369.47 C103.068452,369.343681 103.000384,369.175301 102.999981,369 L102.999981,344.33 C102.998579,344.150303 103.075195,343.97883 103.21,343.86 C103.357223,343.72679 103.5518,343.658327 103.75,343.67 L106,343.67 C106.197884,343.660531 106.391644,343.728706 106.54,343.86 C106.668009,343.982811 106.740261,344.152606 106.740001,344.33 L106.740001,369 C106.733947,369.176053 106.662664,369.343569 106.54,369.47 Z" id="Path" fill="#939283" fill-rule="nonzero"></path>
            <path d="M137.42,369.24 C137.23989,369.346537 137.044175,369.424148 136.84,369.47 L135.52,369.66 C135.08,369.72 134.59,369.76 134.07,369.8 L132.29,369.89 C131.623333,369.89 130.853333,369.89 129.98,369.89 C128.681253,369.887877 127.387874,369.723265 126.13,369.4 C123.431017,368.742078 121.187121,366.874625 120.05,364.34 C119.332069,362.678586 118.990576,360.87892 119.05,359.07 L119.05,354.21 C118.987785,352.391158 119.329301,350.581122 120.05,348.91 C120.634287,347.619817 121.514821,346.485745 122.62,345.6 C123.657188,344.788065 124.852815,344.202174 126.13,343.88 C127.388807,343.561632 128.681577,343.397098 129.98,343.39 C131.3,343.39 132.56,343.46 133.76,343.58 C134.96,343.7 136.01,343.84 136.92,343.95 C137.36,343.95 137.58,344.15 137.58,344.41 L137.58,346.19 C137.588494,346.289978 137.56003,346.3896 137.5,346.47 C137.45,346.54 137.31,346.58 137.09,346.58 L137,346.58 L135.62,346.49 L133.88,346.38 L131.96,346.3 C131.3,346.3 130.66,346.3 130.06,346.3 C129.10132,346.292169 128.147041,346.430421 127.23,346.71 C126.374571,346.964611 125.592697,347.420705 124.95,348.04 C124.253926,348.724581 123.729653,349.564103 123.42,350.49 C123.016538,351.701336 122.827042,352.973665 122.86,354.25 L122.86,359.11 C122.829309,360.376378 123.018792,361.638465 123.42,362.84 C123.729653,363.765897 124.253926,364.605419 124.95,365.29 C125.59696,365.908175 126.376896,366.369979 127.23,366.64 C128.1454,366.927851 129.100457,367.069591 130.06,367.06 L131.9,367.06 L133.8,366.99 L135.52,366.9 L136.88,366.81 L137,366.81 C137.45,366.81 137.67,367 137.67,367.37 L137.67,368.81 C137.661569,368.985465 137.568314,369.145863 137.42,369.24 Z" id="Path" fill="#939283" fill-rule="nonzero"></path>
            <path d="M152.51,369.47 C152.366675,369.611494 152.171262,369.687488 151.97,369.68 L149.7,369.68 C149.498738,369.687488 149.303325,369.611494 149.16,369.47 C149.049335,369.339099 148.992189,369.171233 149,369 L149,344.33 C148.998579,344.150303 149.075195,343.97883 149.21,343.86 C149.358356,343.728706 149.552116,343.660531 149.75,343.67 L152,343.67 C152.197884,343.660531 152.391644,343.728706 152.54,343.86 C152.672207,343.979869 152.745293,344.15162 152.74,344.33 L152.74,369 C152.730209,369.181366 152.647203,369.350985 152.51,369.47 L152.51,369.47 Z" id="Path" fill="#939283" fill-rule="nonzero"></path>
            <path d="M187.05,369.38 C186.816904,369.58073 186.517519,369.687653 186.21,369.68 L183.68,369.68 C183.170845,369.747692 182.665158,369.533158 182.36,369.12 L169.58,348.57 C169.53,348.5 169.48,348.46 169.46,348.46 C169.44,348.46 169.46,348.46 169.46,348.57 L169.46,369 C169.465642,369.180554 169.38826,369.353742 169.25,369.47 C169.102641,369.603998 168.909092,369.675682 168.71,369.67 L166.56,369.67 C166.377651,369.671394 166.195967,369.647842 166.02,369.6 C165.883903,369.539695 165.80286,369.397869 165.82,369.25 L165.82,344.65 C165.817726,344.374023 165.947772,344.113656 166.17,343.95 C166.411266,343.75901 166.712458,343.659794 167.02,343.67 L169.29,343.67 C169.682834,343.640975 170.077471,343.692005 170.45,343.82 C170.670424,343.958718 170.85535,344.147068 170.99,344.37 L183.68,364.81 L183.76,364.92 C183.76,364.92 183.76,364.92 183.76,364.81 L183.76,344.33 C183.758579,344.150303 183.835195,343.97883 183.97,343.86 C184.113554,343.727354 184.304867,343.65877 184.5,343.67 L186.66,343.67 C186.857884,343.660531 187.051644,343.728706 187.2,343.86 C187.328009,343.982811 187.400261,344.152606 187.400001,344.33 L187.400001,368.66 C187.397888,368.940502 187.269281,369.205066 187.05,369.38 L187.05,369.38 Z" id="Path" fill="#939283" fill-rule="nonzero"></path>
            <path d="M221.84,369.12 C221.84,369.49 221.6,369.68 221.13,369.68 L218.7,369.68 C218.531876,369.68726 218.367329,369.630026 218.24,369.52 C218.133292,369.414186 218.048358,369.288483 217.99,369.15 L215.31,361.15 L204.6,361.15 L201.95,369.15 C201.890519,369.298421 201.789912,369.426781 201.66,369.52 C201.53075,369.61968 201.373167,369.67571 201.21,369.68 L198.77,369.68 C198.3,369.68 198.07,369.49 198.07,369.12 C198.049259,369.037957 198.049259,368.952043 198.07,368.87 L205.72,346.08 C205.854954,345.593322 206.101474,345.144792 206.44,344.77 C206.742494,344.443459 207.09737,344.169697 207.49,343.96 C207.878196,343.771204 208.287852,343.630175 208.71,343.54 C209.112153,343.462858 209.520524,343.42269 209.93,343.42 C210.332385,343.422786 210.733814,343.459584 211.13,343.53 C211.548128,343.601079 211.952851,343.735986 212.33,343.93 C212.705657,344.13897 213.043666,344.409376 213.33,344.73 C213.67023,345.108988 213.919853,345.560361 214.06,346.05 L221.71,368.87 C221.770565,368.943176 221.814878,369.028394 221.84,369.12 Z M210.76,346.82 C210.682948,346.44703 210.350765,346.182124 209.97,346.19 C209.579436,346.171391 209.232646,346.437827 209.15,346.82 L205.38,358.33 L214.52,358.33 L210.76,346.82 Z" id="Shape" fill="#939283" fill-rule="nonzero"></path>
            <path d="M269.79,359 C269.831279,360.667255 269.528303,362.325112 268.9,363.87 C268.351218,365.192662 267.48585,366.360223 266.38,367.27 C265.215894,368.202783 263.870863,368.883812 262.43,369.27 C260.74847,369.724932 259.011822,369.943696 257.27,369.92 C256.47,369.92 255.69,369.92 254.93,369.92 L252.78,369.83 L250.98,369.72 C250.46,369.72 250.05,369.65 249.74,369.6 C249.16,369.533333 248.87,369.243333 248.87,368.73 L248.87,344.65 C248.87,344.13 249.16,343.84 249.74,343.77 C250.05,343.77 250.46,343.68 250.98,343.65 L252.78,343.54 L254.93,343.46 C255.69,343.46 256.47,343.46 257.27,343.46 C259.010336,343.440086 260.745578,343.651947 262.43,344.09 C263.875514,344.463947 265.223008,345.146222 266.38,346.09 C267.481447,347.003954 268.345941,348.170335 268.9,349.49 C269.531896,351.037339 269.834983,352.699213 269.79,354.37 L269.79,359 Z M266,354.29 C266.046517,352.924377 265.815174,351.563535 265.32,350.29 C264.925678,349.310259 264.289138,348.44663 263.47,347.78 C262.652405,347.145808 261.707559,346.695556 260.7,346.46 C259.572048,346.199779 258.417553,346.072248 257.26,346.08 L254.8,346.08 C254.1,346.08 253.41,346.13 252.72,346.17 L252.72,367.07 C253.38,367.12 254.07,367.14 254.78,367.14 L257.29,367.14 C258.447553,367.147752 259.602048,367.020221 260.73,366.76 C261.740296,366.521501 262.685897,366.064062 263.5,365.42 C264.312244,364.750886 264.947552,363.892363 265.35,362.92 C265.84762,361.647142 266.079049,360.285792 266.03,358.92 L266,354.29 Z" id="Shape" fill="#939283" fill-rule="nonzero"></path>
            <path d="M285.54,369.47 C285.401861,369.613122 285.208677,369.689666 285.01,369.68 L282.73,369.68 C282.531323,369.689666 282.338139,369.613122 282.2,369.47 C282.07479,369.345276 282.003058,369.176704 281.999981,369 L281.999981,344.33 C281.998579,344.150303 282.075195,343.97883 282.21,343.86 C282.353554,343.727354 282.544867,343.65877 282.74,343.67 L285,343.67 C285.195133,343.65877 285.386446,343.727354 285.53,343.86 C285.664805,343.97883 285.741421,344.150303 285.740019,344.33 L285.740019,369 C285.736942,369.176704 285.66521,369.345276 285.54,369.47 Z" id="Path" fill="#939283" fill-rule="nonzero"></path>
            <path d="M320.56,369.12 C320.56,369.49 320.33,369.68 319.86,369.68 L317.42,369.68 C317.252025,369.686258 317.087834,369.629148 316.96,369.52 C316.853462,369.416064 316.771468,369.289657 316.72,369.15 L314.03,361.15 L303.32,361.15 L300.67,369.15 C300.611024,369.295922 300.514407,369.423594 300.39,369.52 C300.257674,369.621064 300.09648,369.677131 299.93,369.68 L297.49,369.68 C297.02,369.68 296.79,369.49 296.79,369.12 C296.769259,369.037957 296.769259,368.952043 296.79,368.87 L304.44,346.08 C304.574954,345.593322 304.821474,345.144792 305.16,344.77 C305.464054,344.440976 305.82266,344.166947 306.22,343.96 C306.60682,343.767896 307.016901,343.626721 307.44,343.54 C307.842013,343.46189 308.250473,343.421714 308.66,343.42 C309.059048,343.423253 309.457117,343.46005 309.85,343.53 C310.268684,343.598844 310.673747,343.733865 311.05,343.93 C311.444847,344.136681 311.80297,344.406962 312.11,344.73 C312.446919,345.10976 312.69312,345.561128 312.83,346.05 L320.48,368.87 C320.528022,368.944926 320.555603,369.031114 320.56,369.12 Z M309.48,346.82 C309.40365,346.450774 309.077025,346.186961 308.7,346.19 C308.307047,346.170557 307.956949,346.436295 307.87,346.82 L304.11,358.33 L313.24,358.33 L309.48,346.82 Z" id="Shape" fill="#939283" fill-rule="nonzero"></path>
            <path d="M348.38,369.39 C347.38,369.53 346.23,369.66 344.97,369.76 C343.71,369.86 342.11,369.919999 340.16,369.919999 C338.848359,369.919999 337.544052,369.72439 336.29,369.34 C335.030437,368.968615 333.862214,368.338523 332.86,367.49 C331.797589,366.569401 330.956691,365.420858 330.4,364.13 C329.724946,362.516696 329.401101,360.778158 329.45,359.03 L329.45,354.34 C329.392718,352.528011 329.734093,350.725552 330.45,349.06 C331.578159,346.489019 333.841502,344.591805 336.57,343.93 C337.876286,343.590931 339.220426,343.419553 340.57,343.419999 C342.5,343.419999 344.09,343.47 345.34,343.58 C346.59,343.69 347.62,343.8 348.42,343.91 C348.593011,343.929986 348.761766,343.977238 348.92,344.05 C349.062159,344.12584 349.144937,344.27957 349.13,344.44 L349.13,346.19 C349.13,346.419999 348.95,346.54 348.59,346.54 L348.42,346.54 L346.67,346.41 L344.91,346.34 L342.91,346.34 L340.53,346.34 C339.593958,346.333991 338.661649,346.458523 337.76,346.71 C336.889382,346.949937 336.087662,347.391911 335.42,348 C334.701324,348.693148 334.150628,349.541426 333.81,350.48 C333.376563,351.733208 333.173293,353.054462 333.21,354.38 L333.21,359 C333.179643,360.251711 333.362242,361.499477 333.75,362.69 C334.057787,363.622305 334.566416,364.475709 335.24,365.19 C335.854245,365.82883 336.611816,366.312167 337.45,366.6 C338.321229,366.901735 339.238061,367.050593 340.16,367.04 C341.42,367.04 342.49,367.04 343.34,366.97 C344.19,366.9 344.87,366.88 345.34,366.83 L345.34,356.83 C345.335393,356.645918 345.407898,356.468282 345.54,356.34 C345.683325,356.198506 345.878738,356.122512 346.08,356.13 L348.31,356.13 C348.516974,356.123905 348.718068,356.199315 348.87,356.34 C349.014264,356.462124 349.098224,356.640995 349.1,356.83 L349.1,368.61 C349.12,369.063333 348.88,369.323333 348.38,369.39 Z" id="Path" fill="#939283" fill-rule="nonzero"></path>
            <path d="M383.05,369.38 C382.816904,369.58073 382.517519,369.687653 382.21,369.68 L379.68,369.68 C379.170845,369.747692 378.665158,369.533158 378.36,369.12 L365.58,348.57 C365.53,348.5 365.48,348.46 365.46,348.46 C365.44,348.46 365.46,348.46 365.46,348.57 L365.46,369 C365.465642,369.180554 365.38826,369.353742 365.25,369.47 C365.102641,369.603998 364.909092,369.675682 364.71,369.67 L362.56,369.67 C362.377651,369.671394 362.195967,369.647842 362.02,369.6 C361.883903,369.539695 361.80286,369.397869 361.82,369.25 L361.82,344.65 C361.817726,344.374023 361.947772,344.113656 362.17,343.95 C362.411266,343.75901 362.712458,343.659794 363.02,343.67 L365.29,343.67 C365.682834,343.640975 366.077471,343.692005 366.45,343.82 C366.670424,343.958718 366.85535,344.147068 366.99,344.37 L379.68,364.81 L379.76,364.92 C379.76,364.92 379.76,364.92 379.76,364.81 L379.76,344.33 C379.758579,344.150303 379.835195,343.97883 379.97,343.86 C380.113554,343.727354 380.304867,343.65877 380.5,343.67 L382.66,343.67 C382.857884,343.660531 383.051644,343.728706 383.2,343.86 C383.328009,343.982811 383.400261,344.152606 383.400001,344.33 L383.400001,368.66 C383.397888,368.940502 383.269281,369.205066 383.05,369.38 Z" id="Path" fill="#939283" fill-rule="nonzero"></path>
            <path d="M417.75,358.93 C417.793481,360.6334 417.515285,362.329718 416.93,363.93 C416.431051,365.230927 415.636866,366.398242 414.61,367.34 C413.589471,368.25615 412.381394,368.93868 411.07,369.34 C408.129073,370.181947 405.010927,370.181947 402.07,369.34 C400.756666,368.943208 399.547651,368.260149 398.53,367.34 C397.494195,366.401852 396.692753,365.233938 396.19,363.93 C395.58416,362.334482 395.295433,360.636088 395.34,358.93 L395.34,354.41 C395.294143,352.703821 395.582913,351.005179 396.19,349.41 C396.693361,348.103505 397.494598,346.932467 398.53,345.99 C399.550151,345.073324 400.758351,344.390725 402.07,343.99 C405.010927,343.148053 408.129073,343.148053 411.07,343.99 C412.379633,344.39541 413.586876,345.077468 414.61,345.99 C415.636755,346.935809 416.430789,348.106325 416.93,349.41 C417.516686,351.009914 417.794926,352.706501 417.75,354.41 L417.75,358.93 Z M413.91,354.41 C413.940662,353.143381 413.765035,351.880212 413.39,350.67 C413.101172,349.729959 412.601857,348.868127 411.93,348.15 C411.293586,347.487554 410.498425,346.998753 409.62,346.73 C407.628992,346.143275 405.511008,346.143275 403.52,346.73 C402.637788,347.003219 401.837186,347.49114 401.19,348.15 C400.508332,348.864174 400.001709,349.726803 399.71,350.67 C399.334965,351.880212 399.159338,353.143381 399.19,354.41 L399.19,358.93 C399.159316,360.1999 399.334933,361.466364 399.71,362.68 C400.003568,363.617964 400.502302,364.478793 401.17,365.2 C401.815643,365.858578 402.617058,366.343554 403.5,366.61 C404.493715,366.917696 405.529863,367.066199 406.57,367.05 C407.603683,367.06783 408.633504,366.919266 409.62,366.61 C410.495948,366.340908 411.290259,365.856069 411.93,365.2 C412.597698,364.478793 413.096432,363.617964 413.39,362.68 C413.765067,361.466364 413.940684,360.1999 413.91,358.93 L413.91,354.41 Z M411.76,336.67 C411.744698,336.782899 411.683109,336.884341 411.59,336.95 L406.92,341.36 C406.777471,341.501508 406.627243,341.635045 406.47,341.76 C406.319471,341.850055 406.145004,341.891927 405.97,341.88 L403.74,341.88 C403.49,341.88 403.37,341.8 403.37,341.64 C403.365237,341.504646 403.424523,341.374958 403.53,341.29 L407.58,336.95 C407.78,336.76 407.93,336.63 408.04,336.54 C408.20389,336.446743 408.392038,336.404932 408.58,336.42 L411.31,336.42 C411.61,336.42 411.76,336.5 411.76,336.67 L411.76,336.67 Z" id="Shape" fill="#939283" fill-rule="nonzero"></path>
            <path d="M447.07,362.92 C447.062913,363.780221 446.907292,364.632753 446.61,365.44 C446.277311,366.319624 445.722668,367.098193 445,367.7 C444.081619,368.445262 443.019541,368.993321 441.88,369.31 C440.251606,369.754077 438.567397,369.959551 436.88,369.92 C435.42,369.92 434.14,369.87 433.04,369.76 C431.94,369.65 430.93,369.55 430.04,369.43 C429.68,369.38 429.46,369.32 429.38,369.22 C429.290375,369.099193 429.247726,368.949922 429.26,368.8 L429.26,367.4 C429.245749,367.234123 429.32224,367.073491 429.46,366.98 C429.609768,366.886294 429.783348,366.837691 429.96,366.84 L430,366.84 C430.47,366.89 431,366.92 431.59,366.95 L433.41,367 L435.23,367 C435.82,367 436.35,367 436.82,367 C437.854885,367.021292 438.888676,366.920598 439.9,366.7 C440.596875,366.564038 441.255592,366.277343 441.83,365.86 C442.279091,365.52525 442.625497,365.071458 442.83,364.55 C443.026558,364.011902 443.124787,363.442853 443.12,362.87 C443.127136,362.453145 443.041753,362.039894 442.87,361.66 C442.667647,361.251433 442.385416,360.887593 442.04,360.59 C441.566287,360.175328 441.053948,359.80698 440.51,359.49 C439.88,359.11 439.09,358.67 438.16,358.18 L434.16,356.11 C432.581692,355.345981 431.136564,354.333041 429.88,353.11 C428.783673,351.918755 428.278458,350.299133 428.503074,348.695841 C428.72769,347.092549 429.658526,345.674114 431.04,344.83 C433.310639,343.698357 435.836972,343.177925 438.37,343.32 C438.98,343.32 439.62,343.32 440.3,343.32 L442.3,343.4 L444.14,343.54 L445.59,343.7 C446.06,343.77 446.29,343.97 446.29,344.3 L446.29,345.8 C446.29,346.18 446.06,346.36 445.59,346.36 L445.5,346.36 L442.18,346.22 C440.87,346.22 439.61,346.15 438.39,346.15 C436.808183,346.057349 435.224436,346.295763 433.74,346.85 C432.770274,347.350639 432.20663,348.394572 432.32,349.48 C432.32546,350.317898 432.72106,351.105399 433.39,351.61 C434.446846,352.437182 435.594195,353.141694 436.81,353.71 L440.6,355.64 C441.633825,356.163314 442.635595,356.74768 443.6,357.39 C444.327841,357.87285 444.998767,358.436428 445.6,359.07 C446.087474,359.571878 446.46844,360.167137 446.72,360.82 C446.967055,361.491929 447.085778,362.204265 447.07,362.92 L447.07,362.92 Z" id="Path" fill="#939283" fill-rule="nonzero"></path>
            <path d="M477.49,346.36 L469.43,346.36 L469.43,369 C469.429611,369.185108 469.353776,369.362058 469.22,369.49 C469.081861,369.633122 468.888677,369.709666 468.69,369.7 L466.41,369.7 C466.211323,369.709666 466.018139,369.633122 465.88,369.49 C465.746224,369.362058 465.670389,369.185108 465.67,369 L465.67,346.36 L457.61,346.36 C457.407409,346.368186 457.206549,346.319703 457.03,346.22 C456.872861,346.144863 456.774836,345.984103 456.779805,345.81 L456.779805,344.29 C456.779805,344.106884 456.874524,343.93674 457.03,343.84 C457.201171,343.724866 457.40376,343.665486 457.61,343.66976 L477.49,343.66976 C478.02,343.66976 478.28,343.87 478.28,344.29 L478.28,345.81 C478.28,346.18 478,346.36 477.49,346.36 Z" id="Path" fill="#939283" fill-rule="nonzero"></path>
            <path d="M493.12,369.47 C492.976675,369.611494 492.781262,369.687488 492.58,369.68 L490.31,369.68 C490.108738,369.687488 489.913325,369.611494 489.77,369.47 C489.636224,369.342058 489.560389,369.165108 489.559981,368.98 L489.559981,344.33 C489.558579,344.150303 489.635195,343.97883 489.77,343.86 C489.918356,343.728706 490.112116,343.660531 490.31,343.67 L492.58,343.67 C492.777884,343.660531 492.971644,343.728706 493.12,343.86 C493.254805,343.97883 493.331421,344.150303 493.330019,344.33 L493.330019,369 C493.324297,369.178133 493.248887,369.346907 493.12,369.47 Z" id="Path" fill="#939283" fill-rule="nonzero"></path>
            <path d="M524,369.24 C523.820662,369.348104 523.624687,369.425818 523.42,369.47 L522.1,369.66 C521.66,369.72 521.18,369.76 520.65,369.8 L518.88,369.89 C518.21,369.89 517.44,369.89 516.56,369.89 C515.261253,369.887877 513.967874,369.723265 512.71,369.4 C511.430651,369.07851 510.234227,368.488819 509.2,367.67 C508.099993,366.773528 507.223569,365.633493 506.64,364.34 C505.922069,362.678586 505.580576,360.87892 505.64,359.07 L505.64,354.21 C505.577785,352.391158 505.919301,350.581122 506.64,348.91 C507.218478,347.619091 508.09601,346.48447 509.2,345.6 C510.237188,344.788065 511.432815,344.202174 512.71,343.88 C513.968807,343.561632 515.261577,343.397098 516.56,343.39 C517.88,343.39 519.14,343.46 520.34,343.58 C521.54,343.7 522.6,343.84 523.5,343.95 C523.95,343.95 524.17,344.15 524.17,344.41 L524.17,346.19 C524.17566,346.291252 524.143595,346.391009 524.08,346.47 C524.03,346.54 523.89,346.58 523.67,346.58 L523.55,346.58 L522.16,346.49 L520.43,346.38 L518.5,346.3 C517.84,346.3 517.21,346.3 516.6,346.3 C515.641373,346.292943 514.68721,346.431178 513.77,346.71 C512.920452,346.950831 512.141683,347.393391 511.5,348 C510.803926,348.684581 510.279653,349.524103 509.97,350.45 C509.562487,351.660364 509.372884,352.933414 509.41,354.21 L509.41,359.07 C509.374325,360.336684 509.563937,361.599636 509.97,362.8 C510.279653,363.725897 510.803926,364.565419 511.5,365.25 C512.14167,365.870035 512.918836,366.332226 513.77,366.6 C514.685549,366.887202 515.640502,367.028926 516.6,367.02 L518.44,367.02 L520.34,366.95 L522.06,366.86 L523.42,366.77 L523.59,366.77 C524.03,366.77 524.25,366.96 524.25,367.33 L524.25,368.77 C524.259259,368.96068 524.16329,369.141101 524,369.24 L524,369.24 Z" id="Path" fill="#939283" fill-rule="nonzero"></path>
            <path d="M556.87,369.12 C556.87,369.49 556.63,369.68 556.17,369.68 L553.73,369.68 C553.561876,369.68726 553.397329,369.630026 553.27,369.52 C553.163292,369.414186 553.078358,369.288483 553.02,369.15 L550.34,361.15 L539.63,361.15 L536.98,369.15 C536.920519,369.298421 536.819912,369.426781 536.69,369.52 C536.56075,369.61968 536.403167,369.67571 536.24,369.68 L533.8,369.68 C533.33,369.68 533.1,369.49 533.1,369.12 C533.079259,369.037957 533.079259,368.952043 533.1,368.87 L540.75,346.08 C540.884954,345.593322 541.131474,345.144792 541.47,344.77 C541.757431,344.447798 542.095134,344.174258 542.47,343.96 C542.858196,343.771204 543.267852,343.630175 543.69,343.54 C544.092153,343.462858 544.500524,343.42269 544.91,343.42 C545.312385,343.422786 545.713814,343.459584 546.11,343.53 C546.528684,343.598844 546.933747,343.733865 547.31,343.93 C547.703446,344.134229 548.058667,344.404873 548.36,344.73 C548.70023,345.108988 548.949853,345.560361 549.09,346.05 L556.74,368.87 C556.800565,368.943176 556.844878,369.028394 556.87,369.12 Z M545.79,346.82 C545.712948,346.44703 545.380765,346.182124 545,346.19 C544.609436,346.171391 544.262646,346.437827 544.18,346.82 L540.41,358.33 L549.55,358.33 L545.79,346.82 Z" id="Shape" fill="#939283" fill-rule="nonzero"></path>
            <path d="M274.17,127.34 C282.92,51.05 212.71,10.52 202.12,33 C192.63,51.16 262.21,49.31 274.17,127.34 Z" id="Path" fill="#939283"></path>
            <path d="M281.51,127.34 C272.75,51.05 343,10.52 353.56,33 C363.05,51.16 293.47,49.31 281.51,127.34 Z" id="Path" fill="#939283"></path>
            <path d="M274.51,173.3 C274.51,75.79 180.93,42.19 170.82,72.05 C161.48,96.36 249.87,72.31 274.51,173.3 Z M277.84,0 C302.96,0.45 281.77,41 277.84,82.84 C273.91,41 252.72,0.45 277.84,0 Z M281.16,173.3 C305.8,72.3 394.16,96.36 384.86,72.05 C374.75,42.19 281.16,75.79 281.16,173.3 L281.16,173.3 Z" id="Shape" fill="#00817B"></path>
        </g>
    </g>
</svg>