<?xml version="1.0" encoding="UTF-8"?>
<svg width="54px" height="44px" viewBox="0 0 54 44" version="1.1" xmlns="http://www.w3.org/2000/svg" xmlns:xlink="http://www.w3.org/1999/xlink">
    <!-- Generator: Sketch 61.2 (89653) - https://sketch.com -->
    <title>symbol-overlay</title>
    <desc>Created with Sketch.</desc>
    <g id="Page-1" stroke="none" stroke-width="1" fill="none" fill-rule="evenodd" opacity="0.03">
        <g id="symbol-overlay" fill-rule="nonzero">
            <g id="Page-1">
                <g id="symbol-bw">
                    <g id="Path" transform="translate(7.750000, 6.500000)">
                        <g id="path-1-link" fill="#939283">
                            <path d="M18.2925,25.335 C20.48,6.2625 2.92750005,-3.87 0.28000005,1.75 C-2.09249995,6.29 15.3025,5.8275 18.2925,25.335 Z" id="path-1"></path>
                        </g>
                        <g id="path-1-link" fill="#000000">
                            <path d="M18.2925,25.335 C20.48,6.2625 2.92750005,-3.87 0.28000005,1.75 C-2.09249995,6.29 15.3025,5.8275 18.2925,25.335 Z" id="path-1"></path>
                        </g>
                    </g>
                    <g id="Path" transform="translate(27.500000, 6.500000)">
                        <g id="path-2-link" fill="#939283">
                            <path d="M0.3775,25.335 C-1.8125,6.2625 15.75,-3.87 18.39,1.75 C20.7625,6.29 3.3675,5.8275 0.3775,25.335 Z" id="path-2"></path>
                        </g>
                        <g id="path-2-link" fill="#000000">
                            <path d="M0.3775,25.335 C-1.8125,6.2625 15.75,-3.87 18.39,1.75 C20.7625,6.29 3.3675,5.8275 0.3775,25.335 Z" id="path-2"></path>
                        </g>
                    </g>
                    <g id="Shape">
                        <g id="path-3-link" fill="#00817B">
                            <path d="M26.1275,43.325 C26.1275,18.9475 2.73250005,10.5475 0.205000045,18.0125 C-2.12999996,24.09 19.9675001,18.0775 26.1275,43.325 Z M26.96,0 C33.24,0.1125 27.9425,10.25 26.96,20.71 C25.9775,10.25 20.68,0.1125 26.96,0 Z M27.79,43.325 C33.95,18.075 56.04,24.09 53.715,18.0125 C51.1875,10.5475 27.79,18.9475 27.79,43.325 L27.79,43.325 Z" id="path-3"></path>
                        </g>
                        <g id="path-3-link" fill="#000000">
                            <path d="M26.1275,43.325 C26.1275,18.9475 2.73250005,10.5475 0.205000045,18.0125 C-2.12999996,24.09 19.9675001,18.0775 26.1275,43.325 Z M26.96,0 C33.24,0.1125 27.9425,10.25 26.96,20.71 C25.9775,10.25 20.68,0.1125 26.96,0 Z M27.79,43.325 C33.95,18.075 56.04,24.09 53.715,18.0125 C51.1875,10.5475 27.79,18.9475 27.79,43.325 L27.79,43.325 Z" id="path-3"></path>
                        </g>
                    </g>
                </g>
            </g>
        </g>
    </g>
</svg>